<svg xmlns="http://www.w3.org/2000/svg" xmlns:xlink="http://www.w3.org/1999/xlink" contentStyleType="text/css" data-diagram-type="CLASS" height="1254px" preserveAspectRatio="none" style="width:1938px;height:1254px;background:#FFFFFF;" version="1.1" viewBox="0 0 1938 1254" width="1938px" zoomAndPan="magnify"><title>Business Domain Model</title><defs/><g><text fill="#000000" font-family="sans-serif" font-size="14" font-weight="bold" lengthAdjust="spacing" textLength="187.5508" x="868.6631" y="22.9951">Business Domain Model</text><!--class user--><g class="entity" data-entity="user" data-source-line="3" data-uid="ent0002" id="entity_user"><rect fill="#F1F1F1" height="50" rx="2.5" ry="2.5" style="stroke:#181818;stroke-width:0.5;" width="160.5234" x="1167.5" y="44.2969"/><ellipse cx="1183.5" cy="61.2969" fill="#ADD1B2" rx="12" ry="12" style="stroke:#181818;stroke-width:1;"/><path d="M1188.2188,68.7969 L1179.1406,68.7969 L1179.1406,54.2188 L1188.2188,54.2188 L1188.2188,56.75 L1182.0156,56.75 L1182.0156,59.9063 L1187.6406,59.9063 L1187.6406,62.4375 L1182.0156,62.4375 L1182.0156,66.25 L1188.2188,66.25 L1188.2188,68.7969 Z " fill="#000000"/><text fill="#000000" font-family="sans-serif" font-size="20" lengthAdjust="spacing" textLength="126.5234" x="1198.5" y="68.2207">System User</text><line style="stroke:#181818;stroke-width:0.5;" x1="1168.5" x2="1327.0234" y1="78.2969" y2="78.2969"/><line style="stroke:#181818;stroke-width:0.5;" x1="1168.5" x2="1327.0234" y1="86.2969" y2="86.2969"/></g><!--class PA--><g class="entity" data-entity="PA" data-source-line="5" data-uid="ent0003" id="entity_PA"><rect fill="#F1F1F1" height="50" rx="2.5" ry="2.5" style="stroke:#181818;stroke-width:0.5;" width="189.7324" x="583" y="179.2969"/><ellipse cx="599" cy="196.2969" fill="#ADD1B2" rx="12" ry="12" style="stroke:#181818;stroke-width:1;"/><path d="M603.7188,203.7969 L594.6406,203.7969 L594.6406,189.2188 L603.7188,189.2188 L603.7188,191.75 L597.5156,191.75 L597.5156,194.9063 L603.1406,194.9063 L603.1406,197.4375 L597.5156,197.4375 L597.5156,201.25 L603.7188,201.25 L603.7188,203.7969 Z " fill="#000000"/><text fill="#000000" font-family="sans-serif" font-size="20" lengthAdjust="spacing" textLength="155.7324" x="614" y="203.2207">Port Authorities</text><line style="stroke:#181818;stroke-width:0.5;" x1="584" x2="771.7324" y1="213.2969" y2="213.2969"/><line style="stroke:#181818;stroke-width:0.5;" x1="584" x2="771.7324" y1="221.2969" y2="221.2969"/></g><!--class SAO--><g class="entity" data-entity="SAO" data-source-line="6" data-uid="ent0004" id="entity_SAO"><rect fill="#F1F1F1" height="72.5625" rx="2.5" ry="2.5" style="stroke:#181818;stroke-width:0.5;" width="226.2949" x="896" y="314.2969"/><ellipse cx="912" cy="342.5781" fill="#ADD1B2" rx="12" ry="12" style="stroke:#181818;stroke-width:1;"/><path d="M916.7188,350.0781 L907.6406,350.0781 L907.6406,335.5 L916.7188,335.5 L916.7188,338.0313 L910.5156,338.0313 L910.5156,341.1875 L916.1406,341.1875 L916.1406,343.7188 L910.5156,343.7188 L910.5156,347.5313 L916.7188,347.5313 L916.7188,350.0781 Z " fill="#000000"/><text fill="#000000" font-family="sans-serif" font-size="20" lengthAdjust="spacing" textLength="152.8027" x="946.7461" y="337.8613">Shipping Agent</text><text fill="#000000" font-family="sans-serif" font-size="20" lengthAdjust="spacing" textLength="192.2949" x="927" y="361.1426">Organization (SAO)</text><line style="stroke:#181818;stroke-width:0.5;" x1="897" x2="1121.2949" y1="370.8594" y2="370.8594"/><line style="stroke:#181818;stroke-width:0.5;" x1="897" x2="1121.2949" y1="378.8594" y2="378.8594"/></g><!--class SAOR--><g class="entity" data-entity="SAOR" data-source-line="7" data-uid="ent0005" id="entity_SAOR"><rect fill="#F1F1F1" height="50" rx="2.5" ry="2.5" style="stroke:#181818;stroke-width:0.5;" width="234.9375" x="959.5" y="497.2969"/><ellipse cx="975.5" cy="514.2969" fill="#ADD1B2" rx="12" ry="12" style="stroke:#181818;stroke-width:1;"/><path d="M980.2188,521.7969 L971.1406,521.7969 L971.1406,507.2188 L980.2188,507.2188 L980.2188,509.75 L974.0156,509.75 L974.0156,512.9063 L979.6406,512.9063 L979.6406,515.4375 L974.0156,515.4375 L974.0156,519.25 L980.2188,519.25 L980.2188,521.7969 Z " fill="#000000"/><text fill="#000000" font-family="sans-serif" font-size="20" lengthAdjust="spacing" textLength="200.9375" x="990.5" y="521.2207">SAO Representative</text><line style="stroke:#181818;stroke-width:0.5;" x1="960.5" x2="1193.4375" y1="531.2969" y2="531.2969"/><line style="stroke:#181818;stroke-width:0.5;" x1="960.5" x2="1193.4375" y1="539.2969" y2="539.2969"/></g><!--class LO--><g class="entity" data-entity="LO" data-source-line="8" data-uid="ent0006" id="entity_LO"><rect fill="#F1F1F1" height="50" rx="2.5" ry="2.5" style="stroke:#181818;stroke-width:0.5;" width="227.1641" x="1329.5" y="657.2969"/><ellipse cx="1345.5" cy="674.2969" fill="#ADD1B2" rx="12" ry="12" style="stroke:#181818;stroke-width:1;"/><path d="M1350.2188,681.7969 L1341.1406,681.7969 L1341.1406,667.2188 L1350.2188,667.2188 L1350.2188,669.75 L1344.0156,669.75 L1344.0156,672.9063 L1349.6406,672.9063 L1349.6406,675.4375 L1344.0156,675.4375 L1344.0156,679.25 L1350.2188,679.25 L1350.2188,681.7969 Z " fill="#000000"/><text fill="#000000" font-family="sans-serif" font-size="20" lengthAdjust="spacing" textLength="193.1641" x="1360.5" y="681.2207">Logistics Operators</text><line style="stroke:#181818;stroke-width:0.5;" x1="1330.5" x2="1555.6641" y1="691.2969" y2="691.2969"/><line style="stroke:#181818;stroke-width:0.5;" x1="1330.5" x2="1555.6641" y1="699.2969" y2="699.2969"/></g><!--class AD--><g class="entity" data-entity="AD" data-source-line="9" data-uid="ent0007" id="entity_AD"><rect fill="#F1F1F1" height="50" rx="2.5" ry="2.5" style="stroke:#181818;stroke-width:0.5;" width="170.6895" x="1319.5" y="179.2969"/><ellipse cx="1335.5" cy="196.2969" fill="#ADD1B2" rx="12" ry="12" style="stroke:#181818;stroke-width:1;"/><path d="M1340.2188,203.7969 L1331.1406,203.7969 L1331.1406,189.2188 L1340.2188,189.2188 L1340.2188,191.75 L1334.0156,191.75 L1334.0156,194.9063 L1339.6406,194.9063 L1339.6406,197.4375 L1334.0156,197.4375 L1334.0156,201.25 L1340.2188,201.25 L1340.2188,203.7969 Z " fill="#000000"/><text fill="#000000" font-family="sans-serif" font-size="20" lengthAdjust="spacing" textLength="136.6895" x="1350.5" y="203.2207">Administrator</text><line style="stroke:#181818;stroke-width:0.5;" x1="1320.5" x2="1489.1895" y1="213.2969" y2="213.2969"/><line style="stroke:#181818;stroke-width:0.5;" x1="1320.5" x2="1489.1895" y1="221.2969" y2="221.2969"/></g><!--class staff--><g class="entity" data-entity="staff" data-source-line="11" data-uid="ent0008" id="entity_staff"><rect fill="#F1F1F1" height="50" rx="2.5" ry="2.5" style="stroke:#181818;stroke-width:0.5;" width="80.875" x="1624.5" y="927.2969"/><ellipse cx="1640.5" cy="944.2969" fill="#ADD1B2" rx="12" ry="12" style="stroke:#181818;stroke-width:1;"/><path d="M1643.5625,951.375 Q1642.875,951.7344 1642.125,951.9063 Q1641.375,952.0781 1640.5469,952.0781 Q1637.5938,952.0781 1636.0313,950.1406 Q1634.4844,948.1875 1634.4844,944.5156 Q1634.4844,940.8438 1636.0313,938.9063 Q1637.5938,936.9531 1640.5469,936.9531 Q1641.375,936.9531 1642.125,937.125 Q1642.8906,937.2969 1643.5625,937.6563 L1643.5625,940.8594 Q1642.8125,940.1719 1642.1094,939.8594 Q1641.4219,939.5469 1640.6719,939.5469 Q1639.0938,939.5469 1638.2813,940.7969 Q1637.4844,942.0469 1637.4844,944.5156 Q1637.4844,946.9844 1638.2813,948.2344 Q1639.0938,949.4844 1640.6719,949.4844 Q1641.4219,949.4844 1642.1094,949.1719 Q1642.8125,948.8594 1643.5625,948.1719 L1643.5625,951.375 Z " fill="#000000"/><text fill="#000000" font-family="sans-serif" font-size="20" lengthAdjust="spacing" textLength="46.875" x="1655.5" y="951.2207">Staff</text><line style="stroke:#181818;stroke-width:0.5;" x1="1625.5" x2="1704.375" y1="961.2969" y2="961.2969"/><line style="stroke:#181818;stroke-width:0.5;" x1="1625.5" x2="1704.375" y1="969.2969" y2="969.2969"/></g><!--class res--><g class="entity" data-entity="res" data-source-line="13" data-uid="ent0009" id="entity_res"><rect fill="#F1F1F1" height="50" rx="2.5" ry="2.5" style="stroke:#181818;stroke-width:0.5;" width="127.0566" x="1330.5" y="927.2969"/><ellipse cx="1346.5" cy="944.2969" fill="#ADD1B2" rx="12" ry="12" style="stroke:#181818;stroke-width:1;"/><path d="M1349.5625,951.375 Q1348.875,951.7344 1348.125,951.9063 Q1347.375,952.0781 1346.5469,952.0781 Q1343.5938,952.0781 1342.0313,950.1406 Q1340.4844,948.1875 1340.4844,944.5156 Q1340.4844,940.8438 1342.0313,938.9063 Q1343.5938,936.9531 1346.5469,936.9531 Q1347.375,936.9531 1348.125,937.125 Q1348.8906,937.2969 1349.5625,937.6563 L1349.5625,940.8594 Q1348.8125,940.1719 1348.1094,939.8594 Q1347.4219,939.5469 1346.6719,939.5469 Q1345.0938,939.5469 1344.2813,940.7969 Q1343.4844,942.0469 1343.4844,944.5156 Q1343.4844,946.9844 1344.2813,948.2344 Q1345.0938,949.4844 1346.6719,949.4844 Q1347.4219,949.4844 1348.1094,949.1719 Q1348.8125,948.8594 1349.5625,948.1719 L1349.5625,951.375 Z " fill="#000000"/><text fill="#000000" font-family="sans-serif" font-size="20" lengthAdjust="spacing" textLength="93.0566" x="1361.5" y="951.2207">Resource</text><line style="stroke:#181818;stroke-width:0.5;" x1="1331.5" x2="1456.5566" y1="961.2969" y2="961.2969"/><line style="stroke:#181818;stroke-width:0.5;" x1="1331.5" x2="1456.5566" y1="969.2969" y2="969.2969"/></g><!--class docks--><g class="entity" data-entity="docks" data-source-line="15" data-uid="ent0010" id="entity_docks"><rect fill="#F1F1F1" height="50" rx="2.5" ry="2.5" style="stroke:#181818;stroke-width:0.5;" width="94.6348" x="831.5" y="792.2969"/><ellipse cx="847.5" cy="809.2969" fill="#ADD1B2" rx="12" ry="12" style="stroke:#181818;stroke-width:1;"/><path d="M850.5625,816.375 Q849.875,816.7344 849.125,816.9063 Q848.375,817.0781 847.5469,817.0781 Q844.5938,817.0781 843.0313,815.1406 Q841.4844,813.1875 841.4844,809.5156 Q841.4844,805.8438 843.0313,803.9063 Q844.5938,801.9531 847.5469,801.9531 Q848.375,801.9531 849.125,802.125 Q849.8906,802.2969 850.5625,802.6563 L850.5625,805.8594 Q849.8125,805.1719 849.1094,804.8594 Q848.4219,804.5469 847.6719,804.5469 Q846.0938,804.5469 845.2813,805.7969 Q844.4844,807.0469 844.4844,809.5156 Q844.4844,811.9844 845.2813,813.2344 Q846.0938,814.4844 847.6719,814.4844 Q848.4219,814.4844 849.1094,814.1719 Q849.8125,813.8594 850.5625,813.1719 L850.5625,816.375 Z " fill="#000000"/><text fill="#000000" font-family="sans-serif" font-size="20" lengthAdjust="spacing" textLength="60.6348" x="862.5" y="816.2207">Docks</text><line style="stroke:#181818;stroke-width:0.5;" x1="832.5" x2="925.1348" y1="826.2969" y2="826.2969"/><line style="stroke:#181818;stroke-width:0.5;" x1="832.5" x2="925.1348" y1="834.2969" y2="834.2969"/></g><!--class cranes--><g class="entity" data-entity="cranes" data-source-line="16" data-uid="ent0011" id="entity_cranes"><rect fill="#F1F1F1" height="50" rx="2.5" ry="2.5" style="stroke:#181818;stroke-width:0.5;" width="247.877" x="1684" y="1062.2969"/><ellipse cx="1700" cy="1079.2969" fill="#ADD1B2" rx="12" ry="12" style="stroke:#181818;stroke-width:1;"/><path d="M1703.0625,1086.375 Q1702.375,1086.7344 1701.625,1086.9063 Q1700.875,1087.0781 1700.0469,1087.0781 Q1697.0938,1087.0781 1695.5313,1085.1406 Q1693.9844,1083.1875 1693.9844,1079.5156 Q1693.9844,1075.8438 1695.5313,1073.9063 Q1697.0938,1071.9531 1700.0469,1071.9531 Q1700.875,1071.9531 1701.625,1072.125 Q1702.3906,1072.2969 1703.0625,1072.6563 L1703.0625,1075.8594 Q1702.3125,1075.1719 1701.6094,1074.8594 Q1700.9219,1074.5469 1700.1719,1074.5469 Q1698.5938,1074.5469 1697.7813,1075.7969 Q1696.9844,1077.0469 1696.9844,1079.5156 Q1696.9844,1081.9844 1697.7813,1083.2344 Q1698.5938,1084.4844 1700.1719,1084.4844 Q1700.9219,1084.4844 1701.6094,1084.1719 Q1702.3125,1083.8594 1703.0625,1083.1719 L1703.0625,1086.375 Z " fill="#000000"/><text fill="#000000" font-family="sans-serif" font-size="20" lengthAdjust="spacing" textLength="213.877" x="1715" y="1086.2207">Ship-To-Shore cranes</text><line style="stroke:#181818;stroke-width:0.5;" x1="1685" x2="1930.877" y1="1096.2969" y2="1096.2969"/><line style="stroke:#181818;stroke-width:0.5;" x1="1685" x2="1930.877" y1="1104.2969" y2="1104.2969"/></g><!--class yg_cranes--><g class="entity" data-entity="yg_cranes" data-source-line="17" data-uid="ent0012" id="entity_yg_cranes"><rect fill="#F1F1F1" height="50" rx="2.5" ry="2.5" style="stroke:#181818;stroke-width:0.5;" width="224.5078" x="1069.5" y="1062.2969"/><ellipse cx="1085.5" cy="1079.2969" fill="#ADD1B2" rx="12" ry="12" style="stroke:#181818;stroke-width:1;"/><path d="M1088.5625,1086.375 Q1087.875,1086.7344 1087.125,1086.9063 Q1086.375,1087.0781 1085.5469,1087.0781 Q1082.5938,1087.0781 1081.0313,1085.1406 Q1079.4844,1083.1875 1079.4844,1079.5156 Q1079.4844,1075.8438 1081.0313,1073.9063 Q1082.5938,1071.9531 1085.5469,1071.9531 Q1086.375,1071.9531 1087.125,1072.125 Q1087.8906,1072.2969 1088.5625,1072.6563 L1088.5625,1075.8594 Q1087.8125,1075.1719 1087.1094,1074.8594 Q1086.4219,1074.5469 1085.6719,1074.5469 Q1084.0938,1074.5469 1083.2813,1075.7969 Q1082.4844,1077.0469 1082.4844,1079.5156 Q1082.4844,1081.9844 1083.2813,1083.2344 Q1084.0938,1084.4844 1085.6719,1084.4844 Q1086.4219,1084.4844 1087.1094,1084.1719 Q1087.8125,1083.8594 1088.5625,1083.1719 L1088.5625,1086.375 Z " fill="#000000"/><text fill="#000000" font-family="sans-serif" font-size="20" lengthAdjust="spacing" textLength="190.5078" x="1100.5" y="1086.2207">Yard gantry cranes</text><line style="stroke:#181818;stroke-width:0.5;" x1="1070.5" x2="1293.0078" y1="1096.2969" y2="1096.2969"/><line style="stroke:#181818;stroke-width:0.5;" x1="1070.5" x2="1293.0078" y1="1104.2969" y2="1104.2969"/></g><!--class trucks--><g class="entity" data-entity="trucks" data-source-line="18" data-uid="ent0013" id="entity_trucks"><rect fill="#F1F1F1" height="50" rx="2.5" ry="2.5" style="stroke:#181818;stroke-width:0.5;" width="318.7461" x="1329.5" y="1062.2969"/><ellipse cx="1345.5" cy="1079.2969" fill="#ADD1B2" rx="12" ry="12" style="stroke:#181818;stroke-width:1;"/><path d="M1348.5625,1086.375 Q1347.875,1086.7344 1347.125,1086.9063 Q1346.375,1087.0781 1345.5469,1087.0781 Q1342.5938,1087.0781 1341.0313,1085.1406 Q1339.4844,1083.1875 1339.4844,1079.5156 Q1339.4844,1075.8438 1341.0313,1073.9063 Q1342.5938,1071.9531 1345.5469,1071.9531 Q1346.375,1071.9531 1347.125,1072.125 Q1347.8906,1072.2969 1348.5625,1072.6563 L1348.5625,1075.8594 Q1347.8125,1075.1719 1347.1094,1074.8594 Q1346.4219,1074.5469 1345.6719,1074.5469 Q1344.0938,1074.5469 1343.2813,1075.7969 Q1342.4844,1077.0469 1342.4844,1079.5156 Q1342.4844,1081.9844 1343.2813,1083.2344 Q1344.0938,1084.4844 1345.6719,1084.4844 Q1346.4219,1084.4844 1347.1094,1084.1719 Q1347.8125,1083.8594 1348.5625,1083.1719 L1348.5625,1086.375 Z " fill="#000000"/><text fill="#000000" font-family="sans-serif" font-size="20" lengthAdjust="spacing" textLength="284.7461" x="1360.5" y="1086.2207">Trucks and terminal tractors</text><line style="stroke:#181818;stroke-width:0.5;" x1="1330.5" x2="1647.2461" y1="1096.2969" y2="1096.2969"/><line style="stroke:#181818;stroke-width:0.5;" x1="1330.5" x2="1647.2461" y1="1104.2969" y2="1104.2969"/></g><!--class yards--><g class="entity" data-entity="yards" data-source-line="19" data-uid="ent0014" id="entity_yards"><rect fill="#F1F1F1" height="50" rx="2.5" ry="2.5" style="stroke:#181818;stroke-width:0.5;" width="193.5215" x="7" y="417.2969"/><ellipse cx="23" cy="434.2969" fill="#ADD1B2" rx="12" ry="12" style="stroke:#181818;stroke-width:1;"/><path d="M26.0625,441.375 Q25.375,441.7344 24.625,441.9063 Q23.875,442.0781 23.0469,442.0781 Q20.0938,442.0781 18.5313,440.1406 Q16.9844,438.1875 16.9844,434.5156 Q16.9844,430.8438 18.5313,428.9063 Q20.0938,426.9531 23.0469,426.9531 Q23.875,426.9531 24.625,427.125 Q25.3906,427.2969 26.0625,427.6563 L26.0625,430.8594 Q25.3125,430.1719 24.6094,429.8594 Q23.9219,429.5469 23.1719,429.5469 Q21.5938,429.5469 20.7813,430.7969 Q19.9844,432.0469 19.9844,434.5156 Q19.9844,436.9844 20.7813,438.2344 Q21.5938,439.4844 23.1719,439.4844 Q23.9219,439.4844 24.6094,439.1719 Q25.3125,438.8594 26.0625,438.1719 L26.0625,441.375 Z " fill="#000000"/><text fill="#000000" font-family="sans-serif" font-size="20" lengthAdjust="spacing" textLength="159.5215" x="38" y="441.2207">Container yards</text><line style="stroke:#181818;stroke-width:0.5;" x1="8" x2="199.5215" y1="451.2969" y2="451.2969"/><line style="stroke:#181818;stroke-width:0.5;" x1="8" x2="199.5215" y1="459.2969" y2="459.2969"/></g><!--class warehouse--><g class="entity" data-entity="warehouse" data-source-line="20" data-uid="ent0015" id="entity_warehouse"><rect fill="#F1F1F1" height="50" rx="2.5" ry="2.5" style="stroke:#181818;stroke-width:0.5;" width="157.291" x="247.5" y="577.2969"/><ellipse cx="263.5" cy="594.2969" fill="#ADD1B2" rx="12" ry="12" style="stroke:#181818;stroke-width:1;"/><path d="M266.5625,601.375 Q265.875,601.7344 265.125,601.9063 Q264.375,602.0781 263.5469,602.0781 Q260.5938,602.0781 259.0313,600.1406 Q257.4844,598.1875 257.4844,594.5156 Q257.4844,590.8438 259.0313,588.9063 Q260.5938,586.9531 263.5469,586.9531 Q264.375,586.9531 265.125,587.125 Q265.8906,587.2969 266.5625,587.6563 L266.5625,590.8594 Q265.8125,590.1719 265.1094,589.8594 Q264.4219,589.5469 263.6719,589.5469 Q262.0938,589.5469 261.2813,590.7969 Q260.4844,592.0469 260.4844,594.5156 Q260.4844,596.9844 261.2813,598.2344 Q262.0938,599.4844 263.6719,599.4844 Q264.4219,599.4844 265.1094,599.1719 Q265.8125,598.8594 266.5625,598.1719 L266.5625,601.375 Z " fill="#000000"/><text fill="#000000" font-family="sans-serif" font-size="20" lengthAdjust="spacing" textLength="123.291" x="278.5" y="601.2207">Warehouses</text><line style="stroke:#181818;stroke-width:0.5;" x1="248.5" x2="403.791" y1="611.2969" y2="611.2969"/><line style="stroke:#181818;stroke-width:0.5;" x1="248.5" x2="403.791" y1="619.2969" y2="619.2969"/></g><!--class vessels--><g class="entity" data-entity="vessels" data-source-line="22" data-uid="ent0016" id="entity_vessels"><rect fill="#F1F1F1" height="50" rx="2.5" ry="2.5" style="stroke:#181818;stroke-width:0.5;" width="109.1074" x="741.5" y="927.2969"/><ellipse cx="757.5" cy="944.2969" fill="#ADD1B2" rx="12" ry="12" style="stroke:#181818;stroke-width:1;"/><path d="M760.5625,951.375 Q759.875,951.7344 759.125,951.9063 Q758.375,952.0781 757.5469,952.0781 Q754.5938,952.0781 753.0313,950.1406 Q751.4844,948.1875 751.4844,944.5156 Q751.4844,940.8438 753.0313,938.9063 Q754.5938,936.9531 757.5469,936.9531 Q758.375,936.9531 759.125,937.125 Q759.8906,937.2969 760.5625,937.6563 L760.5625,940.8594 Q759.8125,940.1719 759.1094,939.8594 Q758.4219,939.5469 757.6719,939.5469 Q756.0938,939.5469 755.2813,940.7969 Q754.4844,942.0469 754.4844,944.5156 Q754.4844,946.9844 755.2813,948.2344 Q756.0938,949.4844 757.6719,949.4844 Q758.4219,949.4844 759.1094,949.1719 Q759.8125,948.8594 760.5625,948.1719 L760.5625,951.375 Z " fill="#000000"/><text fill="#000000" font-family="sans-serif" font-size="20" lengthAdjust="spacing" textLength="75.1074" x="772.5" y="951.2207">Vessels</text><line style="stroke:#181818;stroke-width:0.5;" x1="742.5" x2="849.6074" y1="961.2969" y2="961.2969"/><line style="stroke:#181818;stroke-width:0.5;" x1="742.5" x2="849.6074" y1="969.2969" y2="969.2969"/></g><!--class vessel_visit--><g class="entity" data-entity="vessel_visit" data-source-line="23" data-uid="ent0017" id="entity_vessel_visit"><rect fill="#F1F1F1" height="50" rx="2.5" ry="2.5" style="stroke:#181818;stroke-width:0.5;" width="146.2559" x="426" y="657.2969"/><ellipse cx="442" cy="674.2969" fill="#ADD1B2" rx="12" ry="12" style="stroke:#181818;stroke-width:1;"/><path d="M445.0625,681.375 Q444.375,681.7344 443.625,681.9063 Q442.875,682.0781 442.0469,682.0781 Q439.0938,682.0781 437.5313,680.1406 Q435.9844,678.1875 435.9844,674.5156 Q435.9844,670.8438 437.5313,668.9063 Q439.0938,666.9531 442.0469,666.9531 Q442.875,666.9531 443.625,667.125 Q444.3906,667.2969 445.0625,667.6563 L445.0625,670.8594 Q444.3125,670.1719 443.6094,669.8594 Q442.9219,669.5469 442.1719,669.5469 Q440.5938,669.5469 439.7813,670.7969 Q438.9844,672.0469 438.9844,674.5156 Q438.9844,676.9844 439.7813,678.2344 Q440.5938,679.4844 442.1719,679.4844 Q442.9219,679.4844 443.6094,679.1719 Q444.3125,678.8594 445.0625,678.1719 L445.0625,681.375 Z " fill="#000000"/><text fill="#000000" font-family="sans-serif" font-size="20" lengthAdjust="spacing" textLength="112.2559" x="457" y="681.2207">Vessel visit</text><line style="stroke:#181818;stroke-width:0.5;" x1="427" x2="571.2559" y1="691.2969" y2="691.2969"/><line style="stroke:#181818;stroke-width:0.5;" x1="427" x2="571.2559" y1="699.2969" y2="699.2969"/></g><!--class vessel_cargo--><g class="entity" data-entity="vessel_cargo" data-source-line="24" data-uid="ent0018" id="entity_vessel_cargo"><rect fill="#F1F1F1" height="50" rx="2.5" ry="2.5" style="stroke:#181818;stroke-width:0.5;" width="161.4512" x="909.5" y="1197.2969"/><ellipse cx="925.5" cy="1214.2969" fill="#ADD1B2" rx="12" ry="12" style="stroke:#181818;stroke-width:1;"/><path d="M928.5625,1221.375 Q927.875,1221.7344 927.125,1221.9063 Q926.375,1222.0781 925.5469,1222.0781 Q922.5938,1222.0781 921.0313,1220.1406 Q919.4844,1218.1875 919.4844,1214.5156 Q919.4844,1210.8438 921.0313,1208.9063 Q922.5938,1206.9531 925.5469,1206.9531 Q926.375,1206.9531 927.125,1207.125 Q927.8906,1207.2969 928.5625,1207.6563 L928.5625,1210.8594 Q927.8125,1210.1719 927.1094,1209.8594 Q926.4219,1209.5469 925.6719,1209.5469 Q924.0938,1209.5469 923.2813,1210.7969 Q922.4844,1212.0469 922.4844,1214.5156 Q922.4844,1216.9844 923.2813,1218.2344 Q924.0938,1219.4844 925.6719,1219.4844 Q926.4219,1219.4844 927.1094,1219.1719 Q927.8125,1218.8594 928.5625,1218.1719 L928.5625,1221.375 Z " fill="#000000"/><text fill="#000000" font-family="sans-serif" font-size="20" lengthAdjust="spacing" textLength="127.4512" x="940.5" y="1221.2207">Vessel cargo</text><line style="stroke:#181818;stroke-width:0.5;" x1="910.5" x2="1069.9512" y1="1231.2969" y2="1231.2969"/><line style="stroke:#181818;stroke-width:0.5;" x1="910.5" x2="1069.9512" y1="1239.2969" y2="1239.2969"/></g><!--class cm--><g class="entity" data-entity="cm" data-source-line="25" data-uid="ent0019" id="entity_cm"><rect fill="#F1F1F1" height="50" rx="2.5" ry="2.5" style="stroke:#181818;stroke-width:0.5;" width="187.3105" x="1107.5" y="657.2969"/><ellipse cx="1123.5" cy="674.2969" fill="#ADD1B2" rx="12" ry="12" style="stroke:#181818;stroke-width:1;"/><path d="M1126.5625,681.375 Q1125.875,681.7344 1125.125,681.9063 Q1124.375,682.0781 1123.5469,682.0781 Q1120.5938,682.0781 1119.0313,680.1406 Q1117.4844,678.1875 1117.4844,674.5156 Q1117.4844,670.8438 1119.0313,668.9063 Q1120.5938,666.9531 1123.5469,666.9531 Q1124.375,666.9531 1125.125,667.125 Q1125.8906,667.2969 1126.5625,667.6563 L1126.5625,670.8594 Q1125.8125,670.1719 1125.1094,669.8594 Q1124.4219,669.5469 1123.6719,669.5469 Q1122.0938,669.5469 1121.2813,670.7969 Q1120.4844,672.0469 1120.4844,674.5156 Q1120.4844,676.9844 1121.2813,678.2344 Q1122.0938,679.4844 1123.6719,679.4844 Q1124.4219,679.4844 1125.1094,679.1719 Q1125.8125,678.8594 1126.5625,678.1719 L1126.5625,681.375 Z " fill="#000000"/><text fill="#000000" font-family="sans-serif" font-size="20" lengthAdjust="spacing" textLength="153.3105" x="1138.5" y="681.2207">Cargo manifest</text><line style="stroke:#181818;stroke-width:0.5;" x1="1108.5" x2="1293.8105" y1="691.2969" y2="691.2969"/><line style="stroke:#181818;stroke-width:0.5;" x1="1108.5" x2="1293.8105" y1="699.2969" y2="699.2969"/></g><!--class tasks--><g class="entity" data-entity="tasks" data-source-line="27" data-uid="ent0020" id="entity_tasks"><rect fill="#F1F1F1" height="50" rx="2.5" ry="2.5" style="stroke:#181818;stroke-width:0.5;" width="90.8945" x="1357.5" y="792.2969"/><ellipse cx="1373.5" cy="809.2969" fill="#ADD1B2" rx="12" ry="12" style="stroke:#181818;stroke-width:1;"/><path d="M1376.5625,816.375 Q1375.875,816.7344 1375.125,816.9063 Q1374.375,817.0781 1373.5469,817.0781 Q1370.5938,817.0781 1369.0313,815.1406 Q1367.4844,813.1875 1367.4844,809.5156 Q1367.4844,805.8438 1369.0313,803.9063 Q1370.5938,801.9531 1373.5469,801.9531 Q1374.375,801.9531 1375.125,802.125 Q1375.8906,802.2969 1376.5625,802.6563 L1376.5625,805.8594 Q1375.8125,805.1719 1375.1094,804.8594 Q1374.4219,804.5469 1373.6719,804.5469 Q1372.0938,804.5469 1371.2813,805.7969 Q1370.4844,807.0469 1370.4844,809.5156 Q1370.4844,811.9844 1371.2813,813.2344 Q1372.0938,814.4844 1373.6719,814.4844 Q1374.4219,814.4844 1375.1094,814.1719 Q1375.8125,813.8594 1376.5625,813.1719 L1376.5625,816.375 Z " fill="#000000"/><text fill="#000000" font-family="sans-serif" font-size="20" lengthAdjust="spacing" textLength="56.8945" x="1388.5" y="816.2207">Tasks</text><line style="stroke:#181818;stroke-width:0.5;" x1="1358.5" x2="1447.3945" y1="826.2969" y2="826.2969"/><line style="stroke:#181818;stroke-width:0.5;" x1="1358.5" x2="1447.3945" y1="834.2969" y2="834.2969"/></g><!--link user to PA--><g class="link" data-entity-1="user" data-entity-2="PA" data-source-line="29" data-uid="lnk21" id="link_user_PA"><path codeLine="29" d="M1167.24,89.1369 C1063.43,113.3669 900.9993,151.2673 790.6693,177.0073" fill="none" id="user-to-PA" style="stroke:#181818;stroke-width:1;"/><polygon fill="none" points="773.14,181.0969,792.0325,182.8504,789.3061,171.1642,773.14,181.0969" style="stroke:#181818;stroke-width:1;"/></g><!--link user to SAOR--><g class="link" data-entity-1="user" data-entity-2="SAOR" data-source-line="30" data-uid="lnk22" id="link_user_SAOR"><path codeLine="30" d="M1235.47,94.4269 C1230.93,103.6469 1225.95,114.3369 1222,124.2969 C1176.85,238.2469 1183.27,272.9969 1139,387.2969 C1123.82,426.4969 1110.685,454.3648 1097.425,480.9048" fill="none" id="user-to-SAOR" style="stroke:#181818;stroke-width:1;"/><polygon fill="none" points="1089.38,497.0069,1102.7924,483.5864,1092.0576,478.2231,1089.38,497.0069" style="stroke:#181818;stroke-width:1;"/></g><!--link user to LO--><g class="link" data-entity-1="user" data-entity-2="LO" data-source-line="31" data-uid="lnk23" id="link_user_LO"><path codeLine="31" d="M1248,94.3269 C1248,120.9569 1248,165.1969 1248,203.2969 C1248,203.2969 1248,203.2969 1248,523.2969 C1248,589.7469 1300.6781,625.9536 1356.6281,650.1436" fill="none" id="user-to-LO" style="stroke:#181818;stroke-width:1;"/><polygon fill="none" points="1373.15,657.2869,1359.0092,644.6363,1354.247,655.6509,1373.15,657.2869" style="stroke:#181818;stroke-width:1;"/></g><!--link user to AD--><g class="link" data-entity-1="user" data-entity-2="AD" data-source-line="32" data-uid="lnk24" id="link_user_AD"><path codeLine="32" d="M1328.83,80.4069 C1356.04,88.0169 1383.82,101.2669 1401,124.2969 C1412.58,139.8169 1415.0464,144.3712 1412.7364,161.3512" fill="none" id="user-to-AD" style="stroke:#181818;stroke-width:1;"/><polygon fill="none" points="1410.31,179.1869,1418.6816,162.16,1406.7912,160.5424,1410.31,179.1869" style="stroke:#181818;stroke-width:1;"/></g><!--link AD to user--><g class="link" data-entity-1="AD" data-entity-2="user" data-source-line="34" data-uid="lnk25" id="link_AD_user"><path codeLine="34" d="M1344.29,179.2269 C1328.47,171.1969 1312.18,161.1969 1299,149.2969 C1281.91,133.8769 1270.9591,116.7944 1262.0691,99.7844" fill="none" id="AD-to-user" style="stroke:#181818;stroke-width:1;"/><polygon fill="#181818" points="1259.29,94.4669,1259.9137,104.296,1261.6059,98.8982,1267.0037,100.5905,1259.29,94.4669" style="stroke:#181818;stroke-width:1;"/><text fill="#000000" font-family="sans-serif" font-size="20" lengthAdjust="spacing" textLength="92.0898" x="1300" y="143.8613">manages</text></g><!--link PA to SAO--><g class="link" data-entity-1="PA" data-entity-2="SAO" data-source-line="36" data-uid="lnk26" id="link_PA_SAO"><path codeLine="36" d="M733.03,229.3169 C786.06,252.4769 861.4511,285.3863 921.9711,311.8063" fill="none" id="PA-to-SAO" style="stroke:#181818;stroke-width:1;"/><polygon fill="#181818" points="927.47,314.2069,920.8221,306.9402,922.8876,312.2064,917.6214,314.272,927.47,314.2069" style="stroke:#181818;stroke-width:1;"/><text fill="#000000" font-family="sans-serif" font-size="20" lengthAdjust="spacing" textLength="87.9883" x="855" y="278.8613">registers</text></g><!--link PA to SAOR--><g class="link" data-entity-1="PA" data-entity-2="SAOR" data-source-line="37" data-uid="lnk27" id="link_PA_SAOR"><path codeLine="37" d="M690.56,229.6369 C713.57,273.5569 762.58,363.6869 789,387.2969 C848.31,440.3069 926.5524,474.1767 988.5024,495.3467" fill="none" id="PA-to-SAOR" style="stroke:#181818;stroke-width:1;"/><polygon fill="#181818" points="994.18,497.2869,986.957,490.5915,989.4486,495.67,984.3701,498.1617,994.18,497.2869" style="stroke:#181818;stroke-width:1;"/><text fill="#000000" font-family="sans-serif" font-size="20" lengthAdjust="spacing" textLength="87.9883" x="790" y="357.8613">registers</text></g><!--link PA to vessel_visit--><g class="link" data-entity-1="PA" data-entity-2="vessel_visit" data-source-line="38" data-uid="lnk28" id="link_PA_vessel_visit"><path codeLine="38" d="M641.01,229.3569 C591.56,264.0069 506.16,333.1269 472,417.2969 C438.3,500.3269 469.2871,603.9674 487.1371,651.6674" fill="none" id="PA-to-vessel_visit" style="stroke:#181818;stroke-width:1;"/><polygon fill="#181818" points="489.24,657.2869,489.832,647.4558,487.4876,652.604,482.3394,650.2596,489.24,657.2869" style="stroke:#181818;stroke-width:1;"/><text fill="#000000" font-family="sans-serif" font-size="20" lengthAdjust="spacing" textLength="178.3301" x="473" y="449.3613">accepts or rejects</text></g><!--link PA to warehouse--><g class="link" data-entity-1="PA" data-entity-2="warehouse" data-source-line="39" data-uid="lnk29" id="link_PA_warehouse"><path codeLine="39" d="M582.82,221.3369 C540.93,230.0069 491.65,242.4669 449,259.2969 C403.26,277.3469 379.62,272.9569 353,314.2969 C299.21,397.8169 311.6183,518.4477 320.3483,571.0877" fill="none" id="PA-to-warehouse" style="stroke:#181818;stroke-width:1;"/><polygon fill="#181818" points="321.33,577.0069,323.8036,567.4737,320.512,572.0742,315.9114,568.7826,321.33,577.0069" style="stroke:#181818;stroke-width:1;"/><text fill="#000000" font-family="sans-serif" font-size="20" lengthAdjust="spacing" textLength="94.2773" x="354" y="357.8613">regulates</text></g><!--link PA to docks--><g class="link" data-entity-1="PA" data-entity-2="docks" data-source-line="40" data-uid="lnk30" id="link_PA_docks"><path codeLine="40" d="M676.54,229.5469 C672.19,308.7169 661.87,558.4669 700,627.2969 C741.28,701.8269 807.8,667.7369 857,737.2969 C868.43,753.4569 872.9864,769.4315 875.6364,786.0715" fill="none" id="PA-to-docks" style="stroke:#181818;stroke-width:1;"/><polygon fill="#181818" points="876.58,791.9969,879.1148,782.4798,875.7936,787.0591,871.2143,783.738,876.58,791.9969" style="stroke:#181818;stroke-width:1;"/><text fill="#000000" font-family="sans-serif" font-size="20" lengthAdjust="spacing" textLength="244.8633" x="681" y="529.3613">ensure proper allocation</text></g><!--link PA to yards--><g class="link" data-entity-1="PA" data-entity-2="yards" data-source-line="41" data-uid="lnk31" id="link_PA_yards"><path codeLine="41" d="M582.92,207.9469 C431.88,213.1169 150.85,226.9869 119,259.2969 C77.71,301.1769 87.0324,372.0802 96.0424,411.1702" fill="none" id="PA-to-yards" style="stroke:#181818;stroke-width:1;"/><polygon fill="#181818" points="97.39,417.0169,99.2664,407.3484,96.267,412.1446,91.4708,409.1452,97.39,417.0169" style="stroke:#181818;stroke-width:1;"/><text fill="#000000" font-family="sans-serif" font-size="20" lengthAdjust="spacing" textLength="179.4629" x="120" y="278.8613">monitors capacity</text></g><!--link SAO to SAOR--><g class="link" data-entity-1="SAO" data-entity-2="SAOR" data-source-line="43" data-uid="lnk32" id="link_SAO_SAOR"><path codeLine="43" d="M1023.26,387.3269 C1036.5,420.3369 1053.616,463.0183 1065.126,491.7083" fill="none" id="SAO-to-SAOR" style="stroke:#181818;stroke-width:1;"/><polygon fill="#181818" points="1067.36,497.2769,1067.7213,487.4346,1065.4983,492.6364,1060.2966,490.4134,1067.36,497.2769" style="stroke:#181818;stroke-width:1;"/><text fill="#000000" font-family="sans-serif" font-size="20" lengthAdjust="spacing" textLength="35.3516" x="1057" y="449.3613">has</text></g><!--link SAOR to vessels--><g class="link" data-entity-1="SAOR" data-entity-2="vessels" data-source-line="45" data-uid="lnk33" id="link_SAOR_vessels"><path codeLine="45" d="M1041.83,547.5569 C983.65,589.8069 868.39,682.9369 814,792.2969 C792.23,836.0769 791.5255,888.8174 793.4455,921.2574" fill="none" id="SAOR-to-vessels" style="stroke:#181818;stroke-width:1;"/><polygon fill="#181818" points="793.8,927.2469,797.2613,918.0263,793.5046,922.2556,789.2752,918.4989,793.8,927.2469" style="stroke:#181818;stroke-width:1;"/><text fill="#000000" font-family="sans-serif" font-size="20" lengthAdjust="spacing" textLength="96.9922" x="848" y="756.8613">represent</text></g><!--link SAOR to vessel_visit--><g class="link" data-entity-1="SAOR" data-entity-2="vessel_visit" data-source-line="46" data-uid="lnk34" id="link_SAOR_vessel_visit"><path codeLine="46" d="M959.11,542.9569 C949.94,544.4369 940.82,545.9069 932,547.2969 C843.65,561.2669 818.86,552.2369 733,577.2969 C664.29,597.3469 594.7748,630.5516 548.6948,654.4816" fill="none" id="SAOR-to-vessel_visit" style="stroke:#181818;stroke-width:1;"/><polygon fill="#181818" points="543.37,657.2469,553.2007,656.6489,547.8073,654.9425,549.5137,649.5491,543.37,657.2469" style="stroke:#181818;stroke-width:1;"/><text fill="#000000" font-family="sans-serif" font-size="20" lengthAdjust="spacing" textLength="79.0918" x="734" y="609.3613">submits</text></g><!--link SAOR to cm--><g class="link" data-entity-1="SAOR" data-entity-2="cm" data-source-line="47" data-uid="lnk35" id="link_SAOR_cm"><path codeLine="47" d="M1089.2,547.2969 C1100.94,569.2569 1119.96,602.0569 1141,627.2969 C1149.79,637.8469 1156.1379,644.282 1166.1779,653.082" fill="none" id="SAOR-to-cm" style="stroke:#181818;stroke-width:1;"/><polygon fill="#181818" points="1170.69,657.0369,1166.5584,648.0965,1166.9299,653.7412,1161.2853,654.1127,1170.69,657.0369" style="stroke:#181818;stroke-width:1;"/><text fill="#000000" font-family="sans-serif" font-size="20" lengthAdjust="spacing" textLength="79.0918" x="1142" y="609.3613">submits</text></g><!--link SAOR to vessel_cargo--><g class="link" data-entity-1="SAOR" data-entity-2="vessel_cargo" data-source-line="48" data-uid="lnk36" id="link_SAOR_vessel_cargo"><path codeLine="48" d="M1074.1,547.4169 C1068.51,590.9769 1054.73,685.3569 1032,762.2969 C1017.04,812.9569 997.19,820.4669 987,872.2969 C963.38,992.3969 978.1186,1134.3093 985.7086,1191.3493" fill="none" id="SAOR-to-vessel_cargo" style="stroke:#181818;stroke-width:1;"/><polygon fill="#181818" points="986.5,1197.2969,989.2779,1187.8479,985.8405,1192.3406,981.3478,1188.9031,986.5,1197.2969" style="stroke:#181818;stroke-width:1;"/><text fill="#000000" font-family="sans-serif" font-size="20" lengthAdjust="spacing" textLength="237.1387" x="988" y="891.8613">provides as information</text></g><!--link vessels to vessel_cargo--><g class="link" data-entity-1="vessels" data-entity-2="vessel_cargo" data-source-line="51" data-uid="lnk37" id="link_vessels_vessel_cargo"><path codeLine="51" d="M813.56,977.5569 C850.49,1028.5769 932.3213,1141.6269 969.1013,1192.4269" fill="none" id="vessels-to-vessel_cargo" style="stroke:#181818;stroke-width:1;"/><polygon fill="#181818" points="972.62,1197.2869,970.582,1187.6512,969.6878,1193.2369,964.102,1192.3428,972.62,1197.2869" style="stroke:#181818;stroke-width:1;"/><text fill="#000000" font-family="sans-serif" font-size="20" lengthAdjust="spacing" textLength="35.3516" x="911" y="1094.3613">has</text></g><!--link vessel_visit to vessels--><g class="link" data-entity-1="vessel_visit" data-entity-2="vessels" data-source-line="52" data-uid="lnk38" id="link_vessel_visit_vessels"><path codeLine="52" d="M496.31,707.4869 C493.9,741.4169 494.66,803.3569 526,842.2969 C579.32,908.5569 673.2591,933.8358 735.4491,944.0358" fill="none" id="vessel_visit-to-vessels" style="stroke:#181818;stroke-width:1;"/><polygon fill="#181818" points="741.37,945.0069,733.1361,939.603,736.4359,944.1976,731.8413,947.4975,741.37,945.0069" style="stroke:#181818;stroke-width:1;"/><text fill="#000000" font-family="sans-serif" font-size="20" lengthAdjust="spacing" textLength="213.0273" x="527" y="824.3613">notify the berthing of</text></g><!--link cranes to vessel_cargo--><g class="link" data-entity-1="cranes" data-entity-2="vessel_cargo" data-source-line="53" data-uid="lnk39" id="link_cranes_vessel_cargo"><path codeLine="53" d="M1683.71,1110.4969 C1591.66,1126.7469 1463.12,1149.0569 1350,1167.2969 C1254.07,1182.7669 1149.4576,1198.2641 1076.4376,1208.8741" fill="none" id="cranes-to-vessel_cargo" style="stroke:#181818;stroke-width:1;"/><polygon fill="#181818" points="1070.5,1209.7369,1079.9816,1212.4012,1075.448,1209.0179,1078.8313,1204.4843,1070.5,1209.7369" style="stroke:#181818;stroke-width:1;"/><text fill="#000000" font-family="sans-serif" font-size="20" lengthAdjust="spacing" textLength="144.0137" x="1489" y="1161.8613">unload or load</text></g><!--link docks to vessels--><g class="link" data-entity-1="docks" data-entity-2="vessels" data-source-line="54" data-uid="lnk40" id="link_docks_vessels"><path codeLine="54" d="M847.95,842.5269 C838.57,851.1069 828.94,861.3569 822,872.2969 C811.33,889.1269 806.0106,904.9326 802.0806,921.3026" fill="none" id="docks-to-vessels" style="stroke:#181818;stroke-width:1;"/><polygon fill="#181818" points="800.68,927.1369,806.6704,919.3193,801.8472,922.275,798.8915,917.4518,800.68,927.1369" style="stroke:#181818;stroke-width:1;"/><text fill="#000000" font-family="sans-serif" font-size="20" lengthAdjust="spacing" textLength="123.3008" x="823" y="891.8613">accomodate</text></g><!--link trucks to vessel_cargo--><g class="link" data-entity-1="trucks" data-entity-2="vessel_cargo" data-source-line="55" data-uid="lnk41" id="link_trucks_vessel_cargo"><path codeLine="55" d="M1398.92,1112.3069 C1305.44,1137.2169 1166.3775,1174.2811 1076.5175,1198.2411" fill="none" id="trucks-to-vessel_cargo" style="stroke:#181818;stroke-width:1;"/><polygon fill="#181818" points="1070.72,1199.7869,1080.4467,1201.3331,1075.5512,1198.4987,1078.3856,1193.6032,1070.72,1199.7869" style="stroke:#181818;stroke-width:1;"/><text fill="#000000" font-family="sans-serif" font-size="20" lengthAdjust="spacing" textLength="55.8594" x="1286" y="1161.8613">move</text></g><!--link yg_cranes to vessel_cargo--><g class="link" data-entity-1="yg_cranes" data-entity-2="vessel_cargo" data-source-line="56" data-uid="lnk42" id="link_yg_cranes_vessel_cargo"><path codeLine="56" d="M1147.23,1112.3869 C1112.54,1136.4069 1064.4823,1169.7004 1029.7623,1193.7504" fill="none" id="yg_cranes-to-vessel_cargo" style="stroke:#181818;stroke-width:1;"/><polygon fill="#181818" points="1024.83,1197.1669,1034.5061,1195.3303,1028.9402,1194.3198,1029.9507,1188.7539,1024.83,1197.1669" style="stroke:#181818;stroke-width:1;"/><text fill="#000000" font-family="sans-serif" font-size="20" lengthAdjust="spacing" textLength="55.8594" x="1105" y="1161.8613">move</text></g><!--link warehouse to vessel_cargo--><g class="link" data-entity-1="warehouse" data-entity-2="vessel_cargo" data-source-line="57" data-uid="lnk43" id="link_warehouse_vessel_cargo"><path codeLine="57" d="M326,627.4969 C326,656.3669 326,706.1069 326,748.7969 C326,748.7969 326,748.7969 326,1088.2969 C326,1206.0069 726.2901,1220.9157 903.2401,1221.8357" fill="none" id="warehouse-to-vessel_cargo" style="stroke:#181818;stroke-width:1;"/><polygon fill="#181818" points="909.24,1221.8669,900.2609,1217.8201,904.2401,1221.8409,900.2193,1225.82,909.24,1221.8669" style="stroke:#181818;stroke-width:1;"/><text fill="#000000" font-family="sans-serif" font-size="20" lengthAdjust="spacing" textLength="194.1992" x="327" y="891.8613">store for inspection</text></g><!--link yards to vessel_cargo--><g class="link" data-entity-1="yards" data-entity-2="vessel_cargo" data-source-line="58" data-uid="lnk44" id="link_yards_vessel_cargo"><path codeLine="58" d="M102.52,467.3769 C100.74,498.3469 98,553.8069 98,601.2969 C98,601.2969 98,601.2969 98,1088.2969 C98,1169.9069 683.6974,1206.5099 903.2774,1217.3899" fill="none" id="yards-to-vessel_cargo" style="stroke:#181818;stroke-width:1;"/><polygon fill="#181818" points="909.27,1217.6869,900.479,1213.2464,904.2761,1217.4394,900.0831,1221.2366,909.27,1217.6869" style="stroke:#181818;stroke-width:1;"/><text fill="#000000" font-family="sans-serif" font-size="20" lengthAdjust="spacing" textLength="173.5938" x="99" y="824.3613">store temporarily</text></g><!--link res to cranes--><g class="link" data-entity-1="res" data-entity-2="cranes" data-source-line="60" data-uid="lnk45" id="link_res_cranes"><path codeLine="60" d="M1440.79,977.3769 C1475.67,994.5669 1524.89,1017.2269 1570,1032.2969 C1606.37,1044.4469 1629.2008,1050.8426 1666.2308,1059.0926" fill="none" id="res-to-cranes" style="stroke:#181818;stroke-width:1;"/><polygon fill="none" points="1683.8,1063.0069,1667.5355,1053.2362,1664.926,1064.949,1683.8,1063.0069" style="stroke:#181818;stroke-width:1;"/></g><!--link res to yg_cranes--><g class="link" data-entity-1="res" data-entity-2="yg_cranes" data-source-line="61" data-uid="lnk46" id="link_res_yg_cranes"><path codeLine="61" d="M1362.54,977.6369 C1340.96,993.8969 1311.38,1015.3269 1284,1032.2969 C1267.05,1042.7969 1263.837,1044.9869 1246.717,1053.8969" fill="none" id="res-to-yg_cranes" style="stroke:#181818;stroke-width:1;"/><polygon fill="none" points="1230.75,1062.2069,1249.487,1059.2193,1243.947,1048.5746,1230.75,1062.2069" style="stroke:#181818;stroke-width:1;"/></g><!--link res to trucks--><g class="link" data-entity-1="res" data-entity-2="trucks" data-source-line="62" data-uid="lnk47" id="link_res_trucks"><path codeLine="62" d="M1376.09,977.5469 C1366.33,993.9769 1358.22,1015.6269 1369,1032.2969 C1377.19,1044.9569 1373.4566,1045.8257 1386.6666,1053.2857" fill="none" id="res-to-trucks" style="stroke:#181818;stroke-width:1;"/><polygon fill="none" points="1402.34,1062.1369,1389.6169,1048.0612,1383.7162,1058.5102,1402.34,1062.1369" style="stroke:#181818;stroke-width:1;"/></g><!--link staff to cranes--><g class="link" data-entity-1="staff" data-entity-2="cranes" data-source-line="64" data-uid="lnk48" id="link_staff_cranes"><path codeLine="64" d="M1677.11,977.4869 C1686.38,994.2869 1700.37,1016.4269 1717,1032.2969 C1728.96,1043.7169 1738.5757,1050.7564 1752.7357,1059.0064" fill="none" id="staff-to-cranes" style="stroke:#181818;stroke-width:1;"/><polygon fill="#181818" points="1757.92,1062.0269,1752.1573,1054.04,1753.5998,1059.5098,1748.1299,1060.9523,1757.92,1062.0269" style="stroke:#181818;stroke-width:1;"/><text fill="#000000" font-family="sans-serif" font-size="20" lengthAdjust="spacing" textLength="88.2813" x="1718" y="1026.8613">operates</text></g><!--link staff to yg_cranes--><g class="link" data-entity-1="staff" data-entity-2="yg_cranes" data-source-line="65" data-uid="lnk49" id="link_staff_yg_cranes"><path codeLine="65" d="M1624.24,964.5169 C1546.23,986.0069 1380.0447,1031.7639 1275.0247,1060.6839" fill="none" id="staff-to-yg_cranes" style="stroke:#181818;stroke-width:1;"/><polygon fill="#181818" points="1269.24,1062.2769,1278.979,1063.7439,1274.0606,1060.9494,1276.855,1056.031,1269.24,1062.2769" style="stroke:#181818;stroke-width:1;"/><text fill="#000000" font-family="sans-serif" font-size="20" lengthAdjust="spacing" textLength="88.2813" x="1467" y="1026.8613">operates</text></g><!--link staff to trucks--><g class="link" data-entity-1="staff" data-entity-2="trucks" data-source-line="66" data-uid="lnk50" id="link_staff_trucks"><path codeLine="66" d="M1640.97,977.4369 C1624.08,993.8169 1600.56,1015.4569 1578,1032.2969 C1563.81,1042.8969 1552.5972,1050.2204 1537.7972,1059.0204" fill="none" id="staff-to-trucks" style="stroke:#181818;stroke-width:1;"/><polygon fill="#181818" points="1532.64,1062.0869,1542.4201,1060.9253,1536.9377,1059.5315,1538.3315,1054.0491,1532.64,1062.0869" style="stroke:#181818;stroke-width:1;"/><text fill="#000000" font-family="sans-serif" font-size="20" lengthAdjust="spacing" textLength="61.0352" x="1609" y="1026.8613">drives</text></g><!--link LO to tasks--><g class="link" data-entity-1="LO" data-entity-2="tasks" data-source-line="68" data-uid="lnk51" id="link_LO_tasks"><path codeLine="68" d="M1435.76,707.3869 C1428.55,731.3369 1419.2902,762.1518 1412.0502,786.1918" fill="none" id="LO-to-tasks" style="stroke:#181818;stroke-width:1;"/><polygon fill="#181818" points="1410.32,791.9369,1416.7454,784.4727,1411.7619,787.1493,1409.0853,782.1657,1410.32,791.9369" style="stroke:#181818;stroke-width:1;"/><text fill="#000000" font-family="sans-serif" font-size="20" lengthAdjust="spacing" textLength="100.0488" x="1427" y="756.8613">schedules</text></g><!--link LO to staff--><g class="link" data-entity-1="LO" data-entity-2="staff" data-source-line="69" data-uid="lnk52" id="link_LO_staff"><path codeLine="69" d="M1536.08,707.3969 C1553.68,714.9369 1570.96,724.7069 1585,737.2969 C1635.17,782.2769 1633.74,808.0369 1654,872.2969 C1659.62,890.1269 1661.8614,905.1385 1663.2114,921.0085" fill="none" id="LO-to-staff" style="stroke:#181818;stroke-width:1;"/><polygon fill="#181818" points="1663.72,926.9869,1666.9428,917.6802,1663.2962,922.0049,1658.9716,918.3583,1663.72,926.9869" style="stroke:#181818;stroke-width:1;"/><text fill="#000000" font-family="sans-serif" font-size="20" lengthAdjust="spacing" textLength="92.0898" x="1645" y="824.3613">manages</text></g><!--link LO to docks--><g class="link" data-entity-1="LO" data-entity-2="docks" data-source-line="70" data-uid="lnk53" id="link_LO_docks"><path codeLine="70" d="M1329.12,704.1769 C1246.93,719.2569 1150.16,737.0169 1149,737.2969 C1070.36,755.9769 986.2655,781.6912 932.6055,798.8312" fill="none" id="LO-to-docks" style="stroke:#181818;stroke-width:1;"/><polygon fill="#181818" points="926.89,800.6569,936.6804,801.7288,931.6529,799.1355,934.2462,794.1081,926.89,800.6569" style="stroke:#181818;stroke-width:1;"/><text fill="#000000" font-family="sans-serif" font-size="20" lengthAdjust="spacing" textLength="92.0898" x="1150" y="756.8613">manages</text></g><!--link LO to cranes--><g class="link" data-entity-1="LO" data-entity-2="cranes" data-source-line="71" data-uid="lnk54" id="link_LO_cranes"><path codeLine="71" d="M1556.73,697.0869 C1621.1,710.7769 1698.08,738.0369 1746,792.2969 C1815.24,870.6869 1814.4584,1000.6408 1810.6884,1055.9008" fill="none" id="LO-to-cranes" style="stroke:#181818;stroke-width:1;"/><polygon fill="#181818" points="1810.28,1061.8869,1814.8833,1053.18,1810.6203,1056.8985,1806.9019,1052.6355,1810.28,1061.8869" style="stroke:#181818;stroke-width:1;"/><text fill="#000000" font-family="sans-serif" font-size="20" lengthAdjust="spacing" textLength="92.0898" x="1798" y="891.8613">manages</text></g><!--link LO to yg_cranes--><g class="link" data-entity-1="LO" data-entity-2="yg_cranes" data-source-line="72" data-uid="lnk55" id="link_LO_yg_cranes"><path codeLine="72" d="M1334.94,707.4169 C1318.65,714.8569 1303.23,724.5869 1291,737.2969 C1267.56,761.6569 1209.1761,981.279 1189.7161,1056.319" fill="none" id="LO-to-yg_cranes" style="stroke:#181818;stroke-width:1;"/><polygon fill="#181818" points="1188.21,1062.1269,1194.3411,1054.4191,1189.4651,1057.287,1186.5973,1052.4109,1188.21,1062.1269" style="stroke:#181818;stroke-width:1;"/><text fill="#000000" font-family="sans-serif" font-size="20" lengthAdjust="spacing" textLength="92.0898" x="1242" y="891.8613">manages</text></g><!--link LO to trucks--><g class="link" data-entity-1="LO" data-entity-2="trucks" data-source-line="73" data-uid="lnk56" id="link_LO_trucks"><path codeLine="73" d="M1505.27,707.3269 C1517.52,715.0069 1528.8,724.8469 1536,737.2969 C1552.41,765.6769 1548.65,1001.6569 1537,1032.2969 C1532.81,1043.3169 1529.3204,1049.1373 1521.3904,1057.6473" fill="none" id="LO-to-trucks" style="stroke:#181818;stroke-width:1;"/><polygon fill="#181818" points="1517.3,1062.0369,1526.362,1058.1794,1520.7087,1058.3789,1520.5092,1052.7255,1517.3,1062.0369" style="stroke:#181818;stroke-width:1;"/><text fill="#000000" font-family="sans-serif" font-size="20" lengthAdjust="spacing" textLength="92.0898" x="1548" y="891.8613">manages</text></g><!--link cm to tasks--><g class="link" data-entity-1="cm" data-entity-2="tasks" data-source-line="75" data-uid="lnk57" id="link_cm_tasks"><path codeLine="75" d="M1237.58,707.3869 C1274.08,731.4069 1324.819,764.8169 1361.339,788.8669" fill="none" id="cm-to-tasks" style="stroke:#181818;stroke-width:1;"/><polygon fill="#181818" points="1366.35,792.1669,1361.0335,783.8763,1362.1742,789.4169,1356.6335,790.5576,1366.35,792.1669" style="stroke:#181818;stroke-width:1;"/><text fill="#000000" font-family="sans-serif" font-size="20" lengthAdjust="spacing" textLength="65.2148" x="1322" y="756.8613">inform</text></g><!--link tasks to res--><g class="link" data-entity-1="tasks" data-entity-2="res" data-source-line="76" data-uid="lnk58" id="link_tasks_res"><path codeLine="76" d="M1401.37,842.3869 C1399.75,866.3369 1397.6859,896.9106 1396.0559,920.9506" fill="none" id="tasks-to-res" style="stroke:#181818;stroke-width:1;"/><polygon fill="#181818" points="1395.65,926.9369,1400.2497,918.2281,1395.9882,921.9483,1392.268,917.6869,1395.65,926.9369" style="stroke:#181818;stroke-width:1;"/><text fill="#000000" font-family="sans-serif" font-size="20" lengthAdjust="spacing" textLength="89.4238" x="1401" y="891.8613">allocates</text></g><!--SRC=[VLJ1ZjGm3BtdAwoUu30IuiXXfSA8qw9PpImW9AHLI3rjs3QfadJGhFXuxAIJTAfPJatzNXpRpxP_rcQKJWwzLS_OG8D7EVNXipNXe5yGthyJGOSUuUFajK7lOMi7gGryiGtsGg0X-0pLuUm33l3Lewj0UfZeKD07wmBKK-Yiqq6ZZvI7kjpkz3XgqqBTakcdsRbM6lqYWxO6tXpgtTjuWmxbIhs3FOuEFLc8UC8BPPyvzxRLFcZbOJUYay6wzF9zSLCtWpP4YcW4wwqGgfUKQNK8ydYCHi-dRD-ZjvDJwKMA80DRAc9wek5JzaFfRHxjva3v8oWdpLo2TBpGVaZN02KUt7b9EhTFrxn7Dv5paAQ1W8xYbprG0Yhd5oBXGlz4Mf9YwE1C3ym- -NGXV9SEEqkA9UpFvJUdzOrqnpwXftI-Xk2alGuB_2aQLYGbNMkNf6Z8OV8F3AJx4NtofOOSmgFqSsK3duJW1eFDvkyTzr7vYVgNNrAw_B2ozPRETx4zuGDKz9niAMyX7ke8S5kHtI5t3b8z5y3-DhBCc1bIAHo31-keDtwZ2eMQIpjxcdePiC2nQHX2uoVgbD5PwbkGFGrdd8NCZFh51ApHh3iLTvIAMffIuHoM8NVI9-j-4QzF8Sm3LAtXaewVVWsQSyWCDTosBrLb1eL_qWrwLasRetN3d8GGbnXkNOlXNaMnYjhOe8zd21t2BtIXuyLXZvL8KtBJvsHwAnkMXB-LI9LU-INXx60RagGIQOHk-XeixHgHf_8_d2BtBOuFl0seB5GSFrAVnDeaPL_dqvOThPDEzoorY-zJRyyR8l-NfP5DyrOGSPSb8LC2vDl6_SYjMD2IuIk4kKQ4DexsBpVPVUgyEACnPjLXC_MCHOYmT7yvU_EbtFrhe4InHgv2N8Cbl3BbrBfNyQMs9BcZWI6NdCqpnvV-0G00]--></g></svg>