<svg xmlns="http://www.w3.org/2000/svg" xmlns:xlink="http://www.w3.org/1999/xlink" contentStyleType="text/css" data-diagram-type="DESCRIPTION" height="2006px" preserveAspectRatio="none" style="width:1091px;height:2006px;background:#FFFFFF;" version="1.1" viewBox="0 0 1091 2006" width="1091px" zoomAndPan="magnify"><title>Level 4 - Implementation Logic Mapping View</title><defs/><g><text fill="#000000" font-family="sans-serif" font-size="14" font-weight="bold" lengthAdjust="spacing" textLength="301.8203" x="388.0059" y="24.5332">Level 4 - Implementation Logic Mapping View</text><!--cluster Implementation View--><g class="cluster" data-entity="Implementation View" data-source-line="5" data-uid="ent0002" id="cluster_Implementation View"><rect fill="none" height="1027" rx="2.5" ry="2.5" style="stroke:#181818;stroke-width:1;" width="524" x="533" y="973.6094"/><text fill="#000000" font-family="sans-serif" font-size="20" font-weight="bold" lengthAdjust="spacing" textLength="198.9258" x="695.5371" y="996.3711">Implementation View</text></g><!--cluster PortTiT--><g class="cluster" data-entity="PortTiT" data-source-line="6" data-uid="ent0003" id="cluster_PortTiT"><path d="M559.5,1025.6094 L630.4902,1025.6094 A3.75,3.75 0 0 1 632.9902,1028.1094 L639.9902,1056.7656 L1030.5,1056.7656 A2.5,2.5 0 0 1 1033,1059.2656 L1033,1974.1094 A2.5,2.5 0 0 1 1030.5,1976.6094 L559.5,1976.6094 A2.5,2.5 0 0 1 557,1974.1094 L557,1028.1094 A2.5,2.5 0 0 1 559.5,1025.6094" fill="none" style="stroke:#000000;stroke-width:1.5;"/><line style="stroke:#000000;stroke-width:1.5;" x1="557" x2="639.9902" y1="1056.7656" y2="1056.7656"/><text fill="#000000" font-family="sans-serif" font-size="20" font-weight="bold" lengthAdjust="spacing" textLength="69.9902" x="561" y="1048.3711">PortTiT</text></g><!--cluster Application--><g class="cluster" data-entity="Application" data-source-line="12" data-uid="ent0005" id="cluster_Application"><path d="M794.5,1254.6094 L904.3867,1254.6094 A3.75,3.75 0 0 1 906.8867,1257.1094 L913.8867,1285.7656 L955.5,1285.7656 A2.5,2.5 0 0 1 958,1288.2656 L958,1574.1094 A2.5,2.5 0 0 1 955.5,1576.6094 L794.5,1576.6094 A2.5,2.5 0 0 1 792,1574.1094 L792,1257.1094 A2.5,2.5 0 0 1 794.5,1254.6094" fill="none" style="stroke:#000000;stroke-width:1.5;"/><line style="stroke:#000000;stroke-width:1.5;" x1="792" x2="913.8867" y1="1285.7656" y2="1285.7656"/><text fill="#000000" font-family="sans-serif" font-size="20" font-weight="bold" lengthAdjust="spacing" textLength="108.8867" x="796" y="1277.3711">Application</text></g><!--cluster Infrastructure--><g class="cluster" data-entity="Infrastructure" data-source-line="22" data-uid="ent0008" id="cluster_Infrastructure"><path d="M583.5,1609.6094 L714.5293,1609.6094 A3.75,3.75 0 0 1 717.0293,1612.1094 L724.0293,1640.7656 L800.5,1640.7656 A2.5,2.5 0 0 1 803,1643.2656 L803,1950.1094 A2.5,2.5 0 0 1 800.5,1952.6094 L583.5,1952.6094 A2.5,2.5 0 0 1 581,1950.1094 L581,1612.1094 A2.5,2.5 0 0 1 583.5,1609.6094" fill="none" style="stroke:#000000;stroke-width:1.5;"/><line style="stroke:#000000;stroke-width:1.5;" x1="581" x2="724.0293" y1="1640.7656" y2="1640.7656"/><text fill="#000000" font-family="sans-serif" font-size="20" font-weight="bold" lengthAdjust="spacing" textLength="130.0293" x="585" y="1632.3711">Infrastructure</text></g><!--cluster Persistency--><g class="cluster" data-entity="Persistency" data-source-line="24" data-uid="ent0009" id="cluster_Persistency"><path d="M607.5,1661.6094 L720.7949,1661.6094 A3.75,3.75 0 0 1 723.2949,1664.1094 L730.2949,1692.7656 L776.5,1692.7656 A2.5,2.5 0 0 1 779,1695.2656 L779,1926.1094 A2.5,2.5 0 0 1 776.5,1928.6094 L607.5,1928.6094 A2.5,2.5 0 0 1 605,1926.1094 L605,1664.1094 A2.5,2.5 0 0 1 607.5,1661.6094" fill="none" style="stroke:#000000;stroke-width:1.5;"/><line style="stroke:#000000;stroke-width:1.5;" x1="605" x2="730.2949" y1="1692.7656" y2="1692.7656"/><text fill="#000000" font-family="sans-serif" font-size="20" font-weight="bold" lengthAdjust="spacing" textLength="112.2949" x="609" y="1684.3711">Persistency</text></g><!--cluster Domain--><g class="cluster" data-entity="Domain" data-source-line="36" data-uid="ent0012" id="cluster_Domain"><path d="M829.5,1661.6094 L903.8398,1661.6094 A3.75,3.75 0 0 1 906.3398,1664.1094 L913.3398,1692.7656 L1006.5,1692.7656 A2.5,2.5 0 0 1 1009,1695.2656 L1009,1926.1094 A2.5,2.5 0 0 1 1006.5,1928.6094 L829.5,1928.6094 A2.5,2.5 0 0 1 827,1926.1094 L827,1664.1094 A2.5,2.5 0 0 1 829.5,1661.6094" fill="none" style="stroke:#000000;stroke-width:1.5;"/><line style="stroke:#000000;stroke-width:1.5;" x1="827" x2="913.3398" y1="1692.7656" y2="1692.7656"/><text fill="#000000" font-family="sans-serif" font-size="20" font-weight="bold" lengthAdjust="spacing" textLength="73.3398" x="831" y="1684.3711">Domain</text></g><!--cluster Logic View--><g class="cluster" data-entity="Logic View" data-source-line="57" data-uid="ent0021" id="cluster_Logic View"><rect fill="none" height="1369" rx="2.5" ry="2.5" style="stroke:#181818;stroke-width:1;" width="502" x="7" y="45.6094"/><text fill="#000000" font-family="sans-serif" font-size="20" font-weight="bold" lengthAdjust="spacing" textLength="104.4629" x="205.7686" y="68.3711">Logic View</text></g><!--cluster masterdata--><g class="cluster" data-entity="masterdata" data-source-line="60" data-uid="ent0023" id="cluster_masterdata"><rect fill="none" height="1218" rx="2.5" ry="2.5" style="stroke:#181818;stroke-width:1;" width="454" x="31" y="172.6094"/><text fill="#000000" font-family="sans-serif" font-size="20" font-style="italic" lengthAdjust="spacing" textLength="140.0879" x="187.9561" y="195.3711">&#171;Container C4&#187;</text><text fill="#000000" font-family="sans-serif" font-size="20" font-weight="bold" lengthAdjust="spacing" textLength="113.3789" x="201.3105" y="220.5273">Master Data</text></g><!--entity rt--><g class="entity" data-entity="rt" data-source-line="8" data-uid="ent0004" id="entity_rt"><path d="M831,1069.6094 L858.4434,1069.6094 A3.75,3.75 0 0 1 860.9434,1072.1094 L867.9434,1100.7656 L919.3691,1100.7656 A2.5,2.5 0 0 1 921.8691,1103.2656 L921.8691,1140.4219 A2.5,2.5 0 0 1 919.3691,1142.9219 L831,1142.9219 A2.5,2.5 0 0 1 828.5,1140.4219 L828.5,1072.1094 A2.5,2.5 0 0 1 831,1069.6094" fill="#F1F1F1" style="stroke:#181818;stroke-width:0.5;"/><line style="stroke:#181818;stroke-width:0.5;" x1="828.5" x2="867.9434" y1="1100.7656" y2="1100.7656"/><text fill="#000000" font-family="sans-serif" font-size="20" font-weight="bold" lengthAdjust="spacing" textLength="14.4434" x="838.5" y="1093.3711">rt</text><text fill="#000000" font-family="sans-serif" font-size="20" lengthAdjust="spacing" textLength="63.3691" x="838.5" y="1128.5273">Routes</text></g><!--entity controller--><g class="entity" data-entity="controller" data-source-line="13" data-uid="ent0006" id="entity_controller"><path d="M810.5,1298.6094 L915.7363,1298.6094 A3.75,3.75 0 0 1 918.2363,1301.1094 L925.2363,1329.7656 L939.7363,1329.7656 A2.5,2.5 0 0 1 942.2363,1332.2656 L942.2363,1369.4219 A2.5,2.5 0 0 1 939.7363,1371.9219 L810.5,1371.9219 A2.5,2.5 0 0 1 808,1369.4219 L808,1301.1094 A2.5,2.5 0 0 1 810.5,1298.6094" fill="#F1F1F1" style="stroke:#181818;stroke-width:0.5;"/><line style="stroke:#181818;stroke-width:0.5;" x1="808" x2="925.2363" y1="1329.7656" y2="1329.7656"/><text fill="#000000" font-family="sans-serif" font-size="20" font-weight="bold" lengthAdjust="spacing" textLength="92.2363" x="818" y="1322.3711">controller</text><text fill="#000000" font-family="sans-serif" font-size="20" lengthAdjust="spacing" textLength="96.6992" x="818" y="1357.5273">Controllers</text></g><!--entity service--><g class="entity" data-entity="service" data-source-line="17" data-uid="ent0007" id="entity_service"><path d="M816,1487.6094 L897.9551,1487.6094 A3.75,3.75 0 0 1 900.4551,1490.1094 L907.4551,1518.7656 L921.9551,1518.7656 A2.5,2.5 0 0 1 924.4551,1521.2656 L924.4551,1558.4219 A2.5,2.5 0 0 1 921.9551,1560.9219 L816,1560.9219 A2.5,2.5 0 0 1 813.5,1558.4219 L813.5,1490.1094 A2.5,2.5 0 0 1 816,1487.6094" fill="#F1F1F1" style="stroke:#181818;stroke-width:0.5;"/><line style="stroke:#181818;stroke-width:0.5;" x1="813.5" x2="907.4551" y1="1518.7656" y2="1518.7656"/><text fill="#000000" font-family="sans-serif" font-size="20" font-weight="bold" lengthAdjust="spacing" textLength="68.9551" x="823.5" y="1511.3711">service</text><text fill="#000000" font-family="sans-serif" font-size="20" lengthAdjust="spacing" textLength="76.6895" x="823.5" y="1546.5273">Services</text></g><!--entity repo--><g class="entity" data-entity="repo" data-source-line="26" data-uid="ent0010" id="entity_repo"><path d="M624,1705.6094 L680.3398,1705.6094 A3.75,3.75 0 0 1 682.8398,1708.1094 L689.8398,1736.7656 L760.1621,1736.7656 A2.5,2.5 0 0 1 762.6621,1739.2656 L762.6621,1776.4219 A2.5,2.5 0 0 1 760.1621,1778.9219 L624,1778.9219 A2.5,2.5 0 0 1 621.5,1776.4219 L621.5,1708.1094 A2.5,2.5 0 0 1 624,1705.6094" fill="#F1F1F1" style="stroke:#181818;stroke-width:0.5;"/><line style="stroke:#181818;stroke-width:0.5;" x1="621.5" x2="689.8398" y1="1736.7656" y2="1736.7656"/><text fill="#000000" font-family="sans-serif" font-size="20" font-weight="bold" lengthAdjust="spacing" textLength="43.3398" x="631.5" y="1729.3711">repo</text><text fill="#000000" font-family="sans-serif" font-size="20" lengthAdjust="spacing" textLength="111.1621" x="631.5" y="1764.5273">Repositories</text></g><!--entity ctx--><g class="entity" data-entity="ctx" data-source-line="30" data-uid="ent0011" id="entity_ctx"><path d="M645,1839.6094 L686.9063,1839.6094 A3.75,3.75 0 0 1 689.4063,1842.1094 L696.4063,1870.7656 L738.9258,1870.7656 A2.5,2.5 0 0 1 741.4258,1873.2656 L741.4258,1910.4219 A2.5,2.5 0 0 1 738.9258,1912.9219 L645,1912.9219 A2.5,2.5 0 0 1 642.5,1910.4219 L642.5,1842.1094 A2.5,2.5 0 0 1 645,1839.6094" fill="#F1F1F1" style="stroke:#181818;stroke-width:0.5;"/><line style="stroke:#181818;stroke-width:0.5;" x1="642.5" x2="696.4063" y1="1870.7656" y2="1870.7656"/><text fill="#000000" font-family="sans-serif" font-size="20" font-weight="bold" lengthAdjust="spacing" textLength="28.9063" x="652.5" y="1863.3711">ctx</text><text fill="#000000" font-family="sans-serif" font-size="20" lengthAdjust="spacing" textLength="68.9258" x="652.5" y="1898.5273">Context</text></g><!--entity ent--><g class="entity" data-entity="ent" data-source-line="37" data-uid="ent0013" id="entity_ent"><path d="M845.5,1705.6094 L888.5,1705.6094 A3.75,3.75 0 0 1 891,1708.1094 L898,1736.7656 L936.0859,1736.7656 A2.5,2.5 0 0 1 938.5859,1739.2656 L938.5859,1776.4219 A2.5,2.5 0 0 1 936.0859,1778.9219 L845.5,1778.9219 A2.5,2.5 0 0 1 843,1776.4219 L843,1708.1094 A2.5,2.5 0 0 1 845.5,1705.6094" fill="#F1F1F1" style="stroke:#181818;stroke-width:0.5;"/><line style="stroke:#181818;stroke-width:0.5;" x1="843" x2="898" y1="1736.7656" y2="1736.7656"/><text fill="#000000" font-family="sans-serif" font-size="20" font-weight="bold" lengthAdjust="spacing" textLength="30" x="853" y="1729.3711">ent</text><text fill="#000000" font-family="sans-serif" font-size="20" lengthAdjust="spacing" textLength="65.5859" x="853" y="1764.5273">Entities</text></g><!--entity vo--><g class="entity" data-entity="vo" data-source-line="41" data-uid="ent0014" id="entity_vo"><path d="M846,1839.6094 L882.3398,1839.6094 A3.75,3.75 0 0 1 884.8398,1842.1094 L891.8398,1870.7656 L989.9551,1870.7656 A2.5,2.5 0 0 1 992.4551,1873.2656 L992.4551,1910.4219 A2.5,2.5 0 0 1 989.9551,1912.9219 L846,1912.9219 A2.5,2.5 0 0 1 843.5,1910.4219 L843.5,1842.1094 A2.5,2.5 0 0 1 846,1839.6094" fill="#F1F1F1" style="stroke:#181818;stroke-width:0.5;"/><line style="stroke:#181818;stroke-width:0.5;" x1="843.5" x2="891.8398" y1="1870.7656" y2="1870.7656"/><text fill="#000000" font-family="sans-serif" font-size="20" font-weight="bold" lengthAdjust="spacing" textLength="23.3398" x="853.5" y="1863.3711">vo</text><text fill="#000000" font-family="sans-serif" font-size="20" lengthAdjust="spacing" textLength="118.9551" x="853.5" y="1898.5273">ValueObjects</text></g><!--entity api--><g class="entity" data-entity="api" data-source-line="58" data-uid="ent0022" id="entity_api"><ellipse cx="358" cy="107.6094" fill="#F1F1F1" rx="8" ry="8" style="stroke:#181818;stroke-width:0.5;"/></g><!--entity empty1--><!--entity controller2--><g class="entity" data-entity="controller2" data-source-line="63" data-uid="ent0025" id="entity_controller2"><rect fill="#F1F1F1" height="55.1563" rx="2.5" ry="2.5" style="stroke:#181818;stroke-width:0.5;" width="222.3047" x="247" y="241.6094"/><rect fill="#F1F1F1" height="10" style="stroke:#181818;stroke-width:0.5;" width="15" x="449.3047" y="246.6094"/><rect fill="#F1F1F1" height="2" style="stroke:#181818;stroke-width:0.5;" width="4" x="447.3047" y="248.6094"/><rect fill="#F1F1F1" height="2" style="stroke:#181818;stroke-width:0.5;" width="4" x="447.3047" y="252.6094"/><text fill="#000000" font-family="sans-serif" font-size="20" lengthAdjust="spacing" textLength="182.3047" x="262" y="282.3711">BackEnd Controllers</text></g><!--entity service2--><g class="entity" data-entity="service2" data-source-line="65" data-uid="ent0026" id="entity_service2"><rect fill="#F1F1F1" height="55.1563" rx="2.5" ry="2.5" style="stroke:#181818;stroke-width:0.5;" width="202.2949" x="261" y="614.6094"/><rect fill="#F1F1F1" height="10" style="stroke:#181818;stroke-width:0.5;" width="15" x="443.2949" y="619.6094"/><rect fill="#F1F1F1" height="2" style="stroke:#181818;stroke-width:0.5;" width="4" x="441.2949" y="621.6094"/><rect fill="#F1F1F1" height="2" style="stroke:#181818;stroke-width:0.5;" width="4" x="441.2949" y="625.6094"/><text fill="#000000" font-family="sans-serif" font-size="20" lengthAdjust="spacing" textLength="162.2949" x="276" y="655.3711">BackEnd Services</text></g><!--entity empty2--><!--entity repository--><g class="entity" data-entity="repository" data-source-line="68" data-uid="ent0028" id="entity_repository"><rect fill="#F1F1F1" height="55.1563" rx="2.5" ry="2.5" style="stroke:#181818;stroke-width:0.5;" width="236.7676" x="231.5" y="1078.6094"/><rect fill="#F1F1F1" height="10" style="stroke:#181818;stroke-width:0.5;" width="15" x="448.2676" y="1083.6094"/><rect fill="#F1F1F1" height="2" style="stroke:#181818;stroke-width:0.5;" width="4" x="446.2676" y="1085.6094"/><rect fill="#F1F1F1" height="2" style="stroke:#181818;stroke-width:0.5;" width="4" x="446.2676" y="1089.6094"/><text fill="#000000" font-family="sans-serif" font-size="20" lengthAdjust="spacing" textLength="196.7676" x="246.5" y="1119.3711">BackEnd Repositories</text></g><!--entity empty3--><!--entity dtos--><g class="entity" data-entity="dtos" data-source-line="71" data-uid="ent0030" id="entity_dtos"><rect fill="#F1F1F1" height="55.1563" rx="2.5" ry="2.5" style="stroke:#181818;stroke-width:0.5;" width="82.2168" x="152" y="428.1094"/><rect fill="#F1F1F1" height="10" style="stroke:#181818;stroke-width:0.5;" width="15" x="214.2168" y="433.1094"/><rect fill="#F1F1F1" height="2" style="stroke:#181818;stroke-width:0.5;" width="4" x="212.2168" y="435.1094"/><rect fill="#F1F1F1" height="2" style="stroke:#181818;stroke-width:0.5;" width="4" x="212.2168" y="439.1094"/><text fill="#000000" font-family="sans-serif" font-size="20" lengthAdjust="spacing" textLength="42.2168" x="167" y="468.8711">DTO</text></g><!--entity domain--><g class="entity" data-entity="domain" data-source-line="72" data-uid="ent0031" id="entity_domain"><rect fill="#F1F1F1" height="55.1563" rx="2.5" ry="2.5" style="stroke:#181818;stroke-width:0.5;" width="194.5215" x="96.5" y="801.1094"/><rect fill="#F1F1F1" height="10" style="stroke:#181818;stroke-width:0.5;" width="15" x="271.0215" y="806.1094"/><rect fill="#F1F1F1" height="2" style="stroke:#181818;stroke-width:0.5;" width="4" x="269.0215" y="808.1094"/><rect fill="#F1F1F1" height="2" style="stroke:#181818;stroke-width:0.5;" width="4" x="269.0215" y="812.1094"/><text fill="#000000" font-family="sans-serif" font-size="20" lengthAdjust="spacing" textLength="154.5215" x="111.5" y="841.8711">BackEnd Domain</text></g><!--entity database--><g class="entity" data-entity="database" data-source-line="73" data-uid="ent0032" id="entity_database"><path d="M342,1305.6094 C342,1295.6094 394.8076,1295.6094 394.8076,1295.6094 C394.8076,1295.6094 447.6152,1295.6094 447.6152,1305.6094 L447.6152,1364.9219 C447.6152,1374.9219 394.8076,1374.9219 394.8076,1374.9219 C394.8076,1374.9219 342,1374.9219 342,1364.9219 L342,1305.6094" fill="#F1F1F1" style="stroke:#181818;stroke-width:0.5;"/><path d="M342,1305.6094 C342,1315.6094 394.8076,1315.6094 394.8076,1315.6094 C394.8076,1315.6094 447.6152,1315.6094 447.6152,1305.6094" fill="none" style="stroke:#181818;stroke-width:0.5;"/><text fill="#000000" font-family="sans-serif" font-size="20" lengthAdjust="spacing" textLength="77.832" x="352" y="1340.3711">Backend</text><text fill="#000000" font-family="sans-serif" font-size="20" lengthAdjust="spacing" textLength="85.6152" x="352" y="1365.5273">Database</text></g><!--link controller to service--><g class="link" data-entity-1="controller" data-entity-2="service" data-source-line="47" data-uid="lnk15" id="link_controller_service"><path d="M873.86,1371.7194 C872.79,1404.8894 871.4013,1448.0824 870.3413,1481.3124" fill="none" id="controller-to-service" style="stroke:#181818;stroke-width:1;stroke-dasharray:7.0,7.0;"/><polygon fill="#181818" points="870.15,1487.3094,874.4349,1478.4415,870.3094,1482.3119,866.439,1478.1864,870.15,1487.3094" style="stroke:#181818;stroke-width:1;"/></g><!--link service to repo--><g class="link" data-entity-1="service" data-entity-2="repo" data-source-line="48" data-uid="lnk16" id="link_service_repo"><path d="M839.77,1560.7794 C806.98,1600.7994 757.8829,1691.8647 725.0729,1731.9047" fill="none" id="service-to-repo" style="stroke:#181818;stroke-width:1;stroke-dasharray:7.0,7.0;"/><polygon fill="#181818" points="721.27,1736.5456,730.0683,1732.1195,724.4391,1732.6782,723.8804,1727.049,721.27,1736.5456" style="stroke:#181818;stroke-width:1;"/></g><!--link service to ent--><g class="link" data-entity-1="service" data-entity-2="ent" data-source-line="49" data-uid="lnk17" id="link_service_ent"><path d="M872.63,1560.7794 C876.71,1600.7994 882.6718,1665.5042 886.7518,1705.5442" fill="none" id="service-to-ent" style="stroke:#181818;stroke-width:1;stroke-dasharray:7.0,7.0;"/><polygon fill="#181818" points="887.36,1711.5133,890.427,1702.1541,886.8531,1706.539,882.4682,1702.9651,887.36,1711.5133" style="stroke:#181818;stroke-width:1;"/></g><!--link ent to vo--><g class="link" data-entity-1="ent" data-entity-2="vo" data-source-line="51" data-uid="lnk18" id="link_ent_vo"><path d="M898.31,1778.8294 C902.15,1797.6094 905.6356,1845.8477 909.4856,1864.6377" fill="none" id="ent-to-vo" style="stroke:#181818;stroke-width:1;stroke-dasharray:7.0,7.0;"/><polygon fill="#181818" points="910.69,1870.5156,912.8021,1860.8959,909.6864,1865.6174,904.9649,1862.5017,910.69,1870.5156" style="stroke:#181818;stroke-width:1;"/></g><!--link repo to ctx--><g class="link" data-entity-1="repo" data-entity-2="ctx" data-source-line="53" data-uid="lnk19" id="link_repo_ctx"><path d="M692,1778.8294 C692,1797.6094 692,1835.9198 692,1854.7098" fill="none" id="repo-to-ctx" style="stroke:#181818;stroke-width:1;stroke-dasharray:7.0,7.0;"/><polygon fill="#181818" points="692,1860.7098,696,1851.7098,692,1855.7098,688,1851.7098,692,1860.7098" style="stroke:#181818;stroke-width:1;"/></g><!--link rt to controller--><g class="link" data-entity-1="rt" data-entity-2="controller" data-source-line="54" data-uid="lnk20" id="link_rt_controller"><path d="M875,1142.8294 C875,1185.3994 875,1250.1194 875,1292.5994" fill="none" id="rt-to-controller" style="stroke:#181818;stroke-width:1;stroke-dasharray:7.0,7.0;"/><polygon fill="#181818" points="875,1298.5994,879,1289.5994,875,1293.5994,871,1289.5994,875,1298.5994" style="stroke:#181818;stroke-width:1;"/></g><!--link api to controller2--><g class="link" data-entity-1="api" data-entity-2="controller2" data-source-line="81" data-uid="lnk33" id="link_api_controller2"><path d="M358,116.7394 C358,139.4694 358,204.4194 358,241.4294" fill="none" id="api-controller2" style="stroke:#181818;stroke-width:1;"/></g><!--link controller2 to dtos--><g class="link" data-entity-1="controller2" data-entity-2="dtos" data-source-line="82" data-uid="lnk34" id="link_controller2_dtos"><path d="M327.4,296.7094 C310.54,311.3594 293,326.6094 293,326.6094 C293,326.6094 243.01,390.5994 213.72,428.0894" fill="none" id="controller2-dtos" style="stroke:#181818;stroke-width:1;"/><text fill="#000000" font-family="sans-serif" font-size="20" lengthAdjust="spacing" textLength="42.2168" x="301" y="355.3711">DTO</text><text fill="#000000" font-family="sans-serif" font-size="20" lengthAdjust="spacing" textLength="32.2363" x="305.9902" y="380.5273">API</text><path d="M274.2692,362.0716 A10,10 0 0 0 263.1247 353.3652" fill="none" style="stroke:#181818;stroke-width:1.5;"/><ellipse cx="264.3438" cy="363.2906" fill="#FFFFFF" rx="6" ry="6" style="stroke:#181818;stroke-width:1.5;"/></g><!--link controller2 to service2--><g class="link" data-entity-1="controller2" data-entity-2="service2" data-source-line="83" data-uid="lnk35" id="link_controller2_service2"><path d="M358.29,296.7894 C359.02,365.1594 360.98,546.0394 361.71,614.4194" fill="none" id="controller2-service2" style="stroke:#181818;stroke-width:1;"/><text fill="#000000" font-family="sans-serif" font-size="20" lengthAdjust="spacing" textLength="87.8027" x="368" y="451.3711">SERVICE</text><text fill="#000000" font-family="sans-serif" font-size="20" lengthAdjust="spacing" textLength="32.2363" x="395.7832" y="476.5273">API</text><path d="M366.9943,448.4537 A10,10 0 0 0 352.853 448.6063" fill="none" style="stroke:#181818;stroke-width:1.5;"/><ellipse cx="360" cy="455.6006" fill="#FFFFFF" rx="6" ry="6" style="stroke:#181818;stroke-width:1.5;"/></g><!--link controller2 to empty1--><!--link empty1 to dtos--><!--link dtos to service2--><g class="link" data-entity-1="dtos" data-entity-2="service2" data-source-line="88" data-uid="lnk40" id="link_dtos_service2"><path d="M213.72,483.1294 C243.01,520.6194 293,584.6094 293,584.6094 C293,584.6094 311.62,599.8594 329.52,614.5094" fill="none" id="dtos-service2" style="stroke:#181818;stroke-width:1;"/><text fill="#000000" font-family="sans-serif" font-size="20" lengthAdjust="spacing" textLength="42.2168" x="301" y="547.3711">DTO</text><text fill="#000000" font-family="sans-serif" font-size="20" lengthAdjust="spacing" textLength="32.2363" x="305.9902" y="572.5273">API</text><path d="M263.1247,557.8535 A10,10 0 0 0 274.2692 549.1472" fill="none" style="stroke:#181818;stroke-width:1.5;"/><ellipse cx="264.3438" cy="547.9281" fill="#FFFFFF" rx="6" ry="6" style="stroke:#181818;stroke-width:1.5;"/></g><!--link service2 to empty2--><!--link dtos to empty2--><!--link service2 to repository--><g class="link" data-entity-1="service2" data-entity-2="repository" data-source-line="93" data-uid="lnk45" id="link_service2_repository"><path d="M361.58,669.6494 C360.37,745.4694 357,957.6094 357,957.6094 C357,957.6094 353.28,1035.8894 351.27,1078.3994" fill="none" id="service2-repository" style="stroke:#181818;stroke-width:1;"/><text fill="#000000" font-family="sans-serif" font-size="20" lengthAdjust="spacing" textLength="87.8027" x="367" y="824.3711">SERVICE</text><text fill="#000000" font-family="sans-serif" font-size="20" lengthAdjust="spacing" textLength="32.2363" x="394.7832" y="849.5273">API</text><path d="M366.0188,835.1041 A10,10 0 0 0 351.8785 834.8793" fill="none" style="stroke:#181818;stroke-width:1.5;"/><ellipse cx="358.8363" cy="842.0619" fill="#FFFFFF" rx="6" ry="6" style="stroke:#181818;stroke-width:1.5;"/></g><!--link service2 to domain--><g class="link" data-entity-1="service2" data-entity-2="domain" data-source-line="94" data-uid="lnk46" id="link_service2_domain"><path d="M312.57,669.7094 C285.34,684.3594 257,699.6094 257,699.6094 C257,699.6094 225.51,763.5994 207.05,801.0894" fill="none" id="service2-domain" style="stroke:#181818;stroke-width:1;"/><text fill="#000000" font-family="sans-serif" font-size="20" lengthAdjust="spacing" textLength="80" x="265" y="728.3711">DOMAIN</text><text fill="#000000" font-family="sans-serif" font-size="20" lengthAdjust="spacing" textLength="32.2363" x="288.8818" y="753.5273">API</text><path d="M248.4143,733.0688 A10,10 0 0 0 235.7257 726.8238" fill="none" style="stroke:#181818;stroke-width:1.5;"/><ellipse cx="238.9475" cy="736.2906" fill="#FFFFFF" rx="6" ry="6" style="stroke:#181818;stroke-width:1.5;"/></g><!--link domain to repository--><g class="link" data-entity-1="domain" data-entity-2="repository" data-source-line="95" data-uid="lnk48" id="link_domain_repository"><path d="M207.05,856.1294 C225.51,893.6194 257,957.6094 257,957.6094 C257,957.6094 306.36,1035.8894 333.16,1078.3994" fill="none" id="domain-repository" style="stroke:#181818;stroke-width:1;"/><text fill="#000000" font-family="sans-serif" font-size="20" lengthAdjust="spacing" textLength="80" x="265" y="920.3711">DOMAIN</text><text fill="#000000" font-family="sans-serif" font-size="20" lengthAdjust="spacing" textLength="32.2363" x="288.8818" y="945.5273">API</text><path d="M253.778,967.0761 A10,10 0 0 0 266.4667 960.8314" fill="none" style="stroke:#181818;stroke-width:1.5;"/><ellipse cx="257" cy="957.6094" fill="#FFFFFF" rx="6" ry="6" style="stroke:#181818;stroke-width:1.5;"/></g><!--link repository to empty3--><!--link empty2 to domain--><!--link domain to empty3--><!--link repository to database--><g class="link" data-entity-1="repository" data-entity-2="database" data-source-line="100" data-uid="lnk54" id="link_repository_database"><path d="M354.86,1133.7194 C361.87,1172.1494 374,1238.6094 374,1238.6094 C374,1238.6094 380.69,1269.0394 386.52,1295.5394" fill="none" id="repository-database" style="stroke:#181818;stroke-width:1;"/><text fill="#000000" font-family="sans-serif" font-size="20" lengthAdjust="spacing" textLength="106.6992" x="382" y="1201.3711">DATABASE</text><text fill="#000000" font-family="sans-serif" font-size="20" lengthAdjust="spacing" textLength="32.2363" x="419.2314" y="1226.5273">API</text><path d="M372.7455,1192.35 A10,10 0 0 0 358.8331 1194.8889" fill="none" style="stroke:#181818;stroke-width:1.5;"/><ellipse cx="367.0588" cy="1200.5756" fill="#FFFFFF" rx="6" ry="6" style="stroke:#181818;stroke-width:1.5;"/></g><!--link controller2 to controller--><g class="link" data-entity-1="controller2" data-entity-2="controller" data-source-line="103" data-uid="lnk55" id="link_controller2_controller"><path d="M446.73,296.6394 C617.47,347.6994 975,454.6094 975,454.6094 C975,454.6094 975,454.6094 975,1107.1094 C975,1107.1094 953,1238.6094 953,1238.6094 C953,1238.6094 930.016,1266.7528 907.836,1293.9028" fill="none" id="controller2-to-controller" style="stroke:#181818;stroke-width:1;stroke-dasharray:7.0,7.0;"/><polygon fill="#181818" points="904.04,1298.5494,912.8317,1294.1102,907.2033,1294.6772,906.6363,1289.0489,904.04,1298.5494" style="stroke:#181818;stroke-width:1;"/><text fill="#000000" font-family="sans-serif" font-size="20" lengthAdjust="spacing" textLength="107.832" x="976" y="740.8711">&#171;manifests&#187;</text></g><!--link service2 to service--><g class="link" data-entity-1="service2" data-entity-2="service" data-source-line="104" data-uid="lnk56" id="link_service2_service"><path d="M408.48,669.7394 C497.65,720.8294 684,827.6094 684,827.6094 C684,827.6094 684,827.6094 684,1336.1094 C684,1336.1094 775.8702,1428.974 829.5502,1483.234" fill="none" id="service2-to-service" style="stroke:#181818;stroke-width:1;stroke-dasharray:7.0,7.0;"/><polygon fill="#181818" points="833.77,1487.4994,830.2839,1478.2881,830.2535,1483.9449,824.5967,1483.9145,833.77,1487.4994" style="stroke:#181818;stroke-width:1;"/><text fill="#000000" font-family="sans-serif" font-size="20" lengthAdjust="spacing" textLength="107.832" x="685" y="1114.3711">&#171;manifests&#187;</text></g><!--link repository to repo--><g class="link" data-entity-1="repository" data-entity-2="repo" data-source-line="105" data-uid="lnk57" id="link_repository_repo"><path d="M345.24,1133.6794 C337.99,1174.1494 325,1246.6094 325,1246.6094 C325,1246.6094 325,1422.6094 325,1422.6094 C325,1422.6094 496,1593.6094 496,1593.6094 C496,1593.6094 581.756,1658.1414 639.756,1701.7914" fill="none" id="repository-to-repo" style="stroke:#181818;stroke-width:1;stroke-dasharray:7.0,7.0;"/><polygon fill="#181818" points="644.55,1705.3994,639.7642,1696.7915,640.555,1702.3928,634.9536,1703.1835,644.55,1705.3994" style="stroke:#181818;stroke-width:1;"/><text fill="#000000" font-family="sans-serif" font-size="20" lengthAdjust="spacing" textLength="107.832" x="359" y="1452.3711">&#171;manifests&#187;</text></g><!--link domain to ent--><g class="link" data-entity-1="domain" data-entity-2="ent" data-source-line="106" data-uid="lnk58" id="link_domain_ent"><path d="M265.79,856.2594 C311.05,873.0694 361,891.6094 361,891.6094 C361,891.6094 486,965.6094 486,965.6094 C486,965.6094 522,1105.1094 522,1105.1094 C522,1105.1094 522,1105.1094 522,1525.1094 C522,1525.1094 779,1601.6094 779,1601.6094 C779,1601.6094 825.5138,1659.5406 858.6938,1700.8706" fill="none" id="domain-to-ent" style="stroke:#181818;stroke-width:1;stroke-dasharray:7.0,7.0;"/><polygon fill="#181818" points="862.45,1705.5494,859.9349,1696.0271,859.3199,1701.6504,853.6965,1701.0353,862.45,1705.5494" style="stroke:#181818;stroke-width:1;"/><text fill="#000000" font-family="sans-serif" font-size="20" lengthAdjust="spacing" textLength="107.832" x="523" y="1343.3711">&#171;manifests&#187;</text></g><!--SRC=[ZLHDJ-Cm4BtdLuooXzrBAWYSLbMbGhjI9TWYMd5PUZ39j7X9xCXn2bt4Vrz_nAsTj8YSufddUJDlPbo_K5OHGSg2Po-OGuvhqXJo5sToGVyXf6THxI1mGndANOLGyM9Ng4CKIIeBX1lSOW6NaC2ih0eiaKaYAMTmmpSqWrjILPHju87YQnG9p2HX6tKjxg2rFuRt2DHNaUo5R1JcZWkvf4jjDux0USyRYNKCf0OXVSJ74V2ugWgQ6Ih7qiDSgy85BmeKDcgsF_lHEmn1X0MABStQf6fxw5tzBCqPMmjIIz5aiX4Olv_WkLCfqbeYotPnDxTG8wnuJIKNr2cb3CTkV7mIHEk2Rz9g8j-EN_zwZHDU4ihY4qsOCZLMBbir7L-L_e4K3SwV_ge1itUt73wHtWlbjNam6Bcs6LVxR-nQkPvH9MY3w4orOSljsUYi3KemQx3-0rdq4Qo3tHQp1LQPZ8fCEy1KGohg0k-ltAf9KKbFY2G6Kvfpheum7EgcAPcL__foDF96Vl_pH_1NE0SiAxbR6RNrtpby4vWVG5TAu2dBmLkELRWSQTH7kqLOUOkGXinfbpcrpFrW_X2lt10RmouCUT4DUT4DELdEZJUNlEuJsScq0FExXsXHdqYjHDTOPFaZcxGc8xtp7wYUQOwjeaTiwH7RXHrAi36-Www8Cpk8glsG987euUYcaEG_pX9J6FnKIxQSFxBntIpkupJCjKH35zFxXzdrr8EtWv0KVKRdoYsLdwjy5XYiZU9gJkVKzboJ10FYx4t0e0dMl16T-ARcmpWSB-S0DzcOpffyvhVZsMyFw0LgCp-DRUTBfzyPHrT0dlXJvF3DtjgZj0rqawP9nylnrNZXQb4FXj_8mI1yKFIDuR0aZAwnblLe54VxoYtMlLnze9U6XPhtguzh1R4O_URr8Vy1]--></g></svg>