<svg xmlns="http://www.w3.org/2000/svg" xmlns:xlink="http://www.w3.org/1999/xlink" contentStyleType="text/css" data-diagram-type="CLASS" height="143px" preserveAspectRatio="none" style="width:151px;height:143px;background:#FFFFFF;" version="1.1" viewBox="0 0 151 143" width="151px" zoomAndPan="magnify"><defs/><g><!--cluster PortTiT--><g class="cluster" data-entity="PortTiT" data-source-line="3" data-uid="ent0002" id="cluster_PortTiT"><path d="M8.5,6.8945 L79.4902,6.8945 A3.75,3.75 0 0 1 81.9902,9.3945 L88.9902,38.0508 L141.5,38.0508 A2.5,2.5 0 0 1 144,40.5508 L144,134.3945 A2.5,2.5 0 0 1 141.5,136.8945 L8.5,136.8945 A2.5,2.5 0 0 1 6,134.3945 L6,9.3945 A2.5,2.5 0 0 1 8.5,6.8945" fill="none" style="stroke:#000000;stroke-width:1.5;"/><line style="stroke:#000000;stroke-width:1.5;" x1="6" x2="88.9902" y1="38.0508" y2="38.0508"/><text fill="#000000" font-family="sans-serif" font-size="20" font-weight="bold" lengthAdjust="spacing" textLength="69.9902" x="10" y="29.6563">PortTiT</text></g><path d="M24.5,50.8945 L111.0859,50.8945 A3.75,3.75 0 0 1 113.5859,53.3945 L120.5859,82.0508 L125.0859,82.0508 A2.5,2.5 0 0 1 127.5859,84.5508 L127.5859,118.707 A2.5,2.5 0 0 1 125.0859,121.207 L24.5,121.207 A2.5,2.5 0 0 1 22,118.707 L22,53.3945 A2.5,2.5 0 0 1 24.5,50.8945" fill="#F1F1F1" style="stroke:#181818;stroke-width:0.5;"/><line style="stroke:#181818;stroke-width:0.5;" x1="22" x2="120.5859" y1="82.0508" y2="82.0508"/><text fill="#000000" font-family="sans-serif" font-size="20" font-weight="bold" lengthAdjust="spacing" textLength="85.5859" x="26" y="73.6563">BackEnd</text><!--SRC=[DOf12e0W403FxYiMNn0z8QXJXw0-iEWMegca7IhyUruy3JDCiiP7kkXqGLdMg7cds-Kf-BoQbx7l8BK5P-CvFv4n1lUuAW2HbAM3KIxXoflP97u0ejMXSlIwDY5052Zm0m00]--></g></svg>