# Blender 3.6.3
# www.blender.org
mtllib Buoy.mtl
o Buoy
v 0.000000 3.838417 -0.707107
v 0.167470 4.359826 -0.230503
v 0.415627 3.838417 -0.572061
v 0.543043 3.058074 -0.747434
v 0.587785 2.137597 -0.809017
v 0.582260 1.264123 -0.801412
v 0.584643 0.487776 -0.804691
v 0.270972 4.359826 -0.088044
v 0.672498 3.838417 -0.218508
v 0.878662 3.058074 -0.285494
v 0.951057 2.137597 -0.309017
v 0.942116 1.264123 -0.306112
v 0.945971 0.487776 -0.307365
v 0.270972 4.359826 0.088044
v 0.672498 3.838417 0.218508
v 0.878662 3.058074 0.285494
v 0.951057 2.137597 0.309017
v 0.942116 1.264123 0.306112
v 0.945971 0.487776 0.307365
v 0.167470 4.359826 0.230503
v 0.415627 3.838417 0.572061
v 0.543043 3.058074 0.747434
v 0.587785 2.137597 0.809017
v 0.582260 1.264123 0.801412
v 0.584643 0.487776 0.804691
v 0.000000 4.359826 0.284917
v 0.000000 3.838417 0.707107
v 0.000000 3.058074 0.923879
v 0.000000 2.137597 1.000000
v 0.000000 1.264123 0.990599
v -0.000000 0.487776 0.994653
v -0.167470 4.359826 0.230503
v -0.415627 3.838417 0.572061
v -0.543043 3.058074 0.747434
v -0.587785 2.137597 0.809017
v -0.582260 1.264123 0.801412
v -0.584642 0.487776 0.804691
v -0.270972 4.359826 0.088044
v -0.672498 3.838417 0.218508
v -0.878662 3.058074 0.285495
v -0.951057 2.137597 0.309017
v -0.942116 1.264123 0.306112
v -0.945971 0.487776 0.307365
v 0.000000 0.003176 -0.000000
v -0.270972 4.359826 -0.088044
v -0.672498 3.838417 -0.218508
v -0.878662 3.058074 -0.285494
v -0.951057 2.137597 -0.309017
v -0.942116 1.264123 -0.306112
v -0.945971 0.487776 -0.307365
v 0.000000 4.435924 0.000000
v -0.167470 4.359826 -0.230503
v -0.415627 3.838417 -0.572061
v -0.543043 3.058074 -0.747434
v -0.587785 2.137597 -0.809017
v -0.582260 1.264123 -0.801412
v -0.584642 0.487776 -0.804691
v -0.000000 4.359826 -0.284917
v -0.000000 3.058074 -0.923880
v -0.000000 2.137597 -1.000000
v -0.000000 1.264123 -0.990600
v 0.000000 0.487776 -0.994653
v 0.267174 4.244332 -0.367734
v 0.432297 4.244332 -0.140462
v 0.432297 4.244332 0.140462
v 0.267175 4.244332 0.367734
v 0.000000 4.244332 0.454544
v -0.267174 4.244332 0.367734
v -0.432297 4.244332 0.140462
v -0.432297 4.244332 -0.140462
v -0.267175 4.244332 -0.367734
v -0.000000 4.244332 -0.454544
v 0.539006 0.003176 -0.741879
v 0.584337 0.127370 -0.804270
v 0.945477 0.127370 -0.307204
v 0.872131 0.003176 -0.283372
v 0.945477 0.127370 0.307204
v 0.872131 0.003176 0.283372
v 0.584337 0.127370 0.804270
v 0.539006 0.003176 0.741879
v 0.000000 0.127370 0.994133
v 0.000000 0.003176 0.917012
v -0.584337 0.127370 0.804271
v -0.539006 0.003176 0.741879
v -0.945477 0.127370 0.307204
v -0.872131 0.003176 0.283373
v -0.945477 0.127370 -0.307204
v -0.872131 0.003176 -0.283372
v -0.584337 0.127370 -0.804270
v -0.539006 0.003176 -0.741879
v -0.000000 0.127370 -0.994133
v -0.000000 0.003176 -0.917013
v 0.179054 4.580879 0.000000
v 0.168565 4.583690 0.026215
v 0.143243 4.590475 0.037074
v 0.117921 4.597260 0.026215
v 0.107432 4.600070 0.000000
v 0.117921 4.597260 -0.026215
v 0.143243 4.590475 -0.037074
v 0.168565 4.583690 -0.026215
v 0.179054 4.676834 0.000000
v 0.168565 4.674024 0.026215
v 0.143243 4.667239 0.037074
v 0.117921 4.660454 0.026215
v 0.107432 4.657643 0.000000
v 0.117921 4.660454 -0.026215
v 0.143243 4.667239 -0.037074
v 0.168565 4.674024 -0.026215
v 0.131077 4.759933 0.000000
v 0.123398 4.752255 0.026215
v 0.104861 4.733718 0.037074
v 0.086324 4.715181 0.026215
v 0.078646 4.707502 0.000000
v 0.086324 4.715181 -0.026215
v 0.104861 4.733718 -0.037074
v 0.123398 4.752255 -0.026215
v 0.047977 4.807911 0.000000
v 0.045167 4.797422 0.026215
v 0.038382 4.772100 0.037074
v 0.031597 4.746778 0.026215
v 0.028786 4.736290 0.000000
v 0.031597 4.746778 -0.026215
v 0.038382 4.772100 -0.037074
v 0.045167 4.797422 -0.026215
v -0.047977 4.807911 0.000000
v -0.045167 4.797422 0.026215
v -0.038382 4.772100 0.037074
v -0.031597 4.746778 0.026215
v -0.028786 4.736290 0.000000
v -0.031597 4.746778 -0.026215
v -0.038382 4.772100 -0.037074
v -0.045167 4.797422 -0.026215
v -0.131077 4.759933 0.000000
v -0.123398 4.752255 0.026215
v -0.104861 4.733718 0.037074
v -0.086324 4.715181 0.026215
v -0.078646 4.707502 0.000000
v -0.086324 4.715181 -0.026215
v -0.104861 4.733718 -0.037074
v -0.123398 4.752255 -0.026215
v -0.179054 4.676834 0.000000
v -0.168565 4.674024 0.026215
v -0.143243 4.667239 0.037074
v -0.117921 4.660454 0.026215
v -0.107432 4.657643 0.000000
v -0.117921 4.660454 -0.026215
v -0.143243 4.667239 -0.037074
v -0.168565 4.674024 -0.026215
v -0.179054 4.580880 -0.000000
v -0.168565 4.583690 0.026215
v -0.143243 4.590475 0.037074
v -0.117921 4.597260 0.026215
v -0.107432 4.600070 -0.000000
v -0.117921 4.597260 -0.026215
v -0.143243 4.590475 -0.037074
v -0.168565 4.583690 -0.026215
v -0.131077 4.497780 -0.000000
v -0.123398 4.505458 0.026215
v -0.104861 4.523995 0.037074
v -0.086324 4.542533 0.026215
v -0.078646 4.550211 -0.000000
v -0.086324 4.542533 -0.026215
v -0.104861 4.523995 -0.037074
v -0.123398 4.505458 -0.026215
v -0.041797 4.453465 -0.000017
v -0.020899 4.453465 0.036180
v -0.038382 4.485614 0.037074
v -0.031597 4.510936 0.026215
v -0.028786 4.521424 -0.000000
v -0.031597 4.510936 -0.026215
v -0.038382 4.485614 -0.037074
v -0.020899 4.453465 -0.036215
v 0.041797 4.453465 -0.000017
v 0.020899 4.453465 0.036180
v 0.038382 4.485614 0.037074
v 0.031597 4.510935 0.026215
v 0.028786 4.521424 -0.000000
v 0.031597 4.510935 -0.026215
v 0.038382 4.485614 -0.037074
v 0.020899 4.453465 -0.036215
v 0.131077 4.497780 -0.000000
v 0.123398 4.505458 0.026215
v 0.104861 4.523996 0.037074
v 0.086324 4.542533 0.026215
v 0.078646 4.550211 -0.000000
v 0.086324 4.542533 -0.026215
v 0.104861 4.523996 -0.037074
v 0.123398 4.505458 -0.026215
v -0.041858 4.422570 -0.000454
v -0.021166 4.422382 0.035933
v 0.041858 4.422567 0.000094
v 0.020692 4.422380 0.036207
v -0.020692 4.422757 -0.036566
v 0.021166 4.422756 -0.036292
vn 0.9291 -0.2135 -0.3019
vn 0.9511 0.0019 -0.3090
vn 0.9511 0.0019 0.3090
vn 0.9291 -0.2135 0.3019
vn -0.0000 -0.0028 -1.0000
vn -0.0000 0.0350 -0.9994
vn 0.5874 0.0350 -0.8085
vn 0.5878 -0.0028 -0.8090
vn -0.0000 0.1658 -0.9862
vn -0.0000 0.3723 -0.9281
vn 0.5455 0.3723 -0.7509
vn 0.5796 0.1658 -0.7978
vn -0.0000 0.8911 -0.4539
vn -0.0000 1.0000 -0.0000
vn 0.2668 0.8911 -0.3672
vn -0.0000 -0.2135 -0.9769
vn -0.0000 0.0019 -1.0000
vn 0.5878 0.0019 -0.8090
vn 0.5742 -0.2135 -0.7904
vn -0.0000 0.6469 -0.7626
vn 0.4482 0.6469 -0.6170
vn 0.8827 0.3723 -0.2868
vn 0.9379 0.1658 -0.3047
vn 0.4317 0.8911 -0.1403
vn -0.0000 -1.0000 -0.0000
vn -0.0000 -0.7629 -0.6465
vn 0.3800 -0.7629 -0.5230
vn 0.9511 -0.0028 -0.3090
vn 0.9505 0.0350 -0.3088
vn 0.7253 0.6469 -0.2357
vn 0.6149 -0.7629 -0.1998
vn 0.5878 0.0019 0.8090
vn 0.5742 -0.2135 0.7904
vn 0.9511 -0.0028 0.3090
vn 0.9379 0.1658 0.3047
vn 0.9505 0.0350 0.3088
vn 0.4317 0.8911 0.1403
vn 0.7253 0.6469 0.2357
vn 0.6149 -0.7629 0.1998
vn 0.8827 0.3723 0.2868
vn 0.2668 0.8911 0.3672
vn 0.4482 0.6469 0.6170
vn 0.3800 -0.7629 0.5230
vn 0.5874 0.0350 0.8085
vn 0.5878 -0.0028 0.8090
vn 0.5455 0.3723 0.7509
vn 0.5796 0.1658 0.7978
vn -0.0000 0.0019 1.0000
vn -0.0000 -0.2135 0.9769
vn -0.0000 -0.7629 0.6465
vn -0.0000 0.0350 0.9994
vn -0.0000 -0.0028 1.0000
vn -0.0000 0.3723 0.9281
vn -0.0000 0.1658 0.9862
vn -0.0000 0.8911 0.4539
vn -0.5878 0.0019 0.8090
vn -0.5742 -0.2135 0.7904
vn -0.0000 0.6469 0.7626
vn -0.2668 0.8911 0.3672
vn -0.9511 0.0019 0.3090
vn -0.9291 -0.2135 0.3019
vn -0.5878 -0.0028 0.8090
vn -0.5796 0.1658 0.7978
vn -0.5874 0.0350 0.8085
vn -0.4482 0.6469 0.6170
vn -0.3800 -0.7629 0.5230
vn -0.5455 0.3723 0.7509
vn -0.9511 -0.0028 0.3090
vn -0.9379 0.1658 0.3047
vn -0.9505 0.0350 0.3088
vn -0.4317 0.8911 0.1403
vn -0.7253 0.6469 0.2357
vn -0.6149 -0.7629 0.1998
vn -0.8827 0.3723 0.2868
vn -0.9511 0.0019 -0.3090
vn -0.9291 -0.2135 -0.3019
vn -0.6149 -0.7629 -0.1998
vn -0.9505 0.0350 -0.3088
vn -0.9511 -0.0028 -0.3090
vn -0.8827 0.3723 -0.2868
vn -0.9379 0.1658 -0.3047
vn -0.4317 0.8911 -0.1403
vn -0.5878 0.0019 -0.8090
vn -0.5742 -0.2135 -0.7904
vn -0.7253 0.6469 -0.2357
vn -0.5874 0.0350 -0.8085
vn -0.5878 -0.0028 -0.8090
vn -0.5455 0.3723 -0.7509
vn -0.5796 0.1658 -0.7978
vn -0.2668 0.8911 -0.3672
vn -0.4482 0.6469 -0.6170
vn -0.3800 -0.7629 -0.5230
vn 0.9783 -0.2071 -0.0000
vn 0.9783 0.2071 -0.0000
vn 0.7228 0.1699 0.6699
vn 0.7228 -0.1699 0.6699
vn 0.0928 0.0438 0.9947
vn 0.0928 -0.0438 0.9947
vn -0.6244 -0.1533 0.7659
vn -0.6244 0.1533 0.7659
vn -0.9706 -0.2408 -0.0000
vn -0.9706 0.2408 -0.0000
vn -0.6244 -0.1533 -0.7659
vn -0.6244 0.1533 -0.7659
vn 0.0928 0.0438 -0.9947
vn 0.0928 -0.0438 -0.9947
vn 0.7228 0.1699 -0.6699
vn 0.7228 -0.1699 -0.6699
vn 0.7545 0.6563 -0.0000
vn 0.5009 0.4577 0.7346
vn 0.0020 0.0548 0.9985
vn -0.4618 -0.4479 0.7656
vn -0.7143 -0.6999 -0.0000
vn -0.4618 -0.4479 -0.7656
vn 0.0020 0.0548 -0.9985
vn 0.5009 0.4577 -0.7346
vn 0.2845 0.9587 -0.0000
vn 0.1824 0.6258 0.7584
vn -0.0123 0.0308 0.9995
vn -0.1621 -0.6065 0.7783
vn -0.2595 -0.9658 -0.0000
vn -0.1621 -0.6065 -0.7783
vn -0.0123 0.0308 -0.9995
vn 0.1824 0.6258 -0.7584
vn -0.2845 0.9587 -0.0000
vn -0.1824 0.6258 0.7584
vn 0.0123 0.0308 0.9995
vn 0.1621 -0.6065 0.7783
vn 0.2595 -0.9658 -0.0000
vn 0.1621 -0.6065 -0.7783
vn 0.0123 0.0308 -0.9995
vn -0.1824 0.6258 -0.7584
vn -0.7545 0.6563 -0.0000
vn -0.5009 0.4577 0.7346
vn -0.0020 0.0548 0.9985
vn 0.4618 -0.4479 0.7656
vn 0.7143 -0.6999 -0.0000
vn 0.4618 -0.4479 -0.7656
vn -0.0020 0.0548 -0.9985
vn -0.5009 0.4577 -0.7346
vn -0.9783 0.2071 -0.0000
vn -0.7228 0.1699 0.6699
vn -0.0928 0.0438 0.9947
vn 0.6244 -0.1533 0.7659
vn 0.9706 -0.2408 -0.0000
vn 0.6244 -0.1533 -0.7659
vn -0.0928 0.0438 -0.9947
vn -0.7228 0.1699 -0.6699
vn -0.9783 -0.2071 -0.0000
vn -0.7228 -0.1699 0.6699
vn -0.0928 -0.0438 0.9947
vn 0.6244 0.1533 0.7659
vn 0.9706 0.2408 -0.0000
vn 0.6244 0.1533 -0.7659
vn -0.0928 -0.0438 -0.9947
vn -0.7228 -0.1699 -0.6699
vn -0.7454 -0.6666 -0.0000
vn -0.5002 -0.4569 0.7355
vn 0.0009 -0.0155 0.9999
vn 0.4618 0.4479 0.7656
vn 0.7143 0.6999 -0.0000
vn 0.4618 0.4479 -0.7656
vn 0.0009 -0.0153 -0.9999
vn -0.5002 -0.4568 -0.7356
vn -0.8873 -0.4613 0.0038
vn -0.2943 -0.1117 0.9492
vn -0.0258 0.0599 0.9979
vn 0.1621 0.6065 0.7783
vn 0.2595 0.9658 -0.0000
vn 0.1621 0.6065 -0.7783
vn -0.0258 0.0602 -0.9979
vn -0.2988 -0.1066 -0.9484
vn 0.8873 -0.4613 0.0006
vn 0.2965 -0.1117 0.9485
vn 0.4618 -0.3561 0.8124
vn 0.9358 -0.3526 0.0042
vn 0.0258 0.0599 0.9979
vn -0.1621 0.6065 0.7783
vn -0.2595 0.9658 -0.0000
vn -0.1621 0.6065 -0.7783
vn 0.0258 0.0602 -0.9979
vn 0.2965 -0.1066 -0.9491
vn -0.4594 -0.3490 -0.8168
vn -0.9357 -0.3525 -0.0127
vn 0.7454 -0.6666 -0.0000
vn 0.5002 -0.4569 0.7355
vn -0.0009 -0.0155 0.9999
vn -0.4618 0.4479 0.7656
vn -0.7143 0.6999 -0.0000
vn -0.4618 0.4479 -0.7656
vn -0.0009 -0.0153 -0.9999
vn 0.5002 -0.4568 -0.7356
vn 0.4740 -0.3490 -0.8084
vn -0.4763 -0.3561 0.8039
vt 0.500000 0.138159
vt 0.500000 0.250000
vt 0.400000 0.250000
vt 0.400000 0.138159
vt 0.700000 0.375000
vt 0.700000 0.500000
vt 0.600000 0.500000
vt 0.600000 0.375000
vt 0.700000 0.625000
vt 0.700000 0.750000
vt 0.600000 0.750000
vt 0.600000 0.625000
vt 0.700000 0.875000
vt 0.650000 1.000000
vt 0.600000 0.875000
vt 0.700000 0.138159
vt 0.700000 0.250000
vt 0.600000 0.250000
vt 0.600000 0.138159
vt 0.700000 0.847312
vt 0.600000 0.847312
vt 0.500000 0.750000
vt 0.500000 0.625000
vt 0.550000 1.000000
vt 0.500000 0.875000
vt 0.650000 0.000000
vt 0.698878 0.122196
vt 0.601122 0.122196
vt 0.500000 0.375000
vt 0.500000 0.500000
vt 0.500000 0.847312
vt 0.550000 0.000000
vt 0.598878 0.122196
vt 0.501122 0.122196
vt 0.300000 0.250000
vt 0.300000 0.138159
vt 0.400000 0.375000
vt 0.400000 0.625000
vt 0.400000 0.500000
vt 0.400000 0.875000
vt 0.400000 0.847312
vt 0.450000 0.000000
vt 0.498878 0.122196
vt 0.401122 0.122196
vt 0.400000 0.750000
vt 0.450000 1.000000
vt 0.300000 0.875000
vt 0.300000 0.847312
vt 0.350000 0.000000
vt 0.398878 0.122196
vt 0.301122 0.122196
vt 0.300000 0.500000
vt 0.300000 0.375000
vt 0.300000 0.750000
vt 0.300000 0.625000
vt 0.350000 1.000000
vt 0.300000 0.138159
vt 0.200000 0.250000
vt 0.200000 0.138159
vt 0.250000 0.000000
vt 0.298878 0.122196
vt 0.201122 0.122196
vt 0.200000 0.500000
vt 0.200000 0.375000
vt 0.200000 0.750000
vt 0.200000 0.625000
vt 0.250000 1.000000
vt 0.200000 0.875000
vt 0.100000 0.250000
vt 0.100000 0.138159
vt 0.200000 0.847312
vt 0.150000 1.000000
vt 0.100000 0.875000
vt 0.000000 0.250000
vt 0.000000 0.138159
vt 0.100000 0.375000
vt 0.100000 0.625000
vt 0.100000 0.500000
vt 0.100000 0.847312
vt 0.150000 0.000000
vt 0.198878 0.122196
vt 0.101122 0.122196
vt 0.100000 0.750000
vt 0.000000 0.375000
vt 0.000000 0.625000
vt 0.000000 0.500000
vt 0.000000 0.875000
vt 0.000000 0.847312
vt 0.050000 0.000000
vt 0.098878 0.122196
vt 0.001122 0.122196
vt 0.000000 0.750000
vt 0.050000 1.000000
vt 1.000000 0.138159
vt 1.000000 0.250000
vt 0.900000 0.250000
vt 0.900000 0.138159
vt 0.950000 0.000000
vt 0.998878 0.122196
vt 0.901122 0.122196
vt 1.000000 0.375000
vt 1.000000 0.500000
vt 0.900000 0.500000
vt 0.900000 0.375000
vt 1.000000 0.625000
vt 1.000000 0.750000
vt 0.900000 0.750000
vt 0.900000 0.625000
vt 1.000000 0.875000
vt 0.950000 1.000000
vt 0.900000 0.875000
vt 0.900000 0.138159
vt 0.800000 0.250000
vt 0.800000 0.138159
vt 1.000000 0.847312
vt 0.900000 0.847312
vt 0.800000 0.500000
vt 0.800000 0.375000
vt 0.800000 0.750000
vt 0.800000 0.625000
vt 0.850000 1.000000
vt 0.800000 0.875000
vt 0.800000 0.138159
vt 0.700000 0.138159
vt 0.800000 0.847312
vt 0.850000 0.000000
vt 0.898878 0.122196
vt 0.801122 0.122196
vt 0.750000 0.000000
vt 0.798878 0.122196
vt 0.701122 0.122196
vt 0.750000 1.000000
vt 0.600000 0.138159
vt 0.583333 0.500000
vt 0.583333 0.625000
vt 0.500000 0.625000
vt 0.583333 0.750000
vt 0.500000 0.750000
vt 0.583333 0.875000
vt 0.583333 1.000000
vt 0.500000 1.000000
vt 0.500000 0.000000
vt 0.583333 0.000000
vt 0.583333 0.125000
vt 0.500000 0.125000
vt 0.583333 0.250000
vt 0.583333 0.375000
vt 0.666667 0.500000
vt 0.666667 0.625000
vt 0.666667 0.750000
vt 0.666667 0.875000
vt 0.666667 1.000000
vt 0.666667 0.000000
vt 0.666667 0.125000
vt 0.666667 0.250000
vt 0.666667 0.375000
vt 0.750000 0.500000
vt 0.750000 0.625000
vt 0.750000 0.750000
vt 0.750000 0.875000
vt 0.750000 0.125000
vt 0.750000 0.250000
vt 0.750000 0.375000
vt 0.833333 0.500000
vt 0.833333 0.625000
vt 0.833333 0.750000
vt 0.833333 0.875000
vt 0.833333 1.000000
vt 0.833333 0.000000
vt 0.833333 0.125000
vt 0.833333 0.250000
vt 0.833333 0.375000
vt 0.916667 0.500000
vt 0.916667 0.625000
vt 0.916667 0.750000
vt 0.916667 0.875000
vt 0.916667 1.000000
vt 0.916667 0.000000
vt 0.916667 0.125000
vt 0.916667 0.250000
vt 0.916667 0.375000
vt 1.000000 0.500000
vt 1.000000 0.625000
vt 1.000000 0.750000
vt 1.000000 0.875000
vt 1.000000 1.000000
vt 1.000000 0.000000
vt 1.000000 0.125000
vt 1.000000 0.250000
vt 1.000000 0.375000
vt 0.000000 0.500000
vt 0.083333 0.500000
vt 0.083333 0.625000
vt 0.000000 0.625000
vt 0.083333 0.750000
vt 0.000000 0.750000
vt 0.083333 0.875000
vt 0.000000 0.875000
vt 0.083333 1.000000
vt 0.000000 1.000000
vt 0.000000 0.000000
vt 0.083333 0.000000
vt 0.083333 0.125000
vt 0.000000 0.125000
vt 0.083333 0.250000
vt 0.000000 0.250000
vt 0.083333 0.375000
vt 0.000000 0.375000
vt 0.166667 0.500000
vt 0.166667 0.625000
vt 0.166667 0.750000
vt 0.166667 0.875000
vt 0.166667 1.000000
vt 0.166667 0.000000
vt 0.166667 0.125000
vt 0.166667 0.250000
vt 0.166667 0.375000
vt 0.250000 0.500000
vt 0.250000 0.625000
vt 0.250000 0.750000
vt 0.250000 0.875000
vt 0.250000 0.125000
vt 0.250000 0.250000
vt 0.250000 0.375000
vt 0.333333 0.500000
vt 0.333333 0.625000
vt 0.333333 0.750000
vt 0.333333 0.875000
vt 0.333333 1.000000
vt 0.333333 0.000000
vt 0.333333 0.125000
vt 0.333333 0.250000
vt 0.333333 0.375000
vt 0.416667 0.500000
vt 0.416667 0.625000
vt 0.416667 0.750000
vt 0.416667 0.875000
vt 0.416667 1.000000
vt 0.416667 0.000000
vt 0.416667 0.125000
vt 0.416667 0.250000
vt 0.416667 0.375000
s 1
usemtl Material
f 59/9/9 1/10/10 3/11/11 4/12/12
f 58/13/13 51/14/14 2/15/15
f 60/6/6 59/9/9 4/12/12 5/7/7
f 72/20/20 58/13/13 2/15/15 63/21/21
f 4/12/12 3/11/11 9/22/22 10/23/23
f 2/15/15 51/24/14 8/25/24
f 5/7/7 4/12/12 10/23/23 11/30/29
f 63/21/21 2/15/15 8/25/24 64/31/30
f 11/30/29 10/23/23 16/38/35 17/39/36
f 64/31/30 8/25/24 14/40/37 65/41/38
f 10/23/23 9/22/22 15/45/40 16/38/35
f 8/25/24 51/46/14 14/40/37
f 65/41/38 14/40/37 20/47/41 66/48/42
f 16/38/35 15/45/40 21/54/46 22/55/47
f 14/40/37 51/56/14 20/47/41
f 17/39/36 16/38/35 22/55/47 23/52/44
f 22/55/47 21/54/46 27/65/53 28/66/54
f 20/47/41 51/67/14 26/68/55
f 23/52/44 22/55/47 28/66/54 29/63/51
f 66/48/42 20/47/41 26/68/55 67/71/58
f 26/68/55 51/72/14 32/73/59
f 29/63/51 28/66/54 34/77/63 35/78/64
f 67/71/58 26/68/55 32/73/59 68/79/65
f 28/66/54 27/65/53 33/83/67 34/77/63
f 35/78/64 34/77/63 40/85/69 41/86/70
f 68/79/65 32/73/59 38/87/71 69/88/72
f 34/77/63 33/83/67 39/92/74 40/85/69
f 32/73/59 51/93/14 38/87/71
f 40/105/69 39/106/74 46/107/80 47/108/81
f 38/109/71 51/110/14 45/111/82
f 41/102/70 40/105/69 47/108/81 48/103/78
f 69/115/72 38/109/71 45/111/82 70/116/85
f 47/108/81 46/107/80 53/119/88 54/120/89
f 45/111/82 51/121/14 52/122/90
f 48/103/78 47/108/81 54/120/89 55/117/86
f 70/116/85 45/111/82 52/122/90 71/125/91
f 55/117/86 54/120/89 59/9/9 60/6/6
f 71/125/91 52/122/90 58/13/13 72/20/20
f 54/120/89 53/119/88 1/10/10 59/9/9
f 52/122/90 51/132/14 58/13/13
f 53/119/88 71/125/91 72/20/20 1/10/10
f 46/107/80 70/116/85 71/125/91 53/119/88
f 39/106/74 69/115/72 70/116/85 46/107/80
f 33/83/67 68/79/65 69/88/72 39/92/74
f 27/65/53 67/71/58 68/79/65 33/83/67
f 21/54/46 66/48/42 67/71/58 27/65/53
f 15/45/40 65/41/38 66/48/42 21/54/46
f 9/22/22 64/31/30 65/41/38 15/45/40
f 3/11/11 63/21/21 64/31/30 9/22/22
f 1/10/10 72/20/20 63/21/21 3/11/11
usemtl Material.001
f 75/1/1 13/2/2 19/3/3 77/4/4
f 61/5/5 60/6/6 5/7/7 6/8/8
f 91/16/16 62/17/17 7/18/18 74/19/19
f 62/17/17 61/5/5 6/8/8 7/18/18
f 44/26/25 92/27/26 73/28/27
f 7/18/18 6/8/8 12/29/28 13/2/2
f 44/32/25 73/33/27 76/34/31
f 6/8/8 5/7/7 11/30/29 12/29/28
f 77/4/4 19/3/3 25/35/32 79/36/33
f 13/2/2 12/29/28 18/37/34 19/3/3
f 44/42/25 76/43/31 78/44/39
f 12/29/28 11/30/29 17/39/36 18/37/34
f 44/49/25 78/50/39 80/51/43
f 18/37/34 17/39/36 23/52/44 24/53/45
f 79/57/33 25/35/32 31/58/48 81/59/49
f 19/3/3 18/37/34 24/53/45 25/35/32
f 44/60/25 80/61/43 82/62/50
f 24/53/45 23/52/44 29/63/51 30/64/52
f 81/59/49 31/58/48 37/69/56 83/70/57
f 25/35/32 24/53/45 30/64/52 31/58/48
f 83/70/57 37/69/56 43/74/60 85/75/61
f 31/58/48 30/64/52 36/76/62 37/69/56
f 44/80/25 82/81/50 84/82/66
f 30/64/52 29/63/51 35/78/64 36/76/62
f 37/69/56 36/76/62 42/84/68 43/74/60
f 44/89/25 84/90/66 86/91/73
f 36/76/62 35/78/64 41/86/70 42/84/68
f 85/94/61 43/95/60 50/96/75 87/97/76
f 44/98/25 86/99/73 88/100/77
f 42/101/68 41/102/70 48/103/78 49/104/79
f 87/112/76 50/96/75 57/113/83 89/114/84
f 43/95/60 42/101/68 49/104/79 50/96/75
f 49/104/79 48/103/78 55/117/86 56/118/87
f 89/123/84 57/113/83 62/17/17 91/124/16
f 50/96/75 49/104/79 56/118/87 57/113/83
f 44/126/25 88/127/77 90/128/92
f 57/113/83 56/118/87 61/5/5 62/17/17
f 44/129/25 90/130/92 92/131/26
f 56/118/87 55/117/86 60/6/6 61/5/5
f 74/133/19 75/1/1 76/34/31 73/33/27
f 75/1/1 77/4/4 78/44/39 76/43/31
f 80/51/43 78/50/39 77/4/4 79/36/33
f 82/62/50 80/61/43 79/57/33 81/59/49
f 81/59/49 83/70/57 84/82/66 82/81/50
f 86/91/73 84/90/66 83/70/57 85/75/61
f 88/100/77 86/99/73 85/94/61 87/97/76
f 87/112/76 89/114/84 90/128/92 88/127/77
f 89/123/84 91/124/16 92/131/26 90/130/92
f 73/28/27 92/27/26 91/16/16 74/19/19
f 74/133/19 7/18/18 13/2/2 75/1/1
usemtl Material.002
f 93/30/93 101/134/94 102/135/95 94/136/96
f 94/136/96 102/135/95 103/137/97 95/138/98
f 95/138/98 103/137/97 104/139/99 96/25/100
f 96/25/100 104/139/99 105/140/101 97/141/102
f 97/142/102 105/143/101 106/144/103 98/145/104
f 98/145/104 106/144/103 107/146/105 99/2/106
f 99/2/106 107/146/105 108/147/107 100/29/108
f 100/29/108 108/147/107 101/134/94 93/30/93
f 101/134/94 109/148/109 110/149/110 102/135/95
f 102/135/95 110/149/110 111/150/111 103/137/97
f 103/137/97 111/150/111 112/151/112 104/139/99
f 104/139/99 112/151/112 113/152/113 105/140/101
f 105/143/101 113/153/113 114/154/114 106/144/103
f 106/144/103 114/154/114 115/155/115 107/146/105
f 107/146/105 115/155/115 116/156/116 108/147/107
f 108/147/107 116/156/116 109/148/109 101/134/94
f 109/148/109 117/157/117 118/158/118 110/149/110
f 110/149/110 118/158/118 119/159/119 111/150/111
f 111/150/111 119/159/119 120/160/120 112/151/112
f 112/151/112 120/160/120 121/132/121 113/152/113
f 113/153/113 121/129/121 122/161/122 114/154/114
f 114/154/114 122/161/122 123/162/123 115/155/115
f 115/155/115 123/162/123 124/163/124 116/156/116
f 116/156/116 124/163/124 117/157/117 109/148/109
f 117/157/117 125/164/125 126/165/126 118/158/118
f 118/158/118 126/165/126 127/166/127 119/159/119
f 119/159/119 127/166/127 128/167/128 120/160/120
f 120/160/120 128/167/128 129/168/129 121/132/121
f 121/129/121 129/169/129 130/170/130 122/161/122
f 122/161/122 130/170/130 131/171/131 123/162/123
f 123/162/123 131/171/131 132/172/132 124/163/124
f 124/163/124 132/172/132 125/164/125 117/157/117
f 125/164/125 133/173/133 134/174/134 126/165/126
f 126/165/126 134/174/134 135/175/135 127/166/127
f 127/166/127 135/175/135 136/176/136 128/167/128
f 128/167/128 136/176/136 137/177/137 129/168/129
f 129/169/129 137/178/137 138/179/138 130/170/130
f 130/170/130 138/179/138 139/180/139 131/171/131
f 131/171/131 139/180/139 140/181/140 132/172/132
f 132/172/132 140/181/140 133/173/133 125/164/125
f 133/173/133 141/182/141 142/183/142 134/174/134
f 134/174/134 142/183/142 143/184/143 135/175/135
f 135/175/135 143/184/143 144/185/144 136/176/136
f 136/176/136 144/185/144 145/186/145 137/177/137
f 137/178/137 145/187/145 146/188/146 138/179/138
f 138/179/138 146/188/146 147/189/147 139/180/139
f 139/180/139 147/189/147 148/190/148 140/181/140
f 140/181/140 148/190/148 141/182/141 133/173/133
f 141/191/141 149/192/149 150/193/150 142/194/142
f 142/194/142 150/193/150 151/195/151 143/196/143
f 143/196/143 151/195/151 152/197/152 144/198/144
f 144/198/144 152/197/152 153/199/153 145/200/145
f 145/201/145 153/202/153 154/203/154 146/204/146
f 146/204/146 154/203/154 155/205/155 147/206/147
f 147/206/147 155/205/155 156/207/156 148/208/148
f 148/208/148 156/207/156 149/192/149 141/191/141
f 149/192/149 157/209/157 158/210/158 150/193/150
f 150/193/150 158/210/158 159/211/159 151/195/151
f 151/195/151 159/211/159 160/212/160 152/197/152
f 152/197/152 160/212/160 161/213/161 153/199/153
f 153/202/153 161/214/161 162/215/162 154/203/154
f 154/203/154 162/215/162 163/216/163 155/205/155
f 155/205/155 163/216/163 164/217/164 156/207/156
f 156/207/156 164/217/164 157/209/157 149/192/149
f 157/209/157 165/218/165 166/219/166 158/210/158
f 158/210/158 166/219/166 167/220/167 159/211/159
f 159/211/159 167/220/167 168/221/168 160/212/160
f 160/212/160 168/221/168 169/67/169 161/213/161
f 161/214/161 169/60/169 170/222/170 162/215/162
f 162/215/162 170/222/170 171/223/171 163/216/163
f 163/216/163 171/223/171 172/224/172 164/217/164
f 164/217/164 172/224/172 165/218/165 157/209/157
f 173/225/173 174/226/174 192/226/175 191/225/176
f 166/219/166 174/226/174 175/227/177 167/220/167
f 167/220/167 175/227/177 176/228/178 168/221/168
f 168/221/168 176/228/178 177/229/179 169/67/169
f 169/60/169 177/230/179 178/231/180 170/222/170
f 170/222/170 178/231/180 179/232/181 171/223/171
f 171/223/171 179/232/181 180/233/182 172/224/172
f 165/218/165 172/224/172 193/224/183 189/218/184
f 173/225/173 181/234/185 182/235/186 174/226/174
f 174/226/174 182/235/186 183/236/187 175/227/177
f 175/227/177 183/236/187 184/237/188 176/228/178
f 176/228/178 184/237/188 185/238/189 177/229/179
f 177/230/179 185/239/189 186/240/190 178/231/180
f 178/231/180 186/240/190 187/241/191 179/232/181
f 179/232/181 187/241/191 188/242/192 180/233/182
f 180/233/182 188/242/192 181/234/185 173/225/173
f 181/234/185 93/30/93 94/136/96 182/235/186
f 182/235/186 94/136/96 95/138/98 183/236/187
f 183/236/187 95/138/98 96/25/100 184/237/188
f 184/237/188 96/25/100 97/141/102 185/238/189
f 185/239/189 97/142/102 98/145/104 186/240/190
f 186/240/190 98/145/104 99/2/106 187/241/191
f 187/241/191 99/2/106 100/29/108 188/242/192
f 188/242/192 100/29/108 93/30/93 181/234/185
f 172/224/172 180/233/182 194/233/193 193/224/183
f 166/219/166 165/218/165 189/218/184 190/219/194
f 174/226/174 166/219/166 190/219/194 192/226/175
f 180/233/182 173/225/173 191/225/176 194/233/193
f 193/224/183 194/233/193 191/225/176 192/226/175 190/219/194 189/218/184
