<svg xmlns="http://www.w3.org/2000/svg" xmlns:xlink="http://www.w3.org/1999/xlink" contentStyleType="text/css" data-diagram-type="CLASS" height="1538px" preserveAspectRatio="none" style="width:2266px;height:1538px;background:#FFFFFF;" version="1.1" viewBox="0 0 2266 1538" width="2266px" zoomAndPan="magnify"><title>Vessel Visit Notification Domain (DDD)</title><defs/><g><text fill="#000000" font-family="sans-serif" font-size="14" font-weight="bold" lengthAdjust="spacing" textLength="257.4824" x="997.2588" y="24.5332">Vessel Visit Notification Domain (DDD)</text><!--cluster Vessel Visit Notification--><g class="cluster" data-entity="Vessel Visit Notification" data-source-line="4" data-uid="ent0002" id="cluster_Vessel Visit Notification"><rect fill="#E6E6FA" height="1267" rx="2.5" ry="2.5" style="stroke:#181818;stroke-width:1;" width="2037" x="7" y="265.6094"/><text fill="#000000" font-family="sans-serif" font-size="20" font-weight="bold" lengthAdjust="spacing" textLength="226.7285" x="912.1357" y="288.3711">Vessel Visit Notification</text></g><!--cluster Vessel--><g class="cluster" data-entity="Vessel" data-source-line="94" data-uid="ent0022" id="cluster_Vessel"><rect fill="none" height="187" rx="2.5" ry="2.5" style="stroke:#181818;stroke-width:1;" width="192" x="2068" y="491.1094"/><text fill="#000000" font-family="sans-serif" font-size="20" font-weight="bold" lengthAdjust="spacing" textLength="63.3887" x="2132.3057" y="513.8711">Vessel</text></g><!--cluster Shipping Agent Organization Representative--><g class="cluster" data-entity="Shipping Agent Organization Representative" data-source-line="101" data-uid="ent0024" id="cluster_Shipping Agent Organization Representative"><rect fill="none" height="161" rx="2.5" ry="2.5" style="stroke:#181818;stroke-width:1;" width="440" x="886" y="45.6094"/><text fill="#000000" font-family="sans-serif" font-size="20" font-weight="bold" lengthAdjust="spacing" textLength="424.4922" x="893.7539" y="68.3711">Shipping Agent Organization Representative</text></g><!--class vvn--><g class="entity" data-entity="vvn" data-source-line="5" data-uid="ent0003" id="entity_vvn"><rect fill="#F1F1F1" height="101.4688" rx="2.5" ry="2.5" style="stroke:#181818;stroke-width:0.5;" width="232.7285" x="989.5" y="309.6094"/><text fill="#000000" font-family="sans-serif" font-size="20" font-style="italic" lengthAdjust="spacing" textLength="156.7871" x="1027.4707" y="335.3711">&#171;AggregateRoot&#187;</text><text fill="#000000" font-family="sans-serif" font-size="20" font-style="italic" lengthAdjust="spacing" textLength="72.2656" x="1069.7314" y="360.5273">&#171;Entity&#187;</text><text fill="#000000" font-family="sans-serif" font-size="20" font-weight="bold" lengthAdjust="spacing" textLength="226.7285" x="992.5" y="385.6836">Vessel Visit Notification</text><line style="stroke:#181818;stroke-width:0.5;" x1="990.5" x2="1221.2285" y1="395.0781" y2="395.0781"/><line style="stroke:#181818;stroke-width:0.5;" x1="990.5" x2="1221.2285" y1="403.0781" y2="403.0781"/></g><!--class vvn_expected_time--><g class="entity" data-entity="vvn_expected_time" data-source-line="7" data-uid="ent0004" id="entity_vvn_expected_time"><rect fill="#F1F1F1" height="126.625" rx="2.5" ry="2.5" style="stroke:#181818;stroke-width:0.5;" width="139.3887" x="23.5" y="535.1094"/><text fill="#000000" font-family="sans-serif" font-size="20" font-style="italic" lengthAdjust="spacing" textLength="73.3984" x="56.4951" y="560.8711">&#171;Value&#187;</text><text fill="#000000" font-family="sans-serif" font-size="20" lengthAdjust="spacing" textLength="133.3887" x="26.5" y="586.0273">Expected Time</text><line style="stroke:#181818;stroke-width:0.5;" x1="24.5" x2="161.8887" y1="595.4219" y2="595.4219"/><ellipse cx="34.5" cy="613.5" fill="none" rx="3" ry="3" style="stroke:#038048;stroke-width:1;"/><text fill="#000000" font-family="sans-serif" font-size="20" lengthAdjust="spacing" textLength="38.8965" x="44.5" y="620.1836">ETA</text><ellipse cx="34.5" cy="638.6563" fill="none" rx="3" ry="3" style="stroke:#038048;stroke-width:1;"/><text fill="#000000" font-family="sans-serif" font-size="20" lengthAdjust="spacing" textLength="40" x="44.5" y="645.3398">ETD</text><line style="stroke:#181818;stroke-width:0.5;" x1="24.5" x2="161.8887" y1="653.7344" y2="653.7344"/></g><!--class vvn_special_req--><g class="entity" data-entity="vvn_special_req" data-source-line="11" data-uid="ent0005" id="entity_vvn_special_req"><rect fill="#F1F1F1" height="101.4688" rx="2.5" ry="2.5" style="stroke:#181818;stroke-width:0.5;" width="213.7578" x="198" y="548.1094"/><text fill="#000000" font-family="sans-serif" font-size="20" font-style="italic" lengthAdjust="spacing" textLength="73.3984" x="268.1797" y="573.8711">&#171;Value&#187;</text><text fill="#000000" font-family="sans-serif" font-size="20" lengthAdjust="spacing" textLength="195.6543" x="207.0518" y="599.0273">Special Requirements</text><line style="stroke:#181818;stroke-width:0.5;" x1="199" x2="410.7578" y1="608.4219" y2="608.4219"/><ellipse cx="209" cy="626.5" fill="none" rx="3" ry="3" style="stroke:#038048;stroke-width:1;"/><text fill="#000000" font-family="sans-serif" font-size="20" lengthAdjust="spacing" textLength="186.7578" x="219" y="633.1836">specialRequirements</text><line style="stroke:#181818;stroke-width:0.5;" x1="199" x2="410.7578" y1="641.5781" y2="641.5781"/></g><!--class vvn_crew--><g class="entity" data-entity="vvn_crew" data-source-line="14" data-uid="ent0006" id="entity_vvn_crew"><rect fill="#F1F1F1" height="126.625" rx="2.5" ry="2.5" style="stroke:#181818;stroke-width:0.5;" width="194.8223" x="447.5" y="535.1094"/><text fill="#000000" font-family="sans-serif" font-size="20" font-style="italic" lengthAdjust="spacing" textLength="73.3984" x="508.2119" y="560.8711">&#171;Value&#187;</text><text fill="#000000" font-family="sans-serif" font-size="20" lengthAdjust="spacing" textLength="46.6699" x="521.5762" y="586.0273">Crew</text><line style="stroke:#181818;stroke-width:0.5;" x1="448.5" x2="641.3223" y1="595.4219" y2="595.4219"/><ellipse cx="458.5" cy="613.5" fill="none" rx="3" ry="3" style="stroke:#038048;stroke-width:1;"/><text fill="#000000" font-family="sans-serif" font-size="20" lengthAdjust="spacing" textLength="64.4922" x="468.5" y="620.1836">captain</text><ellipse cx="458.5" cy="638.6563" fill="none" rx="3" ry="3" style="stroke:#038048;stroke-width:1;"/><text fill="#000000" font-family="sans-serif" font-size="20" lengthAdjust="spacing" textLength="167.8223" x="468.5" y="645.3398">totalCrewMembers</text><line style="stroke:#181818;stroke-width:0.5;" x1="448.5" x2="641.3223" y1="653.7344" y2="653.7344"/></g><!--class vvn_haz_cargo--><g class="entity" data-entity="vvn_haz_cargo" data-source-line="18" data-uid="ent0007" id="entity_vvn_haz_cargo"><rect fill="#F1F1F1" height="101.4688" rx="2.5" ry="2.5" style="stroke:#181818;stroke-width:0.5;" width="192.6348" x="677.5" y="548.1094"/><text fill="#000000" font-family="sans-serif" font-size="20" font-style="italic" lengthAdjust="spacing" textLength="73.3984" x="737.1182" y="573.8711">&#171;Value&#187;</text><text fill="#000000" font-family="sans-serif" font-size="20" lengthAdjust="spacing" textLength="156.748" x="695.4434" y="599.0273">Hazardous Cargo</text><line style="stroke:#181818;stroke-width:0.5;" x1="678.5" x2="869.1348" y1="608.4219" y2="608.4219"/><ellipse cx="688.5" cy="626.5" fill="none" rx="3" ry="3" style="stroke:#038048;stroke-width:1;"/><text fill="#000000" font-family="sans-serif" font-size="20" lengthAdjust="spacing" textLength="165.6348" x="698.5" y="633.1836">isCargoHazardous</text><line style="stroke:#181818;stroke-width:0.5;" x1="678.5" x2="869.1348" y1="641.5781" y2="641.5781"/></g><!--class vvn_decision--><g class="entity" data-entity="vvn_decision" data-source-line="21" data-uid="ent0008" id="entity_vvn_decision"><rect fill="#F1F1F1" height="202.0938" rx="2.5" ry="2.5" style="stroke:#181818;stroke-width:0.5;" width="187.1914" x="905.5" y="497.6094"/><text fill="#000000" font-family="sans-serif" font-size="20" font-style="italic" lengthAdjust="spacing" textLength="73.3984" x="962.3965" y="523.3711">&#171;Value&#187;</text><text fill="#000000" font-family="sans-serif" font-size="20" lengthAdjust="spacing" textLength="181.1914" x="908.5" y="548.5273">Notification Decision</text><line style="stroke:#181818;stroke-width:0.5;" x1="906.5" x2="1091.6914" y1="557.9219" y2="557.9219"/><ellipse cx="916.5" cy="576" fill="none" rx="3" ry="3" style="stroke:#038048;stroke-width:1;"/><text fill="#000000" font-family="sans-serif" font-size="20" lengthAdjust="spacing" textLength="53.3594" x="926.5" y="582.6836">status</text><ellipse cx="916.5" cy="601.1563" fill="none" rx="3" ry="3" style="stroke:#038048;stroke-width:1;"/><text fill="#000000" font-family="sans-serif" font-size="20" lengthAdjust="spacing" textLength="92.2461" x="926.5" y="607.8398">timestamp</text><ellipse cx="916.5" cy="626.3125" fill="none" rx="3" ry="3" style="stroke:#038048;stroke-width:1;"/><text fill="#000000" font-family="sans-serif" font-size="20" lengthAdjust="spacing" textLength="61.1523" x="926.5" y="632.9961">reason</text><ellipse cx="916.5" cy="651.4688" fill="none" rx="3" ry="3" style="stroke:#038048;stroke-width:1;"/><text fill="#000000" font-family="sans-serif" font-size="20" lengthAdjust="spacing" textLength="125.625" x="926.5" y="658.1523">assignedDock</text><ellipse cx="916.5" cy="676.625" fill="none" rx="3" ry="3" style="stroke:#038048;stroke-width:1;"/><text fill="#000000" font-family="sans-serif" font-size="20" lengthAdjust="spacing" textLength="74.4629" x="926.5" y="683.3086">officerID</text><line style="stroke:#181818;stroke-width:0.5;" x1="906.5" x2="1091.6914" y1="691.7031" y2="691.7031"/></g><!--class vvn_notif_status--><g class="entity" data-entity="vvn_notif_status" data-source-line="28" data-uid="ent0009" id="entity_vvn_notif_status"><rect fill="#F1F1F1" height="101.4688" rx="2.5" ry="2.5" style="stroke:#181818;stroke-width:0.5;" width="167.1914" x="915.5" y="824.6094"/><text fill="#000000" font-family="sans-serif" font-size="20" lengthAdjust="spacing" textLength="161.1914" x="918.5" y="850.3711">Notification Status</text><line style="stroke:#181818;stroke-width:0.5;" x1="916.5" x2="1081.6914" y1="859.7656" y2="859.7656"/><text fill="#000000" font-family="sans-serif" font-size="20" lengthAdjust="spacing" textLength="111.1426" x="921.5" y="884.5273">APPROVED</text><text fill="#000000" font-family="sans-serif" font-size="20" lengthAdjust="spacing" textLength="105.5664" x="921.5" y="909.6836">REJECTED</text><line style="stroke:#181818;stroke-width:0.5;" x1="916.5" x2="1081.6914" y1="918.0781" y2="918.0781"/></g><!--class vvn_state--><g class="entity" data-entity="vvn_state" data-source-line="32" data-uid="ent0010" id="entity_vvn_state"><rect fill="#F1F1F1" height="126.625" rx="2.5" ry="2.5" style="stroke:#181818;stroke-width:0.5;" width="210.9258" x="1127.5" y="535.1094"/><text fill="#000000" font-family="sans-serif" font-size="20" lengthAdjust="spacing" textLength="151.1914" x="1157.3672" y="560.8711">Notification State</text><line style="stroke:#181818;stroke-width:0.5;" x1="1128.5" x2="1337.4258" y1="570.2656" y2="570.2656"/><text fill="#000000" font-family="sans-serif" font-size="20" lengthAdjust="spacing" textLength="144.4824" x="1133.5" y="595.0273">IN_PROGRESS</text><text fill="#000000" font-family="sans-serif" font-size="20" lengthAdjust="spacing" textLength="198.9258" x="1133.5" y="620.1836">DECISION_PENDING</text><text fill="#000000" font-family="sans-serif" font-size="20" lengthAdjust="spacing" textLength="90.0098" x="1133.5" y="645.3398">DECIDED</text><line style="stroke:#181818;stroke-width:0.5;" x1="1128.5" x2="1337.4258" y1="653.7344" y2="653.7344"/></g><!--class vvn_berth--><g class="entity" data-entity="vvn_berth" data-source-line="37" data-uid="ent0011" id="entity_vvn_berth"><rect fill="#F1F1F1" height="151.7813" rx="2.5" ry="2.5" style="stroke:#181818;stroke-width:0.5;" width="147.0781" x="1334.5" y="799.1094"/><text fill="#000000" font-family="sans-serif" font-size="20" font-style="italic" lengthAdjust="spacing" textLength="72.2656" x="1371.9063" y="824.8711">&#171;Entity&#187;</text><text fill="#000000" font-family="sans-serif" font-size="20" lengthAdjust="spacing" textLength="113.3887" x="1351.3447" y="850.0273">Vessel Berth</text><line style="stroke:#181818;stroke-width:0.5;" x1="1335.5" x2="1480.5781" y1="859.4219" y2="859.4219"/><ellipse cx="1345.5" cy="877.5" fill="none" rx="3" ry="3" style="stroke:#038048;stroke-width:1;"/><text fill="#000000" font-family="sans-serif" font-size="20" lengthAdjust="spacing" textLength="42.2461" x="1355.5" y="884.1836">dock</text><ellipse cx="1345.5" cy="902.6563" fill="none" rx="3" ry="3" style="stroke:#038048;stroke-width:1;"/><text fill="#000000" font-family="sans-serif" font-size="20" lengthAdjust="spacing" textLength="120.0781" x="1355.5" y="909.3398">taskSchedule</text><ellipse cx="1345.5" cy="927.8125" fill="none" rx="3" ry="3" style="stroke:#038048;stroke-width:1;"/><text fill="#000000" font-family="sans-serif" font-size="20" lengthAdjust="spacing" textLength="53.3594" x="1355.5" y="934.4961">status</text><line style="stroke:#181818;stroke-width:0.5;" x1="1335.5" x2="1480.5781" y1="942.8906" y2="942.8906"/></g><!--class vvn_op_task--><g class="entity" data-entity="vvn_op_task" data-source-line="42" data-uid="ent0012" id="entity_vvn_op_task"><rect fill="#F1F1F1" height="176.9375" rx="2.5" ry="2.5" style="stroke:#181818;stroke-width:0.5;" width="187.0879" x="1200.5" y="1050.6094"/><text fill="#000000" font-family="sans-serif" font-size="20" font-style="italic" lengthAdjust="spacing" textLength="72.2656" x="1257.9111" y="1076.3711">&#171;Entity&#187;</text><text fill="#000000" font-family="sans-serif" font-size="20" lengthAdjust="spacing" textLength="152.2949" x="1217.8965" y="1101.5273">Operational Task</text><line style="stroke:#181818;stroke-width:0.5;" x1="1201.5" x2="1386.5879" y1="1110.9219" y2="1110.9219"/><ellipse cx="1211.5" cy="1129" fill="none" rx="3" ry="3" style="stroke:#038048;stroke-width:1;"/><text fill="#000000" font-family="sans-serif" font-size="20" lengthAdjust="spacing" textLength="81.1426" x="1221.5" y="1135.6836">taskType</text><ellipse cx="1211.5" cy="1154.1563" fill="none" rx="3" ry="3" style="stroke:#038048;stroke-width:1;"/><text fill="#000000" font-family="sans-serif" font-size="20" lengthAdjust="spacing" textLength="160.0879" x="1221.5" y="1160.8398">resourceAllocated</text><ellipse cx="1211.5" cy="1179.3125" fill="none" rx="3" ry="3" style="stroke:#038048;stroke-width:1;"/><text fill="#000000" font-family="sans-serif" font-size="20" lengthAdjust="spacing" textLength="120.0684" x="1221.5" y="1185.9961">staffAllocated</text><ellipse cx="1211.5" cy="1204.4688" fill="none" rx="3" ry="3" style="stroke:#038048;stroke-width:1;"/><text fill="#000000" font-family="sans-serif" font-size="20" lengthAdjust="spacing" textLength="113.3984" x="1221.5" y="1211.1523">observations</text><line style="stroke:#181818;stroke-width:0.5;" x1="1201.5" x2="1386.5879" y1="1219.5469" y2="1219.5469"/></g><!--class vvn_task_type--><g class="entity" data-entity="vvn_task_type" data-source-line="48" data-uid="ent0013" id="entity_vvn_task_type"><rect fill="#F1F1F1" height="151.7813" rx="2.5" ry="2.5" style="stroke:#181818;stroke-width:0.5;" width="130.9063" x="1228.5" y="1339.6094"/><text fill="#000000" font-family="sans-serif" font-size="20" lengthAdjust="spacing" textLength="93.3594" x="1247.2734" y="1365.3711">Task Type</text><line style="stroke:#181818;stroke-width:0.5;" x1="1229.5" x2="1358.4063" y1="1374.7656" y2="1374.7656"/><text fill="#000000" font-family="sans-serif" font-size="20" lengthAdjust="spacing" textLength="90.0195" x="1234.5" y="1399.5273">LOADING</text><text fill="#000000" font-family="sans-serif" font-size="20" lengthAdjust="spacing" textLength="118.9063" x="1234.5" y="1424.6836">UNLOADING</text><text fill="#000000" font-family="sans-serif" font-size="20" lengthAdjust="spacing" textLength="81.1133" x="1234.5" y="1449.8398">MOVING</text><text fill="#000000" font-family="sans-serif" font-size="20" lengthAdjust="spacing" textLength="70" x="1234.5" y="1474.9961">OTHER</text><line style="stroke:#181818;stroke-width:0.5;" x1="1229.5" x2="1358.4063" y1="1483.3906" y2="1483.3906"/></g><!--class vvn_op_status--><g class="entity" data-entity="vvn_op_status" data-source-line="54" data-uid="ent0014" id="entity_vvn_op_status"><rect fill="#F1F1F1" height="151.7813" rx="2.5" ry="2.5" style="stroke:#181818;stroke-width:0.5;" width="156.0879" x="1423" y="1063.1094"/><text fill="#000000" font-family="sans-serif" font-size="20" lengthAdjust="spacing" textLength="150.0879" x="1426" y="1088.8711">Operation Status</text><line style="stroke:#181818;stroke-width:0.5;" x1="1424" x2="1578.0879" y1="1098.2656" y2="1098.2656"/><text fill="#000000" font-family="sans-serif" font-size="20" lengthAdjust="spacing" textLength="123.3594" x="1429" y="1123.0273">SCHEDULED</text><text fill="#000000" font-family="sans-serif" font-size="20" lengthAdjust="spacing" textLength="93.3398" x="1429" y="1148.1836">FINISHED</text><text fill="#000000" font-family="sans-serif" font-size="20" lengthAdjust="spacing" textLength="70.0195" x="1429" y="1173.3398">FAILED</text><text fill="#000000" font-family="sans-serif" font-size="20" lengthAdjust="spacing" textLength="120.0391" x="1429" y="1198.4961">CANCELLED</text><line style="stroke:#181818;stroke-width:0.5;" x1="1424" x2="1578.0879" y1="1206.8906" y2="1206.8906"/></g><!--class vvn_safety_officer--><g class="entity" data-entity="vvn_safety_officer" data-source-line="60" data-uid="ent0015" id="entity_vvn_safety_officer"><rect fill="#F1F1F1" height="151.7813" rx="2.5" ry="2.5" style="stroke:#181818;stroke-width:0.5;" width="127.1523" x="481.5" y="799.1094"/><text fill="#000000" font-family="sans-serif" font-size="20" font-style="italic" lengthAdjust="spacing" textLength="73.3984" x="508.377" y="824.8711">&#171;Value&#187;</text><text fill="#000000" font-family="sans-serif" font-size="20" lengthAdjust="spacing" textLength="121.1523" x="484.5" y="850.0273">Safety Officer</text><line style="stroke:#181818;stroke-width:0.5;" x1="482.5" x2="607.6523" y1="859.4219" y2="859.4219"/><ellipse cx="492.5" cy="877.5" fill="none" rx="3" ry="3" style="stroke:#038048;stroke-width:1;"/><text fill="#000000" font-family="sans-serif" font-size="20" lengthAdjust="spacing" textLength="76.6895" x="502.5" y="884.1836">citizenID</text><ellipse cx="492.5" cy="902.6563" fill="none" rx="3" ry="3" style="stroke:#038048;stroke-width:1;"/><text fill="#000000" font-family="sans-serif" font-size="20" lengthAdjust="spacing" textLength="50.0293" x="502.5" y="909.3398">name</text><ellipse cx="492.5" cy="927.8125" fill="none" rx="3" ry="3" style="stroke:#038048;stroke-width:1;"/><text fill="#000000" font-family="sans-serif" font-size="20" lengthAdjust="spacing" textLength="90.0586" x="502.5" y="934.4961">nationality</text><line style="stroke:#181818;stroke-width:0.5;" x1="482.5" x2="607.6523" y1="942.8906" y2="942.8906"/></g><!--class vvn_lcm--><g class="entity" data-entity="vvn_lcm" data-source-line="65" data-uid="ent0016" id="entity_vvn_lcm"><rect fill="#F1F1F1" height="76.3125" rx="2.5" ry="2.5" style="stroke:#181818;stroke-width:0.5;" width="191.6641" x="1589" y="560.6094"/><text fill="#000000" font-family="sans-serif" font-size="20" font-style="italic" lengthAdjust="spacing" textLength="73.3984" x="1648.1328" y="586.3711">&#171;Value&#187;</text><text fill="#000000" font-family="sans-serif" font-size="20" lengthAdjust="spacing" textLength="185.6641" x="1592" y="611.5273">Load Cargo Manifest</text><line style="stroke:#181818;stroke-width:0.5;" x1="1590" x2="1779.6641" y1="620.9219" y2="620.9219"/><line style="stroke:#181818;stroke-width:0.5;" x1="1590" x2="1779.6641" y1="628.9219" y2="628.9219"/></g><!--class vvn_ucm--><g class="entity" data-entity="vvn_ucm" data-source-line="66" data-uid="ent0017" id="entity_vvn_ucm"><rect fill="#F1F1F1" height="76.3125" rx="2.5" ry="2.5" style="stroke:#181818;stroke-width:0.5;" width="210.5508" x="1816.5" y="560.6094"/><text fill="#000000" font-family="sans-serif" font-size="20" font-style="italic" lengthAdjust="spacing" textLength="73.3984" x="1885.0762" y="586.3711">&#171;Value&#187;</text><text fill="#000000" font-family="sans-serif" font-size="20" lengthAdjust="spacing" textLength="204.5508" x="1819.5" y="611.5273">Unload Cargo Manifest</text><line style="stroke:#181818;stroke-width:0.5;" x1="1817.5" x2="2026.0508" y1="620.9219" y2="620.9219"/><line style="stroke:#181818;stroke-width:0.5;" x1="1817.5" x2="2026.0508" y1="628.9219" y2="628.9219"/></g><!--class vvn_cargo_load--><g class="entity" data-entity="vvn_cargo_load" data-source-line="67" data-uid="ent0018" id="entity_vvn_cargo_load"><rect fill="#F1F1F1" height="176.9375" rx="2.5" ry="2.5" style="stroke:#181818;stroke-width:0.5;" width="155.9355" x="1615" y="786.6094"/><text fill="#000000" font-family="sans-serif" font-size="20" font-style="italic" lengthAdjust="spacing" textLength="73.3984" x="1656.2686" y="812.3711">&#171;Value&#187;</text><text fill="#000000" font-family="sans-serif" font-size="20" lengthAdjust="spacing" textLength="104.5215" x="1640.707" y="837.5273">Cargo Load</text><line style="stroke:#181818;stroke-width:0.5;" x1="1616" x2="1769.9355" y1="846.9219" y2="846.9219"/><ellipse cx="1626" cy="865" fill="none" rx="3" ry="3" style="stroke:#038048;stroke-width:1;"/><text fill="#000000" font-family="sans-serif" font-size="20" lengthAdjust="spacing" textLength="48.916" x="1636" y="871.6836">origin</text><ellipse cx="1626" cy="890.1563" fill="none" rx="3" ry="3" style="stroke:#038048;stroke-width:1;"/><text fill="#000000" font-family="sans-serif" font-size="20" lengthAdjust="spacing" textLength="128.9355" x="1636" y="896.8398">numberOfRow</text><ellipse cx="1626" cy="915.3125" fill="none" rx="3" ry="3" style="stroke:#038048;stroke-width:1;"/><text fill="#000000" font-family="sans-serif" font-size="20" lengthAdjust="spacing" textLength="123.3887" x="1636" y="921.9961">numberOfBay</text><ellipse cx="1626" cy="940.4688" fill="none" rx="3" ry="3" style="stroke:#038048;stroke-width:1;"/><text fill="#000000" font-family="sans-serif" font-size="20" lengthAdjust="spacing" textLength="123.3691" x="1636" y="947.1523">numberOfTier</text><line style="stroke:#181818;stroke-width:0.5;" x1="1616" x2="1769.9355" y1="955.5469" y2="955.5469"/></g><!--class vvn_cargo_unload--><g class="entity" data-entity="vvn_cargo_unload" data-source-line="73" data-uid="ent0019" id="entity_vvn_cargo_unload"><rect fill="#F1F1F1" height="176.9375" rx="2.5" ry="2.5" style="stroke:#181818;stroke-width:0.5;" width="155.9355" x="1827" y="786.6094"/><text fill="#000000" font-family="sans-serif" font-size="20" font-style="italic" lengthAdjust="spacing" textLength="73.3984" x="1868.2686" y="812.3711">&#171;Value&#187;</text><text fill="#000000" font-family="sans-serif" font-size="20" lengthAdjust="spacing" textLength="123.4082" x="1843.2637" y="837.5273">Cargo Unload</text><line style="stroke:#181818;stroke-width:0.5;" x1="1828" x2="1981.9355" y1="846.9219" y2="846.9219"/><ellipse cx="1838" cy="865" fill="none" rx="3" ry="3" style="stroke:#038048;stroke-width:1;"/><text fill="#000000" font-family="sans-serif" font-size="20" lengthAdjust="spacing" textLength="128.9355" x="1848" y="871.6836">numberOfRow</text><ellipse cx="1838" cy="890.1563" fill="none" rx="3" ry="3" style="stroke:#038048;stroke-width:1;"/><text fill="#000000" font-family="sans-serif" font-size="20" lengthAdjust="spacing" textLength="123.3887" x="1848" y="896.8398">numberOfBay</text><ellipse cx="1838" cy="915.3125" fill="none" rx="3" ry="3" style="stroke:#038048;stroke-width:1;"/><text fill="#000000" font-family="sans-serif" font-size="20" lengthAdjust="spacing" textLength="123.3691" x="1848" y="921.9961">numberOfTier</text><ellipse cx="1838" cy="940.4688" fill="none" rx="3" ry="3" style="stroke:#038048;stroke-width:1;"/><text fill="#000000" font-family="sans-serif" font-size="20" lengthAdjust="spacing" textLength="96.7383" x="1848" y="947.1523">destination</text><line style="stroke:#181818;stroke-width:0.5;" x1="1828" x2="1981.9355" y1="955.5469" y2="955.5469"/></g><!--class vvn_cargo_item--><g class="entity" data-entity="vvn_cargo_item" data-source-line="79" data-uid="ent0020" id="entity_vvn_cargo_item"><rect fill="#F1F1F1" height="151.7813" rx="2.5" ry="2.5" style="stroke:#181818;stroke-width:0.5;" width="123.7188" x="1679" y="1063.1094"/><text fill="#000000" font-family="sans-serif" font-size="20" font-style="italic" lengthAdjust="spacing" textLength="73.3984" x="1704.1602" y="1088.8711">&#171;Value&#187;</text><text fill="#000000" font-family="sans-serif" font-size="20" lengthAdjust="spacing" textLength="98.9258" x="1691.3965" y="1114.0273">Cargo Item</text><line style="stroke:#181818;stroke-width:0.5;" x1="1680" x2="1801.7188" y1="1123.4219" y2="1123.4219"/><ellipse cx="1690" cy="1141.5" fill="none" rx="3" ry="3" style="stroke:#038048;stroke-width:1;"/><text fill="#000000" font-family="sans-serif" font-size="20" lengthAdjust="spacing" textLength="34.4531" x="1700" y="1148.1836">ISO</text><ellipse cx="1690" cy="1166.6563" fill="none" rx="3" ry="3" style="stroke:#038048;stroke-width:1;"/><text fill="#000000" font-family="sans-serif" font-size="20" lengthAdjust="spacing" textLength="96.7188" x="1700" y="1173.3398">description</text><ellipse cx="1690" cy="1191.8125" fill="none" rx="3" ry="3" style="stroke:#038048;stroke-width:1;"/><text fill="#000000" font-family="sans-serif" font-size="20" lengthAdjust="spacing" textLength="37.8027" x="1700" y="1198.4961">type</text><line style="stroke:#181818;stroke-width:0.5;" x1="1680" x2="1801.7188" y1="1206.8906" y2="1206.8906"/></g><!--class vvn_cargo_type--><g class="entity" data-entity="vvn_cargo_type" data-source-line="84" data-uid="ent0021" id="entity_vvn_cargo_type"><rect fill="#F1F1F1" height="202.0938" rx="2.5" ry="2.5" style="stroke:#181818;stroke-width:0.5;" width="154.2461" x="1664" y="1314.6094"/><text fill="#000000" font-family="sans-serif" font-size="20" lengthAdjust="spacing" textLength="104.4922" x="1688.877" y="1340.3711">Cargo Type</text><line style="stroke:#181818;stroke-width:0.5;" x1="1665" x2="1817.2461" y1="1349.7656" y2="1349.7656"/><text fill="#000000" font-family="sans-serif" font-size="20" lengthAdjust="spacing" textLength="94.4629" x="1670" y="1374.5273">REEFERS</text><text fill="#000000" font-family="sans-serif" font-size="20" lengthAdjust="spacing" textLength="43.3398" x="1670" y="1399.6836">GCP</text><text fill="#000000" font-family="sans-serif" font-size="20" lengthAdjust="spacing" textLength="142.2461" x="1670" y="1424.8398">ELECTRONICS</text><text fill="#000000" font-family="sans-serif" font-size="20" lengthAdjust="spacing" textLength="82.2168" x="1670" y="1449.9961">HAZMAT</text><text fill="#000000" font-family="sans-serif" font-size="20" lengthAdjust="spacing" textLength="37.7734" x="1670" y="1475.1523">OIM</text><text fill="#000000" font-family="sans-serif" font-size="20" lengthAdjust="spacing" textLength="70" x="1670" y="1500.3086">OTHER</text><line style="stroke:#181818;stroke-width:0.5;" x1="1665" x2="1817.2461" y1="1508.7031" y2="1508.7031"/></g><!--class vessel--><g class="entity" data-entity="vessel" data-source-line="95" data-uid="ent0023" id="entity_vessel"><rect fill="#F1F1F1" height="126.625" rx="2.5" ry="2.5" style="stroke:#181818;stroke-width:0.5;" width="158.7871" x="2084.5" y="535.1094"/><text fill="#000000" font-family="sans-serif" font-size="20" font-style="italic" lengthAdjust="spacing" textLength="156.7871" x="2085.5" y="560.8711">&#171;AggregateRoot&#187;</text><text fill="#000000" font-family="sans-serif" font-size="20" font-style="italic" lengthAdjust="spacing" textLength="72.2656" x="2127.7607" y="586.0273">&#171;Entity&#187;</text><text fill="#000000" font-family="sans-serif" font-size="20" font-weight="bold" lengthAdjust="spacing" textLength="63.3887" x="2132.1992" y="611.1836">Vessel</text><line style="stroke:#181818;stroke-width:0.5;" x1="2085.5" x2="2242.2871" y1="620.5781" y2="620.5781"/><text fill="#000000" font-family="sans-serif" font-size="20" lengthAdjust="spacing" textLength="16.6699" x="2090.5" y="645.3398">...</text><line style="stroke:#181818;stroke-width:0.5;" x1="2085.5" x2="2242.2871" y1="653.7344" y2="653.7344"/></g><!--class SAO_rep--><g class="entity" data-entity="SAO_rep" data-source-line="103" data-uid="ent0025" id="entity_SAO_rep"><rect fill="#F1F1F1" height="101.4688" rx="2.5" ry="2.5" style="stroke:#181818;stroke-width:0.5;" width="198.2949" x="1007" y="89.6094"/><text fill="#000000" font-family="sans-serif" font-size="20" font-style="italic" lengthAdjust="spacing" textLength="72.2656" x="1070.0146" y="115.3711">&#171;Entity&#187;</text><text fill="#000000" font-family="sans-serif" font-size="20" font-weight="bold" lengthAdjust="spacing" textLength="192.2949" x="1010" y="140.5273">SAO Representative</text><line style="stroke:#181818;stroke-width:0.5;" x1="1008" x2="1204.2949" y1="149.9219" y2="149.9219"/><text fill="#000000" font-family="sans-serif" font-size="20" lengthAdjust="spacing" textLength="16.6699" x="1013" y="174.6836">...</text><line style="stroke:#181818;stroke-width:0.5;" x1="1008" x2="1204.2949" y1="183.0781" y2="183.0781"/></g><!--link SAO_rep to vvn--><g class="link" data-entity-1="SAO_rep" data-entity-2="vvn" data-source-line="109" data-uid="lnk26" id="link_SAO_rep_vvn"><path codeLine="109" d="M1106,190.8494 C1106,226.4094 1106,268.0694 1106,303.5794" fill="none" id="SAO_rep-to-vvn" style="stroke:#181818;stroke-width:1;"/><polygon fill="#181818" points="1106,309.5794,1110,300.5794,1106,304.5794,1102,300.5794,1106,309.5794" style="stroke:#181818;stroke-width:1;"/><text fill="#000000" font-family="sans-serif" font-size="20" lengthAdjust="spacing" textLength="71.1719" x="1107" y="244.3711">updates</text><text fill="#000000" font-family="sans-serif" font-size="20" lengthAdjust="spacing" textLength="11.123" x="1094.2843" y="219.6937">1</text><text fill="#000000" font-family="sans-serif" font-size="20" lengthAdjust="spacing" textLength="7.7832" x="1098.6191" y="297.2454">*</text></g><!--link vvn to vessel--><g class="link" data-entity-1="vvn" data-entity-2="vessel" data-source-line="110" data-uid="lnk27" id="link_vvn_vessel"><path codeLine="110" d="M1222.71,366.9694 C1422.19,377.8194 1820.24,403.3994 1955,440.6094 C1997.25,452.2794 2007.91,458.2194 2044,483.1094 C2065.69,498.0694 2082.8999,512.7853 2101.5899,530.8853" fill="none" id="vvn-to-vessel" style="stroke:#181818;stroke-width:1;"/><polygon fill="#181818" points="2105.9,535.0594,2102.2175,525.9249,2102.3082,531.581,2096.6521,531.6717,2105.9,535.0594" style="stroke:#181818;stroke-width:1;"/></g><!--link vvn to vvn_expected_time--><g class="link" data-entity-1="vvn" data-entity-2="vvn_expected_time" data-source-line="111" data-uid="lnk28" id="link_vvn_vvn_expected_time"><path codeLine="111" d="M989.37,364.9194 C771.93,373.8894 314.55,402.0694 181,483.1094 C160.1,495.7894 145.8586,510.5449 131.8986,529.9949" fill="none" id="vvn-to-vvn_expected_time" style="stroke:#181818;stroke-width:1;"/><polygon fill="#181818" points="128.4,534.8694,136.8975,529.8901,131.3155,530.8074,130.3982,525.2254,128.4,534.8694" style="stroke:#181818;stroke-width:1;"/><text fill="#000000" font-family="sans-serif" font-size="20" lengthAdjust="spacing" textLength="32.2461" x="286" y="462.3711">has</text></g><!--link vvn to vvn_special_req--><g class="link" data-entity-1="vvn" data-entity-2="vvn_special_req" data-source-line="112" data-uid="lnk29" id="link_vvn_vvn_special_req"><path codeLine="112" d="M989.39,362.3194 C849.43,368.1194 610.97,392.0494 430,483.1094 C398.72,498.8494 373.6726,520.3782 351.3626,543.5382" fill="none" id="vvn-to-vvn_special_req" style="stroke:#181818;stroke-width:1;"/><polygon fill="#181818" points="347.2,547.8594,356.3247,544.1526,350.6688,544.2584,350.5631,538.6025,347.2,547.8594" style="stroke:#181818;stroke-width:1;"/><text fill="#000000" font-family="sans-serif" font-size="20" lengthAdjust="spacing" textLength="32.2461" x="516" y="462.3711">has</text></g><!--link vvn to vvn_crew--><g class="link" data-entity-1="vvn" data-entity-2="vvn_crew" data-source-line="113" data-uid="lnk30" id="link_vvn_vvn_crew"><path codeLine="113" d="M989.25,376.2094 C895.35,392.1894 762.63,423.6494 660,483.1094 C636.72,496.5994 618.9681,511.6434 600.6481,530.6134" fill="none" id="vvn-to-vvn_crew" style="stroke:#181818;stroke-width:1;"/><polygon fill="#181818" points="596.48,534.9294,605.6094,531.2342,599.9534,531.3328,599.8548,525.6768,596.48,534.9294" style="stroke:#181818;stroke-width:1;"/><text fill="#000000" font-family="sans-serif" font-size="20" lengthAdjust="spacing" textLength="32.2461" x="740" y="462.3711">has</text></g><!--link vvn to vvn_haz_cargo--><g class="link" data-entity-1="vvn" data-entity-2="vvn_haz_cargo" data-source-line="114" data-uid="lnk31" id="link_vvn_vvn_haz_cargo"><path codeLine="114" d="M1003.89,410.6794 C966.04,430.9694 923.68,456.0494 888,483.1094 C862.86,502.1794 841.9196,522.2371 821.7196,543.6271" fill="none" id="vvn-to-vvn_haz_cargo" style="stroke:#181818;stroke-width:1;"/><polygon fill="#181818" points="817.6,547.9894,826.6875,544.1924,821.033,544.3542,820.8712,538.6996,817.6,547.9894" style="stroke:#181818;stroke-width:1;"/><text fill="#000000" font-family="sans-serif" font-size="20" lengthAdjust="spacing" textLength="32.2461" x="951" y="462.3711">has</text></g><!--link vvn to vvn_state--><g class="link" data-entity-1="vvn" data-entity-2="vvn_state" data-source-line="115" data-uid="lnk32" id="link_vvn_vvn_state"><path codeLine="115" d="M1139.3,411.0194 C1145.4,420.7094 1151.55,430.8794 1157,440.6094 C1174.02,470.9894 1188.5321,500.3272 1202.1721,529.4072" fill="none" id="vvn-to-vvn_state" style="stroke:#181818;stroke-width:1;"/><polygon fill="#181818" points="1204.72,534.8394,1204.5195,524.9926,1202.5967,530.3126,1197.2767,528.3898,1204.72,534.8394" style="stroke:#181818;stroke-width:1;"/><text fill="#000000" font-family="sans-serif" font-size="20" lengthAdjust="spacing" textLength="32.2461" x="1171" y="462.3711">has</text></g><!--link vvn to vvn_decision--><g class="link" data-entity-1="vvn" data-entity-2="vvn_decision" data-source-line="116" data-uid="lnk33" id="link_vvn_vvn_decision"><path codeLine="116" d="M1053.35,410.6594 C1045.61,419.9894 1038.43,430.1294 1033,440.6094 C1023.95,458.0694 1018.7673,471.999 1013.8973,491.449" fill="none" id="vvn-to-vvn_decision" style="stroke:#181818;stroke-width:1;"/><polygon fill="#181818" points="1012.44,497.2694,1018.5062,489.5104,1013.6544,492.4191,1010.7458,487.5673,1012.44,497.2694" style="stroke:#181818;stroke-width:1;"/><text fill="#000000" font-family="sans-serif" font-size="20" lengthAdjust="spacing" textLength="118.9551" x="1034" y="462.3711">0..* decisions</text></g><!--link vvn to vvn_berth--><g class="link" data-entity-1="vvn" data-entity-2="vvn_berth" data-source-line="117" data-uid="lnk34" id="link_vvn_vvn_berth"><path codeLine="117" d="M1222.68,391.2194 C1271.41,409.7494 1324.02,438.7394 1356,483.1094 C1422.87,575.8894 1425.1037,708.0289 1418.2437,792.8489" fill="none" id="vvn-to-vvn_berth" style="stroke:#181818;stroke-width:1;"/><polygon fill="#181818" points="1417.76,798.8294,1422.4725,790.1811,1418.1631,793.8456,1414.4985,789.5362,1417.76,798.8294" style="stroke:#181818;stroke-width:1;"/><text fill="#000000" font-family="sans-serif" font-size="20" lengthAdjust="spacing" textLength="143.4277" x="1420" y="606.8711">0..1 responds to</text></g><!--link vvn to vvn_lcm--><g class="link" data-entity-1="vvn" data-entity-2="vvn_lcm" data-source-line="118" data-uid="lnk35" id="link_vvn_vvn_lcm"><path codeLine="118" d="M1222.8,375.5294 C1318.86,391.2094 1455.93,422.6194 1562,483.1094 C1597.35,503.2694 1626.6453,531.0367 1649.6753,556.1567" fill="none" id="vvn-to-vvn_lcm" style="stroke:#181818;stroke-width:1;"/><polygon fill="#181818" points="1653.73,560.5794,1650.5964,551.2423,1650.3511,556.8938,1644.6996,556.6485,1653.73,560.5794" style="stroke:#181818;stroke-width:1;"/><text fill="#000000" font-family="sans-serif" font-size="20" lengthAdjust="spacing" textLength="152.3145" x="1529" y="462.3711">0..1 loadManifest</text></g><!--link vvn to vvn_ucm--><g class="link" data-entity-1="vvn" data-entity-2="vvn_ucm" data-source-line="119" data-uid="lnk36" id="link_vvn_vvn_ucm"><path codeLine="119" d="M1222.53,368.8294 C1341.54,378.5894 1530.9,399.3794 1690,440.6094 C1740.33,453.6494 1754.96,455.4594 1799,483.1094 C1832.97,504.4394 1861.8153,531.532 1885.0453,556.072" fill="none" id="vvn-to-vvn_ucm" style="stroke:#181818;stroke-width:1;"/><polygon fill="#181818" points="1889.17,560.4294,1885.8878,551.1435,1885.7327,556.7983,1880.078,556.6432,1889.17,560.4294" style="stroke:#181818;stroke-width:1;"/><text fill="#000000" font-family="sans-serif" font-size="20" lengthAdjust="spacing" textLength="174.5605" x="1772" y="462.3711">0..1 unloadManifest</text></g><!--link vvn_crew to vvn_safety_officer--><g class="link" data-entity-1="vvn_crew" data-entity-2="vvn_safety_officer" data-source-line="120" data-uid="lnk37" id="link_vvn_crew_vvn_safety_officer"><path codeLine="120" d="M545,662.2394 C545,702.9094 545,750.1294 545,793.0594" fill="none" id="vvn_crew-to-vvn_safety_officer" style="stroke:#181818;stroke-width:1;"/><polygon fill="#181818" points="545,799.0594,549,790.0594,545,794.0594,541,790.0594,545,799.0594" style="stroke:#181818;stroke-width:1;"/><text fill="#000000" font-family="sans-serif" font-size="20" lengthAdjust="spacing" textLength="157.832" x="546" y="751.3711">0..* safetyOfficers</text></g><!--link vvn_decision to vvn_notif_status--><g class="link" data-entity-1="vvn_decision" data-entity-2="vvn_notif_status" data-source-line="121" data-uid="lnk38" id="link_vvn_decision_vvn_notif_status"><path codeLine="121" d="M999,699.8794 C999,742.2994 999,783.8194 999,818.4994" fill="none" id="vvn_decision-to-vvn_notif_status" style="stroke:#181818;stroke-width:1;"/><polygon fill="#181818" points="999,824.4994,1003,815.4994,999,819.4994,995,815.4994,999,824.4994" style="stroke:#181818;stroke-width:1;"/><text fill="#000000" font-family="sans-serif" font-size="20" lengthAdjust="spacing" textLength="32.2461" x="1000" y="751.3711">has</text></g><!--link vvn_decision to vvn_berth--><g class="link" data-entity-1="vvn_decision" data-entity-2="vvn_berth" data-source-line="122" data-uid="lnk39" id="link_vvn_decision_vvn_berth"><path codeLine="122" d="M1092.67,686.3294 C1098.44,690.9394 1104.24,695.3994 1110,699.6094 C1182.59,752.6994 1267.1227,800.6718 1329.0727,833.6218" fill="none" id="vvn_decision-to-vvn_berth" style="stroke:#181818;stroke-width:1;"/><polygon fill="#181818" points="1334.37,836.4394,1328.3024,828.6815,1329.9556,834.0914,1324.5457,835.7446,1334.37,836.4394" style="stroke:#181818;stroke-width:1;"/><text fill="#000000" font-family="sans-serif" font-size="20" lengthAdjust="spacing" textLength="164.541" x="1189" y="751.3711">0..1 assignedDock</text></g><!--link vvn_berth to vvn_op_status--><g class="link" data-entity-1="vvn_berth" data-entity-2="vvn_op_status" data-source-line="123" data-uid="lnk40" id="link_vvn_berth_vvn_op_status"><path codeLine="123" d="M1434.65,951.1894 C1447.1,986.2694 1459.8818,1022.2854 1472.3418,1057.3654" fill="none" id="vvn_berth-to-vvn_op_status" style="stroke:#181818;stroke-width:1;"/><polygon fill="#181818" points="1474.35,1063.0194,1475.107,1053.1997,1472.6765,1058.3078,1467.5684,1055.8773,1474.35,1063.0194" style="stroke:#181818;stroke-width:1;"/><text fill="#000000" font-family="sans-serif" font-size="20" lengthAdjust="spacing" textLength="32.2461" x="1458" y="1015.3711">has</text></g><!--link vvn_berth to vvn_op_task--><g class="link" data-entity-1="vvn_berth" data-entity-2="vvn_op_task" data-source-line="124" data-uid="lnk41" id="link_vvn_berth_vvn_op_task"><path codeLine="124" d="M1375.33,951.1894 C1361.84,982.1894 1348.5144,1012.8279 1334.5044,1045.0179" fill="none" id="vvn_berth-to-vvn_op_task" style="stroke:#181818;stroke-width:1;"/><polygon fill="#181818" points="1332.11,1050.5194,1339.3693,1043.8634,1334.1053,1045.9348,1332.0339,1040.6708,1332.11,1050.5194" style="stroke:#181818;stroke-width:1;"/><ellipse cx="1360" cy="1007.6875" fill="none" rx="3" ry="3" style="stroke:#000000;stroke-width:1;"/><text fill="#000000" font-family="sans-serif" font-size="20" lengthAdjust="spacing" textLength="46.6797" x="1367" y="1015.3711">tasks</text></g><!--link vvn_op_task to vvn_task_type--><g class="link" data-entity-1="vvn_op_task" data-entity-2="vvn_task_type" data-source-line="125" data-uid="lnk42" id="link_vvn_op_task_vvn_task_type"><path codeLine="125" d="M1294,1227.7194 C1294,1263.6494 1294,1298.8294 1294,1333.3694" fill="none" id="vvn_op_task-to-vvn_task_type" style="stroke:#181818;stroke-width:1;"/><polygon fill="#181818" points="1294,1339.3694,1298,1330.3694,1294,1334.3694,1290,1330.3694,1294,1339.3694" style="stroke:#181818;stroke-width:1;"/><text fill="#000000" font-family="sans-serif" font-size="20" lengthAdjust="spacing" textLength="32.2461" x="1295" y="1279.3711">has</text></g><!--link vvn_lcm to vvn_cargo_load--><g class="link" data-entity-1="vvn_lcm" data-entity-2="vvn_cargo_load" data-source-line="126" data-uid="lnk43" id="link_vvn_lcm_vvn_cargo_load"><path codeLine="126" d="M1686.08,636.6294 C1687.19,674.8294 1688.7958,729.7919 1690.2658,780.3919" fill="none" id="vvn_lcm-to-vvn_cargo_load" style="stroke:#181818;stroke-width:1;"/><polygon fill="#181818" points="1690.44,786.3894,1694.177,777.277,1690.2948,781.3915,1686.1803,777.5093,1690.44,786.3894" style="stroke:#181818;stroke-width:1;"/><text fill="#000000" font-family="sans-serif" font-size="20" lengthAdjust="spacing" textLength="7.7832" x="1690" y="751.3711">*</text></g><!--link vvn_ucm to vvn_cargo_unload--><g class="link" data-entity-1="vvn_ucm" data-entity-2="vvn_cargo_unload" data-source-line="127" data-uid="lnk44" id="link_vvn_ucm_vvn_cargo_unload"><path codeLine="127" d="M1919.71,636.6294 C1917.34,674.8294 1913.9416,729.8009 1910.8016,780.4009" fill="none" id="vvn_ucm-to-vvn_cargo_unload" style="stroke:#181818;stroke-width:1;"/><polygon fill="#181818" points="1910.43,786.3894,1914.9797,777.6544,1910.7397,781.399,1906.9951,777.1589,1910.43,786.3894" style="stroke:#181818;stroke-width:1;"/><text fill="#000000" font-family="sans-serif" font-size="20" lengthAdjust="spacing" textLength="7.7832" x="1914" y="751.3711">*</text></g><!--link vvn_cargo_load to vvn_cargo_item--><g class="link" data-entity-1="vvn_cargo_load" data-entity-2="vvn_cargo_item" data-source-line="128" data-uid="lnk45" id="link_vvn_cargo_load_vvn_cargo_item"><path codeLine="128" d="M1709.05,963.7194 C1714.94,995.8494 1720.4588,1026.0076 1726.1288,1056.9576" fill="none" id="vvn_cargo_load-to-vvn_cargo_item" style="stroke:#181818;stroke-width:1;"/><polygon fill="#181818" points="1727.21,1062.8594,1729.5227,1053.2859,1726.309,1057.9412,1721.6537,1054.7275,1727.21,1062.8594" style="stroke:#181818;stroke-width:1;"/><text fill="#000000" font-family="sans-serif" font-size="20" lengthAdjust="spacing" textLength="11.123" x="1719" y="1015.3711">1</text></g><!--link vvn_cargo_unload to vvn_cargo_item--><g class="link" data-entity-1="vvn_cargo_unload" data-entity-2="vvn_cargo_item" data-source-line="129" data-uid="lnk46" id="link_vvn_cargo_unload_vvn_cargo_item"><path codeLine="129" d="M1850.16,963.7194 C1830.05,995.8494 1810.6643,1026.8241 1791.2843,1057.7741" fill="none" id="vvn_cargo_unload-to-vvn_cargo_item" style="stroke:#181818;stroke-width:1;"/><polygon fill="#181818" points="1788.1,1062.8594,1796.2666,1057.3543,1790.7536,1058.6216,1789.4862,1053.1086,1788.1,1062.8594" style="stroke:#181818;stroke-width:1;"/><text fill="#000000" font-family="sans-serif" font-size="20" lengthAdjust="spacing" textLength="11.123" x="1828" y="1015.3711">1</text></g><!--link vvn_cargo_item to vvn_cargo_type--><g class="link" data-entity-1="vvn_cargo_item" data-entity-2="vvn_cargo_type" data-source-line="130" data-uid="lnk47" id="link_vvn_cargo_item_vvn_cargo_type"><path codeLine="130" d="M1741,1215.1194 C1741,1245.7494 1741,1275.6394 1741,1308.4694" fill="none" id="vvn_cargo_item-to-vvn_cargo_type" style="stroke:#181818;stroke-width:1;"/><polygon fill="#181818" points="1741,1314.4694,1745,1305.4694,1741,1309.4694,1737,1305.4694,1741,1314.4694" style="stroke:#181818;stroke-width:1;"/><text fill="#000000" font-family="sans-serif" font-size="20" lengthAdjust="spacing" textLength="48.9258" x="1742" y="1279.3711">has a</text></g><!--SRC=[bLLBR-Cs43v7lu9GBwsBDJOz6e41hQN4Acmha1mVUX4OQImJaIKjHNcR5FlVEoJrefMawCNMV9pvvi7XJFt2YefoUixBv0LIaiAHDhcuBmiHiJSWVtor11Cva0FKDUJam6ecoAuKxCWIAbXP4BSyKrQGNrtN_SqwiHH8mdYIWsLnI0GjChIsFpItoIyRUe4Y1Kx-iMwIdDOriMUp3mrcCvlGcbmk1RcxSxACGqO5X6KfbikxEw_0S5-NIydriwVp_gum54nlpyxGcSVGeh505CaED6z0czxyJhozq_wxOwe8RHZDIGZV6yRX38MeUyPQ7yOSla_ushEntPXtnU57pvEWC258Q2MmqEfRb8BcqcGBvsVW1jEQlb6UbarDLfHdPKzweczn8f49CwkLPcyuPZEl6bEerQMrd6aBJBCLL4WY6IjM5yLpfIGEj2vr4iZFiW9I5rjF0UKHFG7tTS6XQCvN_YF5sdilv5ciNIc_pkDZ61myjBy9lJ-zrTxxb6fe1Sa1YiBVnSZn47fHX9BhhVp83n3pTgw_UsWXrpDwektLRy35gQTybX8nEn9pJBja1QrVekG4QODFPLooWJUeWAjeiT_sgDvpbrKipQVi4js_Lj2MkYuRde2Ju-F6_DBEpV5eGkLp3VoYFDMZUacNHBBrVYLzB11HxZQ1qzRaQJTyRuE3_WZsQoySqVNPN5yZPZEwmsYrzjodZRh4Ut_dHslzwVWQMpcxbRVPc3SGqIE8LnBe1XgkLS5nsrVJ5yK4phX2zXjA1Jr3-w5hZeKT-zYKDDLFYcnfmOxOrBsZF3cFsGUZfoB_nApvo4phIu_3J91GhDYkyoWvozh1W9N6nWkEOVd3aB_HLqFUC-36-54ETRHNBflYNQV_pvFiVCoSwTfEFVi2pbT-6K8JhtuKT6G9PvKcauslchxlDKrgzAucxPitzBnxBvHl_67rYB_U1iT56EpybSJMpbzRPo-RsD-EM_ddEqlDVcTlTKjA3uPFzfHr8uEPp-TJzkZ4geeL6N4oN1Oau1cspvj-GI5K-BeHHl42Ce9H294JN2cquU01hgQAVEo-qx1lRVBbonBPRBLf5yHkgXJZhsrBol9C9pU8ausw82TQ6-VZ_JWzLLjl2Wzxwnr2DRUdUB-N5kJhV3uZdMngwH6jL6xbjApA8grnjnfAycctAl8TT6_Oq6a67VrQnbewhpvYSoIryMcq7Lygo265pjBOTdtAKpqZAsF73gUTxZ1w1yA9Xber2p9JsqNhT6YdDIo6WKSMhh_QONWXaTNLp3nk1qsdCB8nzTHWM91RQsBwdteAChM6g0cr_WK0]--></g></svg>