<svg xmlns="http://www.w3.org/2000/svg" xmlns:xlink="http://www.w3.org/1999/xlink" contentStyleType="text/css" data-diagram-type="CLASS" height="1644px" preserveAspectRatio="none" style="width:1107px;height:1644px;background:#FFFFFF;" version="1.1" viewBox="0 0 1107 1644" width="1107px" zoomAndPan="magnify"><title>Class Diagram</title><defs/><g><text fill="#000000" font-family="sans-serif" font-size="14" font-weight="bold" lengthAdjust="spacing" textLength="112.8887" x="490.0557" y="22.9951">Class Diagram</text><!--cluster Domain Layer--><g class="cluster" data-entity="Domain Layer" data-source-line="4" data-uid="ent0002" id="cluster_Domain Layer"><path d="M8.5,1051.5137 L164.9395,1051.5137 A3.75,3.75 0 0 1 167.4395,1054.0137 L174.4395,1080.7949 L757.5,1080.7949 A2.5,2.5 0 0 1 760,1083.2949 L760,1634.5137 A2.5,2.5 0 0 1 757.5,1637.0137 L8.5,1637.0137 A2.5,2.5 0 0 1 6,1634.5137 L6,1054.0137 A2.5,2.5 0 0 1 8.5,1051.5137" fill="#D3D3D3" style="stroke:#000000;stroke-width:1.5;"/><line style="stroke:#000000;stroke-width:1.5;" x1="6" x2="174.4395" y1="1080.7949" y2="1080.7949"/><text fill="#000000" font-family="sans-serif" font-size="20" font-weight="bold" lengthAdjust="spacing" textLength="155.4395" x="10" y="1072.0781">Domain Layer</text></g><!--cluster DTOs--><g class="cluster" data-entity="DTOs" data-source-line="38" data-uid="ent0008" id="cluster_DTOs"><path d="M786.5,1470.5137 L846.6504,1470.5137 A3.75,3.75 0 0 1 849.1504,1473.0137 L856.1504,1499.7949 L1097.5,1499.7949 A2.5,2.5 0 0 1 1100,1502.2949 L1100,1623.0137 A2.5,2.5 0 0 1 1097.5,1625.5137 L786.5,1625.5137 A2.5,2.5 0 0 1 784,1623.0137 L784,1473.0137 A2.5,2.5 0 0 1 786.5,1470.5137" fill="#D3D3D3" style="stroke:#000000;stroke-width:1.5;"/><line style="stroke:#000000;stroke-width:1.5;" x1="784" x2="856.1504" y1="1499.7949" y2="1499.7949"/><text fill="#000000" font-family="sans-serif" font-size="20" font-weight="bold" lengthAdjust="spacing" textLength="59.1504" x="788" y="1491.0781">DTOs</text></g><!--cluster Service Layer--><g class="cluster" data-entity="Service Layer" data-source-line="45" data-uid="ent0010" id="cluster_Service Layer"><path d="M211.5,372.5137 L365.3125,372.5137 A3.75,3.75 0 0 1 367.8125,375.0137 L374.8125,401.7949 L894.5,401.7949 A2.5,2.5 0 0 1 897,404.2949 L897,641.0137 A2.5,2.5 0 0 1 894.5,643.5137 L211.5,643.5137 A2.5,2.5 0 0 1 209,641.0137 L209,375.0137 A2.5,2.5 0 0 1 211.5,372.5137" fill="#D3D3D3" style="stroke:#000000;stroke-width:1.5;"/><line style="stroke:#000000;stroke-width:1.5;" x1="209" x2="374.8125" y1="401.7949" y2="401.7949"/><text fill="#000000" font-family="sans-serif" font-size="20" font-weight="bold" lengthAdjust="spacing" textLength="152.8125" x="213" y="393.0781">Service Layer</text></g><!--cluster Controller Layer--><g class="cluster" data-entity="Controller Layer" data-source-line="58" data-uid="ent0012" id="cluster_Controller Layer"><path d="M219.5,44.5137 L403.127,44.5137 A3.75,3.75 0 0 1 405.627,47.0137 L412.627,73.7949 L886.5,73.7949 A2.5,2.5 0 0 1 889,76.2949 L889,313.0137 A2.5,2.5 0 0 1 886.5,315.5137 L219.5,315.5137 A2.5,2.5 0 0 1 217,313.0137 L217,47.0137 A2.5,2.5 0 0 1 219.5,44.5137" fill="#D3D3D3" style="stroke:#000000;stroke-width:1.5;"/><line style="stroke:#000000;stroke-width:1.5;" x1="217" x2="412.627" y1="73.7949" y2="73.7949"/><text fill="#000000" font-family="sans-serif" font-size="20" font-weight="bold" lengthAdjust="spacing" textLength="182.627" x="221" y="65.0781">Controller Layer</text></g><!--cluster Repository Layer--><g class="cluster" data-entity="Repository Layer" data-source-line="71" data-uid="ent0014" id="cluster_Repository Layer"><path d="M203.5,700.5137 L396.1504,700.5137 A3.75,3.75 0 0 1 398.6504,703.0137 L405.6504,729.7949 L902.5,729.7949 A2.5,2.5 0 0 1 905,732.2949 L905,992.0137 A2.5,2.5 0 0 1 902.5,994.5137 L203.5,994.5137 A2.5,2.5 0 0 1 201,992.0137 L201,703.0137 A2.5,2.5 0 0 1 203.5,700.5137" fill="#D3D3D3" style="stroke:#000000;stroke-width:1.5;"/><line style="stroke:#000000;stroke-width:1.5;" x1="201" x2="405.6504" y1="729.7949" y2="729.7949"/><text fill="#000000" font-family="sans-serif" font-size="20" font-weight="bold" lengthAdjust="spacing" textLength="191.6504" x="205" y="721.0781">Repository Layer</text></g><!--class Qualification--><g class="entity" data-entity="Qualification" data-source-line="5" data-uid="ent0003" id="entity_Qualification"><rect fill="#F1F1F1" height="306.0938" rx="2.5" ry="2.5" style="stroke:#181818;stroke-width:0.5;" width="721.8828" x="22" y="1093.5137"/><ellipse cx="315.4678" cy="1110.5137" fill="#ADD1B2" rx="12" ry="12" style="stroke:#181818;stroke-width:1;"/><path d="M318.5303,1117.5918 Q317.8428,1117.9512 317.0928,1118.123 Q316.3428,1118.2949 315.5146,1118.2949 Q312.5615,1118.2949 310.999,1116.3574 Q309.4521,1114.4043 309.4521,1110.7324 Q309.4521,1107.0605 310.999,1105.123 Q312.5615,1103.1699 315.5146,1103.1699 Q316.3428,1103.1699 317.0928,1103.3418 Q317.8584,1103.5137 318.5303,1103.873 L318.5303,1107.0762 Q317.7803,1106.3887 317.0771,1106.0762 Q316.3896,1105.7637 315.6396,1105.7637 Q314.0615,1105.7637 313.249,1107.0137 Q312.4521,1108.2637 312.4521,1110.7324 Q312.4521,1113.2012 313.249,1114.4512 Q314.0615,1115.7012 315.6396,1115.7012 Q316.3896,1115.7012 317.0771,1115.3887 Q317.7803,1115.0762 318.5303,1114.3887 L318.5303,1117.5918 Z " fill="#000000"/><text fill="#000000" font-family="sans-serif" font-size="20" lengthAdjust="spacing" textLength="125.9473" x="337.4678" y="1117.4375">Qualification</text><line style="stroke:#181818;stroke-width:0.5;" x1="23" x2="742.8828" y1="1127.5137" y2="1127.5137"/><text fill="#000000" font-family="sans-serif" font-size="20" lengthAdjust="spacing" textLength="85.332" x="28" y="1150.0781">-Id: Guid</text><text fill="#000000" font-family="sans-serif" font-size="20" lengthAdjust="spacing" textLength="181.7188" x="28" y="1173.3594">-NameCode: Code</text><text fill="#000000" font-family="sans-serif" font-size="20" lengthAdjust="spacing" textLength="324.8828" x="28" y="1196.6406">-QualificationName: Designation</text><text fill="#000000" font-family="sans-serif" font-size="20" lengthAdjust="spacing" textLength="262.8223" x="28" y="1219.9219">-Staffs: ICollection&lt;Staff&gt;</text><text fill="#000000" font-family="sans-serif" font-size="20" lengthAdjust="spacing" textLength="517.9004" x="28" y="1243.2031">-PhysicalResources: ICollection&lt;PhysicalResource&gt;</text><line style="stroke:#181818;stroke-width:0.5;" x1="23" x2="742.8828" y1="1251.9199" y2="1251.9199"/><text fill="#000000" font-family="sans-serif" font-size="20" lengthAdjust="spacing" textLength="709.8828" x="28" y="1274.4844">+Qualification(id: Guid, idCode: Code, qualificationName: Designation)</text><text fill="#000000" font-family="sans-serif" font-size="20" lengthAdjust="spacing" textLength="597.5781" x="28" y="1297.7656">+UpdateQualificationName(qualificationName: string): void</text><text fill="#000000" font-family="sans-serif" font-size="20" lengthAdjust="spacing" textLength="274.6973" x="28" y="1321.0469">+ToDTO(): QualificationDto</text><text fill="#000000" font-family="sans-serif" font-size="20" lengthAdjust="spacing" textLength="259.6387" x="28" y="1344.3281">+Equals(obj: object): bool</text><text fill="#000000" font-family="sans-serif" font-size="20" lengthAdjust="spacing" textLength="208.7695" x="28" y="1367.6094">+GetHashCode(): int</text><text fill="#000000" font-family="sans-serif" font-size="20" lengthAdjust="spacing" textLength="187.0117" x="28" y="1390.8906">+ToString(): string</text></g><!--class Code--><g class="entity" data-entity="Code" data-source-line="20" data-uid="ent0004" id="entity_Code"><rect fill="#F1F1F1" height="119.8438" rx="2.5" ry="2.5" style="stroke:#181818;stroke-width:0.5;" width="283.5039" x="81" y="1501.0137"/><ellipse cx="192.6514" cy="1518.0137" fill="#ADD1B2" rx="12" ry="12" style="stroke:#181818;stroke-width:1;"/><path d="M195.7139,1525.0918 Q195.0264,1525.4512 194.2764,1525.623 Q193.5264,1525.7949 192.6982,1525.7949 Q189.7451,1525.7949 188.1826,1523.8574 Q186.6357,1521.9043 186.6357,1518.2324 Q186.6357,1514.5605 188.1826,1512.623 Q189.7451,1510.6699 192.6982,1510.6699 Q193.5264,1510.6699 194.2764,1510.8418 Q195.042,1511.0137 195.7139,1511.373 L195.7139,1514.5762 Q194.9639,1513.8887 194.2607,1513.5762 Q193.5732,1513.2637 192.8232,1513.2637 Q191.2451,1513.2637 190.4326,1514.5137 Q189.6357,1515.7637 189.6357,1518.2324 Q189.6357,1520.7012 190.4326,1521.9512 Q191.2451,1523.2012 192.8232,1523.2012 Q193.5732,1523.2012 194.2607,1522.8887 Q194.9639,1522.5762 195.7139,1521.8887 L195.7139,1525.0918 Z " fill="#000000"/><text fill="#000000" font-family="sans-serif" font-size="20" lengthAdjust="spacing" textLength="51.2012" x="214.6514" y="1524.9375">Code</text><line style="stroke:#181818;stroke-width:0.5;" x1="82" x2="363.5039" y1="1535.0137" y2="1535.0137"/><text fill="#000000" font-family="sans-serif" font-size="20" lengthAdjust="spacing" textLength="142.3535" x="87" y="1557.5781">-_value: string</text><line style="stroke:#181818;stroke-width:0.5;" x1="82" x2="363.5039" y1="1566.2949" y2="1566.2949"/><text fill="#000000" font-family="sans-serif" font-size="20" lengthAdjust="spacing" textLength="271.5039" x="87" y="1588.8594">+Value: string { get; set; }</text><text fill="#000000" font-family="sans-serif" font-size="20" lengthAdjust="spacing" textLength="187.0117" x="87" y="1612.1406">+ToString(): string</text></g><!--class Designation--><g class="entity" data-entity="Designation" data-source-line="27" data-uid="ent0005" id="entity_Designation"><rect fill="#F1F1F1" height="119.8438" rx="2.5" ry="2.5" style="stroke:#181818;stroke-width:0.5;" width="283.5039" x="400" y="1501.0137"/><ellipse cx="477.4424" cy="1518.0137" fill="#ADD1B2" rx="12" ry="12" style="stroke:#181818;stroke-width:1;"/><path d="M480.5049,1525.0918 Q479.8174,1525.4512 479.0674,1525.623 Q478.3174,1525.7949 477.4893,1525.7949 Q474.5361,1525.7949 472.9736,1523.8574 Q471.4268,1521.9043 471.4268,1518.2324 Q471.4268,1514.5605 472.9736,1512.623 Q474.5361,1510.6699 477.4893,1510.6699 Q478.3174,1510.6699 479.0674,1510.8418 Q479.833,1511.0137 480.5049,1511.373 L480.5049,1514.5762 Q479.7549,1513.8887 479.0518,1513.5762 Q478.3643,1513.2637 477.6143,1513.2637 Q476.0361,1513.2637 475.2236,1514.5137 Q474.4268,1515.7637 474.4268,1518.2324 Q474.4268,1520.7012 475.2236,1521.9512 Q476.0361,1523.2012 477.6143,1523.2012 Q478.3643,1523.2012 479.0518,1522.8887 Q479.7549,1522.5762 480.5049,1521.8887 L480.5049,1525.0918 Z " fill="#000000"/><text fill="#000000" font-family="sans-serif" font-size="20" lengthAdjust="spacing" textLength="119.6191" x="499.4424" y="1524.9375">Designation</text><line style="stroke:#181818;stroke-width:0.5;" x1="401" x2="682.5039" y1="1535.0137" y2="1535.0137"/><text fill="#000000" font-family="sans-serif" font-size="20" lengthAdjust="spacing" textLength="142.3535" x="406" y="1557.5781">-_value: string</text><line style="stroke:#181818;stroke-width:0.5;" x1="401" x2="682.5039" y1="1566.2949" y2="1566.2949"/><text fill="#000000" font-family="sans-serif" font-size="20" lengthAdjust="spacing" textLength="271.5039" x="406" y="1588.8594">+Value: string { get; set; }</text><text fill="#000000" font-family="sans-serif" font-size="20" lengthAdjust="spacing" textLength="187.0117" x="406" y="1612.1406">+ToString(): string</text></g><!--class QualificationDto--><g class="entity" data-entity="QualificationDto" data-source-line="39" data-uid="ent0009" id="entity_QualificationDto"><rect fill="#F1F1F1" height="96.5625" rx="2.5" ry="2.5" style="stroke:#181818;stroke-width:0.5;" width="284.2168" x="800" y="1512.5137"/><ellipse cx="856.8955" cy="1529.5137" fill="#ADD1B2" rx="12" ry="12" style="stroke:#181818;stroke-width:1;"/><path d="M859.958,1536.5918 Q859.2705,1536.9512 858.5205,1537.123 Q857.7705,1537.2949 856.9424,1537.2949 Q853.9893,1537.2949 852.4268,1535.3574 Q850.8799,1533.4043 850.8799,1529.7324 Q850.8799,1526.0605 852.4268,1524.123 Q853.9893,1522.1699 856.9424,1522.1699 Q857.7705,1522.1699 858.5205,1522.3418 Q859.2861,1522.5137 859.958,1522.873 L859.958,1526.0762 Q859.208,1525.3887 858.5049,1525.0762 Q857.8174,1524.7637 857.0674,1524.7637 Q855.4893,1524.7637 854.6768,1526.0137 Q853.8799,1527.2637 853.8799,1529.7324 Q853.8799,1532.2012 854.6768,1533.4512 Q855.4893,1534.7012 857.0674,1534.7012 Q857.8174,1534.7012 858.5049,1534.3887 Q859.208,1534.0762 859.958,1533.3887 L859.958,1536.5918 Z " fill="#000000"/><text fill="#000000" font-family="sans-serif" font-size="20" lengthAdjust="spacing" textLength="161.4258" x="878.8955" y="1536.4375">QualificationDto</text><line style="stroke:#181818;stroke-width:0.5;" x1="801" x2="1083.2168" y1="1546.5137" y2="1546.5137"/><text fill="#000000" font-family="sans-serif" font-size="20" lengthAdjust="spacing" textLength="157.0605" x="806" y="1569.0781">+IdCode: string</text><text fill="#000000" font-family="sans-serif" font-size="20" lengthAdjust="spacing" textLength="272.2168" x="806" y="1592.3594">+QualificationName: string</text><line style="stroke:#181818;stroke-width:0.5;" x1="801" x2="1083.2168" y1="1601.0762" y2="1601.0762"/></g><!--class QualificationService--><g class="entity" data-entity="QualificationService" data-source-line="46" data-uid="ent0011" id="entity_QualificationService"><rect fill="#F1F1F1" height="212.9688" rx="2.5" ry="2.5" style="stroke:#181818;stroke-width:0.5;" width="655.6133" x="225" y="414.5137"/><ellipse cx="448.375" cy="431.5137" fill="#ADD1B2" rx="12" ry="12" style="stroke:#181818;stroke-width:1;"/><path d="M451.4375,438.5918 Q450.75,438.9512 450,439.123 Q449.25,439.2949 448.4219,439.2949 Q445.4688,439.2949 443.9063,437.3574 Q442.3594,435.4043 442.3594,431.7324 Q442.3594,428.0605 443.9063,426.123 Q445.4688,424.1699 448.4219,424.1699 Q449.25,424.1699 450,424.3418 Q450.7656,424.5137 451.4375,424.873 L451.4375,428.0762 Q450.6875,427.3887 449.9844,427.0762 Q449.2969,426.7637 448.5469,426.7637 Q446.9688,426.7637 446.1563,428.0137 Q445.3594,429.2637 445.3594,431.7324 Q445.3594,434.2012 446.1563,435.4512 Q446.9688,436.7012 448.5469,436.7012 Q449.2969,436.7012 449.9844,436.3887 Q450.6875,436.0762 451.4375,435.3887 L451.4375,438.5918 Z " fill="#000000"/><text fill="#000000" font-family="sans-serif" font-size="20" lengthAdjust="spacing" textLength="199.8633" x="470.375" y="438.4375">QualificationService</text><line style="stroke:#181818;stroke-width:0.5;" x1="226" x2="879.6133" y1="448.5137" y2="448.5137"/><text fill="#000000" font-family="sans-serif" font-size="20" lengthAdjust="spacing" textLength="493.6523" x="231" y="471.0781">-_qualificationRepository: QualificationRepository</text><line style="stroke:#181818;stroke-width:0.5;" x1="226" x2="879.6133" y1="479.7949" y2="479.7949"/><text fill="#000000" font-family="sans-serif" font-size="20" lengthAdjust="spacing" textLength="462.373" x="231" y="502.3594">+QualificationService(qualificationRepository)</text><text fill="#000000" font-family="sans-serif" font-size="20" lengthAdjust="spacing" textLength="415.791" x="231" y="525.6406">+GetAll(): Task&lt;List&lt;QualificationDto&gt;&gt;</text><text fill="#000000" font-family="sans-serif" font-size="20" lengthAdjust="spacing" textLength="437.7051" x="231" y="548.9219">+GetById(Guid id): Task&lt;QualificationDto&gt;</text><text fill="#000000" font-family="sans-serif" font-size="20" lengthAdjust="spacing" textLength="526.5039" x="231" y="572.2031">+Add(QualificationDto dto): Task&lt;QualificationDto&gt;</text><text fill="#000000" font-family="sans-serif" font-size="20" lengthAdjust="spacing" textLength="643.6133" x="231" y="595.4844">+Update(Guid id, QualificationDto dto): Task&lt;QualificationDto&gt;</text><text fill="#000000" font-family="sans-serif" font-size="20" lengthAdjust="spacing" textLength="636.1523" x="231" y="618.7656">+Filter(QualificationFilter filter): Task&lt;List&lt;QualificationDto&gt;&gt;</text></g><!--class QualificationController--><g class="entity" data-entity="QualificationController" data-source-line="59" data-uid="ent0013" id="entity_QualificationController"><rect fill="#F1F1F1" height="212.9688" rx="2.5" ry="2.5" style="stroke:#181818;stroke-width:0.5;" width="640.1348" x="233" y="86.5137"/><ellipse cx="436.1846" cy="103.5137" fill="#ADD1B2" rx="12" ry="12" style="stroke:#181818;stroke-width:1;"/><path d="M439.2471,110.5918 Q438.5596,110.9512 437.8096,111.123 Q437.0596,111.2949 436.2314,111.2949 Q433.2783,111.2949 431.7158,109.3574 Q430.1689,107.4043 430.1689,103.7324 Q430.1689,100.0605 431.7158,98.123 Q433.2783,96.1699 436.2314,96.1699 Q437.0596,96.1699 437.8096,96.3418 Q438.5752,96.5137 439.2471,96.873 L439.2471,100.0762 Q438.4971,99.3887 437.7939,99.0762 Q437.1064,98.7637 436.3564,98.7637 Q434.7783,98.7637 433.9658,100.0137 Q433.1689,101.2637 433.1689,103.7324 Q433.1689,106.2012 433.9658,107.4512 Q434.7783,108.7012 436.3564,108.7012 Q437.1064,108.7012 437.7939,108.3887 Q438.4971,108.0762 439.2471,107.3887 L439.2471,110.5918 Z " fill="#000000"/><text fill="#000000" font-family="sans-serif" font-size="20" lengthAdjust="spacing" textLength="224.7656" x="458.1846" y="110.4375">QualificationController</text><line style="stroke:#181818;stroke-width:0.5;" x1="234" x2="872.1348" y1="120.5137" y2="120.5137"/><text fill="#000000" font-family="sans-serif" font-size="20" lengthAdjust="spacing" textLength="426.9922" x="239" y="143.0781">-_qualificationService: QualificationService</text><line style="stroke:#181818;stroke-width:0.5;" x1="234" x2="872.1348" y1="151.7949" y2="151.7949"/><text fill="#000000" font-family="sans-serif" font-size="20" lengthAdjust="spacing" textLength="453.9453" x="239" y="174.3594">+QualificationController(qualificationService)</text><text fill="#000000" font-family="sans-serif" font-size="20" lengthAdjust="spacing" textLength="574.9902" x="239" y="197.6406">+GetAll(): Task&lt;ActionResult&lt;List&lt;QualificationDto&gt;&gt;&gt;</text><text fill="#000000" font-family="sans-serif" font-size="20" lengthAdjust="spacing" textLength="544.1211" x="239" y="220.9219">+GetById(id): Task&lt;ActionResult&lt;QualificationDto&gt;&gt;</text><text fill="#000000" font-family="sans-serif" font-size="20" lengthAdjust="spacing" textLength="591.6309" x="239" y="244.2031">+Create(qualDto): Task&lt;ActionResult&lt;QualificationDto&gt;&gt;</text><text fill="#000000" font-family="sans-serif" font-size="20" lengthAdjust="spacing" textLength="628.1348" x="239" y="267.4844">+Update(id, qualDto): Task&lt;ActionResult&lt;QualificationDto&gt;&gt;</text><text fill="#000000" font-family="sans-serif" font-size="20" lengthAdjust="spacing" textLength="612.0605" x="239" y="290.7656">+Filter(filter): Task&lt;ActionResult&lt;List&lt;QualificationDto&gt;&gt;&gt;</text></g><!--class QualificationRepository--><g class="entity" data-entity="QualificationRepository" data-source-line="72" data-uid="ent0015" id="entity_QualificationRepository"><rect fill="#F1F1F1" height="236.25" rx="2.5" ry="2.5" style="stroke:#181818;stroke-width:0.5;" width="672.2832" x="217" y="742.5137"/><ellipse cx="432.0449" cy="759.5137" fill="#ADD1B2" rx="12" ry="12" style="stroke:#181818;stroke-width:1;"/><path d="M435.1074,766.5918 Q434.4199,766.9512 433.6699,767.123 Q432.9199,767.2949 432.0918,767.2949 Q429.1387,767.2949 427.5762,765.3574 Q426.0293,763.4043 426.0293,759.7324 Q426.0293,756.0605 427.5762,754.123 Q429.1387,752.1699 432.0918,752.1699 Q432.9199,752.1699 433.6699,752.3418 Q434.4355,752.5137 435.1074,752.873 L435.1074,756.0762 Q434.3574,755.3887 433.6543,755.0762 Q432.9668,754.7637 432.2168,754.7637 Q430.6387,754.7637 429.8262,756.0137 Q429.0293,757.2637 429.0293,759.7324 Q429.0293,762.2012 429.8262,763.4512 Q430.6387,764.7012 432.2168,764.7012 Q432.9668,764.7012 433.6543,764.3887 Q434.3574,764.0762 435.1074,763.3887 L435.1074,766.5918 Z " fill="#000000"/><text fill="#000000" font-family="sans-serif" font-size="20" lengthAdjust="spacing" textLength="233.1934" x="454.0449" y="766.4375">QualificationRepository</text><line style="stroke:#181818;stroke-width:0.5;" x1="218" x2="888.2832" y1="776.5137" y2="776.5137"/><text fill="#000000" font-family="sans-serif" font-size="20" lengthAdjust="spacing" textLength="216.6797" x="223" y="799.0781">-_context: ApiContext</text><line style="stroke:#181818;stroke-width:0.5;" x1="218" x2="888.2832" y1="807.7949" y2="807.7949"/><text fill="#000000" font-family="sans-serif" font-size="20" lengthAdjust="spacing" textLength="341.2891" x="223" y="830.3594">+QualificationRepository(context)</text><text fill="#000000" font-family="sans-serif" font-size="20" lengthAdjust="spacing" textLength="439.9219" x="223" y="853.6406">+GetAllAsync(): Task&lt;List&lt;Qualification&gt;&gt;</text><text fill="#000000" font-family="sans-serif" font-size="20" lengthAdjust="spacing" textLength="461.8359" x="223" y="876.9219">+GetByIdAsync(Guid id): Task&lt;Qualification&gt;</text><text fill="#000000" font-family="sans-serif" font-size="20" lengthAdjust="spacing" textLength="556.6309" x="223" y="900.2031">+GetByCodeAsync(string idCode): Task&lt;Qualification&gt;</text><text fill="#000000" font-family="sans-serif" font-size="20" lengthAdjust="spacing" textLength="660.2832" x="223" y="923.4844">+FilterAsync(QualificationFilter filter): Task&lt;List&lt;Qualification&gt;&gt;</text><text fill="#000000" font-family="sans-serif" font-size="20" lengthAdjust="spacing" textLength="605.2832" x="223" y="946.7656">+AddAsync(Qualification qualification): Task&lt;Qualification&gt;</text><text fill="#000000" font-family="sans-serif" font-size="20" lengthAdjust="spacing" textLength="638.6426" x="223" y="970.0469">+UpdateAsync(Qualification qualification): Task&lt;Qualification&gt;</text></g><!--link Qualification to Code--><g class="link" data-entity-1="Qualification" data-entity-2="Code" data-source-line="34" data-uid="lnk6" id="link_Qualification_Code"><path codeLine="34" d="M305.11,1399.6437 C286.67,1435.6537 270.8141,1466.6228 256.0041,1495.5528" fill="none" id="Qualification-to-Code" style="stroke:#181818;stroke-width:1;"/><polygon fill="#181818" points="253.27,1500.8937,260.9317,1494.7051,255.5484,1496.443,253.8106,1491.0597,253.27,1500.8937" style="stroke:#181818;stroke-width:1;"/><text fill="#000000" font-family="sans-serif" font-size="20" lengthAdjust="spacing" textLength="35.3516" x="289" y="1449.0781">has</text></g><!--link Qualification to Designation--><g class="link" data-entity-1="Qualification" data-entity-2="Designation" data-source-line="35" data-uid="lnk7" id="link_Qualification_Designation"><path codeLine="35" d="M460.4,1399.6437 C478.73,1435.6537 494.4791,1466.6161 509.1991,1495.5461" fill="none" id="Qualification-to-Designation" style="stroke:#181818;stroke-width:1;"/><polygon fill="#181818" points="511.92,1500.8937,511.4037,1491.0584,509.6526,1496.4374,504.2736,1494.6863,511.92,1500.8937" style="stroke:#181818;stroke-width:1;"/><text fill="#000000" font-family="sans-serif" font-size="20" lengthAdjust="spacing" textLength="35.3516" x="487" y="1449.0781">has</text></g><!--link QualificationRepository to Qualification--><g class="link" data-entity-1="QualificationRepository" data-entity-2="Qualification" data-source-line="86" data-uid="lnk16" id="link_QualificationRepository_Qualification"><path codeLine="86" d="M501.19,978.5537 C485.17,1014.7337 469.7192,1049.6374 452.8092,1087.8274" fill="none" id="QualificationRepository-to-Qualification" style="stroke:#181818;stroke-width:1;stroke-dasharray:7.0,7.0;"/><polygon fill="#181818" points="450.38,1093.3137,457.6813,1086.7038,452.4044,1088.7418,450.3664,1083.4648,450.38,1093.3137" style="stroke:#181818;stroke-width:1;"/><text fill="#000000" font-family="sans-serif" font-size="20" lengthAdjust="spacing" textLength="92.0898" x="484" y="1030.0781">manages</text></g><!--link QualificationService to QualificationRepository--><g class="link" data-entity-1="QualificationService" data-entity-2="QualificationRepository" data-source-line="87" data-uid="lnk17" id="link_QualificationService_QualificationRepository"><path codeLine="87" d="M553,627.8737 C553,664.2137 553,699.1037 553,736.2937" fill="none" id="QualificationService-to-QualificationRepository" style="stroke:#181818;stroke-width:1;stroke-dasharray:7.0,7.0;"/><polygon fill="#181818" points="553,742.2937,557,733.2937,553,737.2937,549,733.2937,553,742.2937" style="stroke:#181818;stroke-width:1;"/><text fill="#000000" font-family="sans-serif" font-size="20" lengthAdjust="spacing" textLength="45.8203" x="554" y="679.0781">uses</text></g><!--link QualificationService to Qualification--><g class="link" data-entity-1="QualificationService" data-entity-2="Qualification" data-source-line="88" data-uid="lnk18" id="link_QualificationService_Qualification"><path codeLine="88" d="M224.71,620.9037 C197.11,640.6137 172.68,664.2237 154,692.5137 C78.09,807.4937 103.17,874.4537 154,1002.5137 C166.89,1034.9737 182.6422,1060.9281 204.9422,1088.8081" fill="none" id="QualificationService-to-Qualification" style="stroke:#181818;stroke-width:1;stroke-dasharray:7.0,7.0;"/><polygon fill="#181818" points="208.69,1093.4937,206.1921,1083.9669,205.5669,1089.5891,199.9447,1088.9639,208.69,1093.4937" style="stroke:#181818;stroke-width:1;"/><text fill="#000000" font-family="sans-serif" font-size="20" lengthAdjust="spacing" textLength="45.8203" x="155" y="867.5781">uses</text></g><!--link QualificationService to QualificationDto--><g class="link" data-entity-1="QualificationService" data-entity-2="QualificationDto" data-source-line="89" data-uid="lnk19" id="link_QualificationService_QualificationDto"><path codeLine="89" d="M843.63,627.7537 C867.43,646.1137 888.6,667.5437 905,692.5137 C1079,957.4137 993.6692,1366.5392 957.0692,1506.3792" fill="none" id="QualificationService-to-QualificationDto" style="stroke:#181818;stroke-width:1;stroke-dasharray:7.0,7.0;"/><polygon fill="#181818" points="955.55,1512.1837,961.6984,1504.4897,956.816,1507.3466,953.9591,1502.4641,955.55,1512.1837" style="stroke:#181818;stroke-width:1;"/><text fill="#000000" font-family="sans-serif" font-size="20" lengthAdjust="spacing" textLength="45.8203" x="1008" y="1030.0781">uses</text></g><!--link QualificationController to QualificationService--><g class="link" data-entity-1="QualificationController" data-entity-2="QualificationService" data-source-line="90" data-uid="lnk20" id="link_QualificationController_QualificationService"><path codeLine="90" d="M553,299.8537 C553,336.5737 553,371.7237 553,408.4237" fill="none" id="QualificationController-to-QualificationService" style="stroke:#181818;stroke-width:1;stroke-dasharray:7.0,7.0;"/><polygon fill="#181818" points="553,414.4237,557,405.4237,553,409.4237,549,405.4237,553,414.4237" style="stroke:#181818;stroke-width:1;"/><text fill="#000000" font-family="sans-serif" font-size="20" lengthAdjust="spacing" textLength="45.8203" x="554" y="351.0781">uses</text></g><!--link Qualification to QualificationDto--><g class="link" data-entity-1="Qualification" data-entity-2="QualificationDto" data-source-line="92" data-uid="lnk21" id="link_Qualification_QualificationDto"><path codeLine="92" d="M655.13,1399.6437 C728.43,1440.6237 797.1728,1479.0559 851.6428,1509.5059" fill="none" id="Qualification-to-QualificationDto" style="stroke:#181818;stroke-width:1;stroke-dasharray:7.0,7.0;"/><polygon fill="#181818" points="856.88,1512.4337,850.976,1504.5506,852.5157,1509.9939,847.0724,1511.5336,856.88,1512.4337" style="stroke:#181818;stroke-width:1;"/><text fill="#000000" font-family="sans-serif" font-size="20" lengthAdjust="spacing" textLength="112.9688" x="746" y="1449.0781">converts to</text></g><!--SRC=[jLPBRzf043xZNp6YXpeYYQ8UtGY9GfCYHKqBjDTeOm-mPV5IxngLHlptxiEElVXH5wcN1MRdczStCulOq7X74h9bFDnW114kISha7O_bdFv6U7VZYLm5GaQ464cPqETKuZJaiT6vyIIL366ihs52oKefUzwEX1koGkXF-9RG61x80PC-l7cWgxMyJyW1NhoUCGbVKyBeaeP4KXvhSUyAfb40zocDp8_FP8jZ7c40-ZGY1wFl0vYWeAlO28pAN9BbKWGm7NF6CDJoMoCRckilwuDGU3P3mTCan1FDqsiDUdfIny3rxTCiqakWKH7a9VniZV32MFgsYuZ4IYv-3LQekiUhYm3st5Hb00i-MJpwIkBW9vARsu_QXl3vyuy0rA6oKfhFd3DpUu_o4n5h7QcsG6EPcPmRDrfc7NgzevVprDVg_OoWfprXAHPgUN6-byNm0YkKxq7euzZ5HQb4_ykJssvNLyCyiG3MHDJUEr5PjMEvnHUFeaDhAsfCIWFLtRPJNbCQr3Lq4NJPsHoJFGsnyq3b-bandTQQuOuBAdboEEcYugAXxJEhVeEvYxpBHepf-Y-8sDm-K25lJoio7EQg7mxJoDUJf0OfXrIqZV8eYlnAPIF9sr5ss78Fb_3l5kueavYuhgqCbkRZhvcwL8xLdatqoaawirc2r16QqHBKajL0PM7IhxDLI-Kej7mBzLeqPUiIMt3gO1lQOPoWvah7CobOwOBCMDO4du7E67RPx9Yiosqn2vsvBK4oRjKRA_6N362qesFxlO740kjde39l8t68mvOvTBcoscsJM5BNYym2iaLiNy4McAsnnPmpIiFN9L1ZmtrsMwAmVNAs1KFsMvWXCnAnfZlXDR5vVJqy-PCJm9R4gazECFckhW1AnW98HHkkugbTlR85wm2bhLF1vCOod0jiSg5wT8-95A3-hVm1]--></g></svg>