<svg xmlns="http://www.w3.org/2000/svg" xmlns:xlink="http://www.w3.org/1999/xlink" contentStyleType="text/css" data-diagram-type="DESCRIPTION" height="1176px" preserveAspectRatio="none" style="width:467px;height:1176px;background:#FFFFFF;" version="1.1" viewBox="0 0 467 1176" width="467px" zoomAndPan="magnify"><defs/><g><!--cluster masterdata--><g class="cluster" data-entity="masterdata" data-source-line="5" data-uid="ent0003" id="cluster_masterdata"><rect fill="none" height="1091" rx="2.5" ry="2.5" style="stroke:#181818;stroke-width:1;" width="454" x="7" y="79"/><text fill="#000000" font-family="sans-serif" font-size="20" font-style="italic" lengthAdjust="spacing" textLength="140.0879" x="163.9561" y="101.7617">&#171;Container C4&#187;</text><text fill="#000000" font-family="sans-serif" font-size="20" font-weight="bold" lengthAdjust="spacing" textLength="113.3789" x="177.3105" y="126.918">Master Data</text></g><!--entity empty1--><!--entity controller--><g class="entity" data-entity="controller" data-source-line="8" data-uid="ent0005" id="entity_controller"><rect fill="#F1F1F1" height="55.1563" rx="2.5" ry="2.5" style="stroke:#181818;stroke-width:0.5;" width="222.3047" x="25" y="148"/><rect fill="#F1F1F1" height="10" style="stroke:#181818;stroke-width:0.5;" width="15" x="227.3047" y="153"/><rect fill="#F1F1F1" height="2" style="stroke:#181818;stroke-width:0.5;" width="4" x="225.3047" y="155"/><rect fill="#F1F1F1" height="2" style="stroke:#181818;stroke-width:0.5;" width="4" x="225.3047" y="159"/><text fill="#000000" font-family="sans-serif" font-size="20" lengthAdjust="spacing" textLength="182.3047" x="40" y="188.7617">BackEnd Controllers</text></g><!--entity service--><g class="entity" data-entity="service" data-source-line="10" data-uid="ent0006" id="entity_service"><rect fill="#F1F1F1" height="55.1563" rx="2.5" ry="2.5" style="stroke:#181818;stroke-width:0.5;" width="202.2949" x="35" y="521"/><rect fill="#F1F1F1" height="10" style="stroke:#181818;stroke-width:0.5;" width="15" x="217.2949" y="526"/><rect fill="#F1F1F1" height="2" style="stroke:#181818;stroke-width:0.5;" width="4" x="215.2949" y="528"/><rect fill="#F1F1F1" height="2" style="stroke:#181818;stroke-width:0.5;" width="4" x="215.2949" y="532"/><text fill="#000000" font-family="sans-serif" font-size="20" lengthAdjust="spacing" textLength="162.2949" x="50" y="561.7617">BackEnd Services</text></g><!--entity empty2--><!--entity repository--><g class="entity" data-entity="repository" data-source-line="13" data-uid="ent0008" id="entity_repository"><rect fill="#F1F1F1" height="55.1563" rx="2.5" ry="2.5" style="stroke:#181818;stroke-width:0.5;" width="236.7676" x="23.5" y="894"/><rect fill="#F1F1F1" height="10" style="stroke:#181818;stroke-width:0.5;" width="15" x="240.2676" y="899"/><rect fill="#F1F1F1" height="2" style="stroke:#181818;stroke-width:0.5;" width="4" x="238.2676" y="901"/><rect fill="#F1F1F1" height="2" style="stroke:#181818;stroke-width:0.5;" width="4" x="238.2676" y="905"/><text fill="#000000" font-family="sans-serif" font-size="20" lengthAdjust="spacing" textLength="196.7676" x="38.5" y="934.7617">BackEnd Repositories</text></g><!--entity empty3--><!--entity dtos--><g class="entity" data-entity="dtos" data-source-line="16" data-uid="ent0010" id="entity_dtos"><rect fill="#F1F1F1" height="55.1563" rx="2.5" ry="2.5" style="stroke:#181818;stroke-width:0.5;" width="82.2168" x="290" y="334.5"/><rect fill="#F1F1F1" height="10" style="stroke:#181818;stroke-width:0.5;" width="15" x="352.2168" y="339.5"/><rect fill="#F1F1F1" height="2" style="stroke:#181818;stroke-width:0.5;" width="4" x="350.2168" y="341.5"/><rect fill="#F1F1F1" height="2" style="stroke:#181818;stroke-width:0.5;" width="4" x="350.2168" y="345.5"/><text fill="#000000" font-family="sans-serif" font-size="20" lengthAdjust="spacing" textLength="42.2168" x="305" y="375.2617">DTO</text></g><!--entity domain--><g class="entity" data-entity="domain" data-source-line="17" data-uid="ent0011" id="entity_domain"><rect fill="#F1F1F1" height="55.1563" rx="2.5" ry="2.5" style="stroke:#181818;stroke-width:0.5;" width="194.5215" x="249.5" y="707.5"/><rect fill="#F1F1F1" height="10" style="stroke:#181818;stroke-width:0.5;" width="15" x="424.0215" y="712.5"/><rect fill="#F1F1F1" height="2" style="stroke:#181818;stroke-width:0.5;" width="4" x="422.0215" y="714.5"/><rect fill="#F1F1F1" height="2" style="stroke:#181818;stroke-width:0.5;" width="4" x="422.0215" y="718.5"/><text fill="#000000" font-family="sans-serif" font-size="20" lengthAdjust="spacing" textLength="154.5215" x="264.5" y="748.2617">BackEnd Domain</text></g><!--entity database--><g class="entity" data-entity="database" data-source-line="18" data-uid="ent0012" id="entity_database"><path d="M89,1085 C89,1075 141.8076,1075 141.8076,1075 C141.8076,1075 194.6152,1075 194.6152,1085 L194.6152,1144.3125 C194.6152,1154.3125 141.8076,1154.3125 141.8076,1154.3125 C141.8076,1154.3125 89,1154.3125 89,1144.3125 L89,1085" fill="#F1F1F1" style="stroke:#181818;stroke-width:0.5;"/><path d="M89,1085 C89,1095 141.8076,1095 141.8076,1095 C141.8076,1095 194.6152,1095 194.6152,1085" fill="none" style="stroke:#181818;stroke-width:0.5;"/><text fill="#000000" font-family="sans-serif" font-size="20" lengthAdjust="spacing" textLength="77.832" x="99" y="1119.7617">Backend</text><text fill="#000000" font-family="sans-serif" font-size="20" lengthAdjust="spacing" textLength="85.6152" x="99" y="1144.918">Database</text></g><!--entity api--><g class="entity" data-entity="api" data-source-line="3" data-uid="ent0002" id="entity_api"><ellipse cx="136" cy="14" fill="#F1F1F1" rx="8" ry="8" style="stroke:#181818;stroke-width:0.5;"/></g><!--link api to controller--><g class="link" data-entity-1="api" data-entity-2="controller" data-source-line="25" data-uid="lnk13" id="link_api_controller"><path d="M136,23.13 C136,45.86 136,110.81 136,147.82" fill="none" id="api-controller" style="stroke:#181818;stroke-width:1;"/></g><!--link controller to dtos--><g class="link" data-entity-1="controller" data-entity-2="dtos" data-source-line="28" data-uid="lnk14" id="link_controller_dtos"><path d="M164.35,203.33 C201.43,238.41 265.99,299.49 302.93,334.44" fill="none" id="controller-dtos" style="stroke:#181818;stroke-width:1;"/><text fill="#000000" font-family="sans-serif" font-size="20" lengthAdjust="spacing" textLength="42.2168" x="270" y="261.7617">DTO</text><text fill="#000000" font-family="sans-serif" font-size="20" lengthAdjust="spacing" textLength="32.2363" x="274.9902" y="286.918">API</text><path d="M233.4156,258.9376 A10,10 0 0 0 223.6963 269.2106" fill="none" style="stroke:#181818;stroke-width:1.5;"/><ellipse cx="233.6925" cy="268.9338" fill="#FFFFFF" rx="6" ry="6" style="stroke:#181818;stroke-width:1.5;"/></g><!--link controller to service--><g class="link" data-entity-1="controller" data-entity-2="service" data-source-line="29" data-uid="lnk15" id="link_controller_service"><path d="M136,203.18 C136,271.55 136,452.43 136,520.81" fill="none" id="controller-service" style="stroke:#181818;stroke-width:1;"/><text fill="#000000" font-family="sans-serif" font-size="20" lengthAdjust="spacing" textLength="87.8027" x="144" y="357.7617">SERVICE</text><text fill="#000000" font-family="sans-serif" font-size="20" lengthAdjust="spacing" textLength="32.2363" x="171.7832" y="382.918">API</text><path d="M143.0711,354.9202 A10,10 0 0 0 128.9289 354.9202" fill="none" style="stroke:#181818;stroke-width:1.5;"/><ellipse cx="136" cy="361.9912" fill="#FFFFFF" rx="6" ry="6" style="stroke:#181818;stroke-width:1.5;"/></g><!--link controller to empty1--><!--link empty1 to dtos--><!--link dtos to service--><g class="link" data-entity-1="dtos" data-entity-2="service" data-source-line="34" data-uid="lnk20" id="link_dtos_service"><path d="M302.65,389.83 C265.57,424.91 201.01,485.99 164.07,520.94" fill="none" id="dtos-service" style="stroke:#181818;stroke-width:1;"/><text fill="#000000" font-family="sans-serif" font-size="20" lengthAdjust="spacing" textLength="42.2168" x="270" y="453.7617">DTO</text><text fill="#000000" font-family="sans-serif" font-size="20" lengthAdjust="spacing" textLength="32.2363" x="274.9902" y="478.918">API</text><path d="M223.3113,455.1569 A10,10 0 0 0 233.0306 465.4299" fill="none" style="stroke:#181818;stroke-width:1.5;"/><ellipse cx="233.3075" cy="455.4338" fill="#FFFFFF" rx="6" ry="6" style="stroke:#181818;stroke-width:1.5;"/></g><!--link service to empty2--><!--link dtos to empty2--><!--link service to repository--><g class="link" data-entity-1="service" data-entity-2="repository" data-source-line="39" data-uid="lnk25" id="link_service_repository"><path d="M134.78,576.06 C132.78,619.76 129,702 129,702 C129,702 129,768 129,768 C129,768 136.01,850.24 139.74,893.94" fill="none" id="service-repository" style="stroke:#181818;stroke-width:1;"/><text fill="#000000" font-family="sans-serif" font-size="20" lengthAdjust="spacing" textLength="87.8027" x="137" y="730.7617">SERVICE</text><text fill="#000000" font-family="sans-serif" font-size="20" lengthAdjust="spacing" textLength="32.2363" x="164.7832" y="755.918">API</text><path d="M136.0711,727.9289 A10,10 0 0 0 121.9289 727.9289" fill="none" style="stroke:#181818;stroke-width:1.5;"/><ellipse cx="129" cy="735" fill="#FFFFFF" rx="6" ry="6" style="stroke:#181818;stroke-width:1.5;"/></g><!--link service to domain--><g class="link" data-entity-1="service" data-entity-2="domain" data-source-line="40" data-uid="lnk26" id="link_service_domain"><path d="M159.22,576.08 C190.69,612.11 243,672 243,672 C243,672 274.1,690.54 302.29,707.35" fill="none" id="service-domain" style="stroke:#181818;stroke-width:1;"/><text fill="#000000" font-family="sans-serif" font-size="20" lengthAdjust="spacing" textLength="80" x="251" y="634.7617">DOMAIN</text><text fill="#000000" font-family="sans-serif" font-size="20" lengthAdjust="spacing" textLength="32.2363" x="274.8818" y="659.918">API</text><path d="M213.5853,627.574 A10,10 0 0 0 202.934 636.8772" fill="none" style="stroke:#181818;stroke-width:1.5;"/><ellipse cx="212.9113" cy="637.5513" fill="#FFFFFF" rx="6" ry="6" style="stroke:#181818;stroke-width:1.5;"/></g><!--link domain to repository--><g class="link" data-entity-1="domain" data-entity-2="repository" data-source-line="41" data-uid="lnk28" id="link_domain_repository"><path d="M305.73,762.65 C279.71,779.46 251,798 251,798 C251,798 197.71,857.89 165.65,893.92" fill="none" id="domain-repository" style="stroke:#181818;stroke-width:1;"/><text fill="#000000" font-family="sans-serif" font-size="20" lengthAdjust="spacing" textLength="80" x="259" y="826.7617">DOMAIN</text><text fill="#000000" font-family="sans-serif" font-size="20" lengthAdjust="spacing" textLength="32.2363" x="282.8818" y="851.918">API</text><path d="M210.3645,833.0309 A10,10 0 0 0 220.9296 842.4318" fill="none" style="stroke:#181818;stroke-width:1.5;"/><ellipse cx="220.3475" cy="832.4488" fill="#FFFFFF" rx="6" ry="6" style="stroke:#181818;stroke-width:1.5;"/></g><!--link repository to empty3--><!--link empty2 to domain--><!--link domain to empty3--><!--link repository to database--><g class="link" data-entity-1="repository" data-entity-2="database" data-source-line="46" data-uid="lnk34" id="link_repository_database"><path d="M142,949.06 C142,981.76 142,1037.54 142,1074.96" fill="none" id="repository-database" style="stroke:#181818;stroke-width:1;"/><text fill="#000000" font-family="sans-serif" font-size="20" lengthAdjust="spacing" textLength="106.6992" x="150" y="1007.7617">DATABASE</text><text fill="#000000" font-family="sans-serif" font-size="20" lengthAdjust="spacing" textLength="32.2363" x="187.2314" y="1032.918">API</text><path d="M149.0711,1003.1689 A10,10 0 0 0 134.9289 1003.1689" fill="none" style="stroke:#181818;stroke-width:1.5;"/><ellipse cx="142" cy="1010.24" fill="#FFFFFF" rx="6" ry="6" style="stroke:#181818;stroke-width:1.5;"/></g><!--SRC=[RL9DJm8n43tJNp71WrusuSEJ8IJBXmc9Y07ZHJpKxI0DIxjfkneq_dVRRhiiIFRIUNtptlJDwXqN1LLqdyjiXmmORcYPctifp8f_8_GwH4SAF721vb0W538_vBOW9ECgon7QzgCQQC49KPWPAZuSEgVQe889DTJVxttDR0c3mTXwK2kYO7mx7C8FQP7Mgv9Vq0NS5-RmvZhygGjN2fcz7T5iDnKCNAkIUOvAUrPMrwJ1Mg7wv1bM55qLmQ9tRj6hB1hTIooavaOg7XHK10v1f7ykqgz59iyB3pCZTKDp8lVsnTMDFvAM2-ETQXkM8w5WQp49a8yitblLBMSO0caMlMRH9xz0YDq39Cb9BDVWHfO2WHnXIDXD9_5JmXsqxTHhaJxDsYSKnmZfET9gkdoPZQU16FQJv2Tk4MMLTdGtMuL8ebPINlOE-t2ISMaHAciz9xUHfJgg-PSST_H_r9hfRNtytdWnJsUFWTFe3-DTveLrknaRlqKSayM-cbVMo8b5bNxy0vn9-foEqbKScVm1]--></g></svg>