<svg xmlns="http://www.w3.org/2000/svg" xmlns:xlink="http://www.w3.org/1999/xlink" contentStyleType="text/css" data-diagram-type="CLASS" height="1722px" preserveAspectRatio="none" style="width:1422px;height:1722px;background:#FFFFFF;" version="1.1" viewBox="0 0 1422 1722" width="1422px" zoomAndPan="magnify"><title>US4114 - Manage Complementary Task Categories Catalog</title><defs/><g><text fill="#000000" font-family="sans-serif" font-size="14" font-weight="bold" lengthAdjust="spacing" textLength="464.8164" x="471.5918" y="22.9951">US4114 - Manage Complementary Task Categories Catalog</text><!--cluster Domain--><g class="cluster" data-entity="Domain" data-source-line="4" data-uid="ent0002" id="cluster_Domain"><path d="M1099.5,1286.5137 L1186.2715,1286.5137 A3.75,3.75 0 0 1 1188.7715,1289.0137 L1195.7715,1315.7949 L1412.5,1315.7949 A2.5,2.5 0 0 1 1415,1318.2949 L1415,1713.0137 A2.5,2.5 0 0 1 1412.5,1715.5137 L1099.5,1715.5137 A2.5,2.5 0 0 1 1097,1713.0137 L1097,1289.0137 A2.5,2.5 0 0 1 1099.5,1286.5137" fill="none" style="stroke:#000000;stroke-width:1.5;"/><line style="stroke:#000000;stroke-width:1.5;" x1="1097" x2="1195.7715" y1="1315.7949" y2="1315.7949"/><text fill="#000000" font-family="sans-serif" font-size="20" font-weight="bold" lengthAdjust="spacing" textLength="85.7715" x="1101" y="1307.0781">Domain</text></g><!--cluster DTO--><g class="cluster" data-entity="DTO" data-source-line="21" data-uid="ent0005" id="cluster_DTO"><path d="M260.5,1298.0137 L308.7461,1298.0137 A3.75,3.75 0 0 1 311.2461,1300.5137 L318.2461,1327.2949 L806.5,1327.2949 A2.5,2.5 0 0 1 809,1329.7949 L809,1713.0137 A2.5,2.5 0 0 1 806.5,1715.5137 L260.5,1715.5137 A2.5,2.5 0 0 1 258,1713.0137 L258,1300.5137 A2.5,2.5 0 0 1 260.5,1298.0137" fill="none" style="stroke:#000000;stroke-width:1.5;"/><line style="stroke:#000000;stroke-width:1.5;" x1="258" x2="318.2461" y1="1327.2949" y2="1327.2949"/><text fill="#000000" font-family="sans-serif" font-size="20" font-weight="bold" lengthAdjust="spacing" textLength="47.2461" x="262" y="1318.5781">DTO</text></g><!--cluster Repository--><g class="cluster" data-entity="Repository" data-source-line="43" data-uid="ent0009" id="cluster_Repository"><path d="M710.5,700.5137 L833.4824,700.5137 A3.75,3.75 0 0 1 835.9824,703.0137 L842.9824,729.7949 L1349.5,729.7949 A2.5,2.5 0 0 1 1352,732.2949 L1352,992.0137 A2.5,2.5 0 0 1 1349.5,994.5137 L710.5,994.5137 A2.5,2.5 0 0 1 708,992.0137 L708,703.0137 A2.5,2.5 0 0 1 710.5,700.5137" fill="none" style="stroke:#000000;stroke-width:1.5;"/><line style="stroke:#000000;stroke-width:1.5;" x1="708" x2="842.9824" y1="729.7949" y2="729.7949"/><text fill="#000000" font-family="sans-serif" font-size="20" font-weight="bold" lengthAdjust="spacing" textLength="121.9824" x="712" y="721.0781">Repository</text></g><!--cluster Mapper--><g class="cluster" data-entity="Mapper" data-source-line="57" data-uid="ent0011" id="cluster_Mapper"><path d="M710.5,1051.5137 L796.959,1051.5137 A3.75,3.75 0 0 1 799.459,1054.0137 L806.459,1080.7949 L1261.5,1080.7949 A2.5,2.5 0 0 1 1264,1083.2949 L1264,1227.0137 A2.5,2.5 0 0 1 1261.5,1229.5137 L710.5,1229.5137 A2.5,2.5 0 0 1 708,1227.0137 L708,1054.0137 A2.5,2.5 0 0 1 710.5,1051.5137" fill="none" style="stroke:#000000;stroke-width:1.5;"/><line style="stroke:#000000;stroke-width:1.5;" x1="708" x2="806.459" y1="1080.7949" y2="1080.7949"/><text fill="#000000" font-family="sans-serif" font-size="20" font-weight="bold" lengthAdjust="spacing" textLength="85.459" x="712" y="1072.0781">Mapper</text></g><!--cluster Service--><g class="cluster" data-entity="Service" data-source-line="66" data-uid="ent0013" id="cluster_Service"><path d="M567.5,325.5137 L651.6445,325.5137 A3.75,3.75 0 0 1 654.1445,328.0137 L661.1445,354.7949 L1232.5,354.7949 A2.5,2.5 0 0 1 1235,357.2949 L1235,641.0137 A2.5,2.5 0 0 1 1232.5,643.5137 L567.5,643.5137 A2.5,2.5 0 0 1 565,641.0137 L565,328.0137 A2.5,2.5 0 0 1 567.5,325.5137" fill="none" style="stroke:#000000;stroke-width:1.5;"/><line style="stroke:#000000;stroke-width:1.5;" x1="565" x2="661.1445" y1="354.7949" y2="354.7949"/><text fill="#000000" font-family="sans-serif" font-size="20" font-weight="bold" lengthAdjust="spacing" textLength="83.1445" x="569" y="346.0781">Service</text></g><!--cluster Controller--><g class="cluster" data-entity="Controller" data-source-line="81" data-uid="ent0015" id="cluster_Controller"><path d="M8.5,44.5137 L122.459,44.5137 A3.75,3.75 0 0 1 124.959,47.0137 L131.959,73.7949 L931.5,73.7949 A2.5,2.5 0 0 1 934,76.2949 L934,266.0137 A2.5,2.5 0 0 1 931.5,268.5137 L8.5,268.5137 A2.5,2.5 0 0 1 6,266.0137 L6,47.0137 A2.5,2.5 0 0 1 8.5,44.5137" fill="none" style="stroke:#000000;stroke-width:1.5;"/><line style="stroke:#000000;stroke-width:1.5;" x1="6" x2="131.959" y1="73.7949" y2="73.7949"/><text fill="#000000" font-family="sans-serif" font-size="20" font-weight="bold" lengthAdjust="spacing" textLength="112.959" x="10" y="65.0781">Controller</text></g><!--class TaskCategory--><g class="entity" data-entity="TaskCategory" data-source-line="5" data-uid="ent0003" id="entity_TaskCategory"><rect fill="#F1F1F1" height="166.4063" rx="2.5" ry="2.5" style="stroke:#181818;stroke-width:0.5;" width="284.5684" x="1113.5" y="1328.5137"/><ellipse cx="1182.3682" cy="1345.5137" fill="#ADD1B2" rx="12" ry="12" style="stroke:#181818;stroke-width:1;"/><path d="M1185.4307,1352.5918 Q1184.7432,1352.9512 1183.9932,1353.123 Q1183.2432,1353.2949 1182.415,1353.2949 Q1179.4619,1353.2949 1177.8994,1351.3574 Q1176.3525,1349.4043 1176.3525,1345.7324 Q1176.3525,1342.0605 1177.8994,1340.123 Q1179.4619,1338.1699 1182.415,1338.1699 Q1183.2432,1338.1699 1183.9932,1338.3418 Q1184.7588,1338.5137 1185.4307,1338.873 L1185.4307,1342.0762 Q1184.6807,1341.3887 1183.9775,1341.0762 Q1183.29,1340.7637 1182.54,1340.7637 Q1180.9619,1340.7637 1180.1494,1342.0137 Q1179.3525,1343.2637 1179.3525,1345.7324 Q1179.3525,1348.2012 1180.1494,1349.4512 Q1180.9619,1350.7012 1182.54,1350.7012 Q1183.29,1350.7012 1183.9775,1350.3887 Q1184.6807,1350.0762 1185.4307,1349.3887 L1185.4307,1352.5918 Z " fill="#000000"/><text fill="#000000" font-family="sans-serif" font-size="20" lengthAdjust="spacing" textLength="137.832" x="1204.3682" y="1352.4375">TaskCategory</text><line style="stroke:#181818;stroke-width:0.5;" x1="1114.5" x2="1397.0684" y1="1362.5137" y2="1362.5137"/><rect fill="none" height="6" style="stroke:#C82930;stroke-width:1;" width="6" x="1121.5" y="1376.6543"/><text fill="#000000" font-family="sans-serif" font-size="20" lengthAdjust="spacing" textLength="88.7598" x="1134.5" y="1385.0781">id: string</text><rect fill="none" height="6" style="stroke:#C82930;stroke-width:1;" width="6" x="1121.5" y="1399.9355"/><text fill="#000000" font-family="sans-serif" font-size="20" lengthAdjust="spacing" textLength="171.2793" x="1134.5" y="1408.3594">category: IdCode</text><rect fill="none" height="6" style="stroke:#C82930;stroke-width:1;" width="6" x="1121.5" y="1423.2168"/><text fill="#000000" font-family="sans-serif" font-size="20" lengthAdjust="spacing" textLength="127.2266" x="1134.5" y="1431.6406">name: string</text><rect fill="none" height="6" style="stroke:#C82930;stroke-width:1;" width="6" x="1121.5" y="1446.498"/><text fill="#000000" font-family="sans-serif" font-size="20" lengthAdjust="spacing" textLength="181.709" x="1134.5" y="1454.9219">description: string</text><line style="stroke:#181818;stroke-width:0.5;" x1="1114.5" x2="1397.0684" y1="1463.6387" y2="1463.6387"/><ellipse cx="1124.5" cy="1480.7793" fill="#84BE84" rx="3" ry="3" style="stroke:#038048;stroke-width:1;"/><text fill="#000000" font-family="sans-serif" font-size="20" lengthAdjust="spacing" textLength="257.5684" x="1134.5" y="1486.2031">toDto(): TaskCategoryDto</text></g><!--class IdCode--><g class="entity" data-entity="IdCode" data-source-line="13" data-uid="ent0004" id="entity_IdCode"><rect fill="#F1F1F1" height="119.8438" rx="2.5" ry="2.5" style="stroke:#181818;stroke-width:0.5;" width="202.4297" x="1155" y="1579.5137"/><ellipse cx="1216.8174" cy="1596.5137" fill="#ADD1B2" rx="12" ry="12" style="stroke:#181818;stroke-width:1;"/><path d="M1219.8799,1603.5918 Q1219.1924,1603.9512 1218.4424,1604.123 Q1217.6924,1604.2949 1216.8643,1604.2949 Q1213.9111,1604.2949 1212.3486,1602.3574 Q1210.8018,1600.4043 1210.8018,1596.7324 Q1210.8018,1593.0605 1212.3486,1591.123 Q1213.9111,1589.1699 1216.8643,1589.1699 Q1217.6924,1589.1699 1218.4424,1589.3418 Q1219.208,1589.5137 1219.8799,1589.873 L1219.8799,1593.0762 Q1219.1299,1592.3887 1218.4268,1592.0762 Q1217.7393,1591.7637 1216.9893,1591.7637 Q1215.4111,1591.7637 1214.5986,1593.0137 Q1213.8018,1594.2637 1213.8018,1596.7324 Q1213.8018,1599.2012 1214.5986,1600.4512 Q1215.4111,1601.7012 1216.9893,1601.7012 Q1217.7393,1601.7012 1218.4268,1601.3887 Q1219.1299,1601.0762 1219.8799,1600.3887 L1219.8799,1603.5918 Z " fill="#000000"/><text fill="#000000" font-family="sans-serif" font-size="20" lengthAdjust="spacing" textLength="69.7949" x="1238.8174" y="1603.4375">IdCode</text><line style="stroke:#181818;stroke-width:0.5;" x1="1156" x2="1356.4297" y1="1613.5137" y2="1613.5137"/><rect fill="none" height="6" style="stroke:#C82930;stroke-width:1;" width="6" x="1163" y="1627.6543"/><text fill="#000000" font-family="sans-serif" font-size="20" lengthAdjust="spacing" textLength="125.1367" x="1176" y="1636.0781">value: string</text><line style="stroke:#181818;stroke-width:0.5;" x1="1156" x2="1356.4297" y1="1644.7949" y2="1644.7949"/><ellipse cx="1166" cy="1661.9355" fill="#84BE84" rx="3" ry="3" style="stroke:#038048;stroke-width:1;"/><text fill="#000000" font-family="sans-serif" font-size="20" lengthAdjust="spacing" textLength="175.4297" x="1176" y="1667.3594">getValue(): string</text><ellipse cx="1166" cy="1685.2168" fill="#84BE84" rx="3" ry="3" style="stroke:#038048;stroke-width:1;"/><text fill="#000000" font-family="sans-serif" font-size="20" lengthAdjust="spacing" textLength="174.3848" x="1176" y="1690.6406">isValid(): boolean</text></g><!--class TaskCategoryDto--><g class="entity" data-entity="TaskCategoryDto" data-source-line="22" data-uid="ent0006" id="entity_TaskCategoryDto"><rect fill="#F1F1F1" height="143.125" rx="2.5" ry="2.5" style="stroke:#181818;stroke-width:0.5;" width="208.709" x="583.5" y="1340.0137"/><ellipse cx="600.1293" cy="1357.0137" fill="#ADD1B2" rx="12" ry="12" style="stroke:#181818;stroke-width:1;"/><path d="M603.1918,1364.0918 Q602.5043,1364.4512 601.7543,1364.623 Q601.0043,1364.7949 600.1762,1364.7949 Q597.223,1364.7949 595.6605,1362.8574 Q594.1137,1360.9043 594.1137,1357.2324 Q594.1137,1353.5605 595.6605,1351.623 Q597.223,1349.6699 600.1762,1349.6699 Q601.0043,1349.6699 601.7543,1349.8418 Q602.5199,1350.0137 603.1918,1350.373 L603.1918,1353.5762 Q602.4418,1352.8887 601.7387,1352.5762 Q601.0512,1352.2637 600.3012,1352.2637 Q598.723,1352.2637 597.9105,1353.5137 Q597.1137,1354.7637 597.1137,1357.2324 Q597.1137,1359.7012 597.9105,1360.9512 Q598.723,1362.2012 600.3012,1362.2012 Q601.0512,1362.2012 601.7387,1361.8887 Q602.4418,1361.5762 603.1918,1360.8887 L603.1918,1364.0918 Z " fill="#000000"/><text fill="#000000" font-family="sans-serif" font-size="20" lengthAdjust="spacing" textLength="173.3105" x="615.2691" y="1363.9375">TaskCategoryDto</text><line style="stroke:#181818;stroke-width:0.5;" x1="584.5" x2="791.209" y1="1374.0137" y2="1374.0137"/><rect fill="none" height="6" style="stroke:#C82930;stroke-width:1;" width="6" x="591.5" y="1388.1543"/><text fill="#000000" font-family="sans-serif" font-size="20" lengthAdjust="spacing" textLength="88.7598" x="604.5" y="1396.5781">id: string</text><rect fill="none" height="6" style="stroke:#C82930;stroke-width:1;" width="6" x="591.5" y="1411.4355"/><text fill="#000000" font-family="sans-serif" font-size="20" lengthAdjust="spacing" textLength="158.8965" x="604.5" y="1419.8594">category: string</text><rect fill="none" height="6" style="stroke:#C82930;stroke-width:1;" width="6" x="591.5" y="1434.7168"/><text fill="#000000" font-family="sans-serif" font-size="20" lengthAdjust="spacing" textLength="127.2266" x="604.5" y="1443.1406">name: string</text><rect fill="none" height="6" style="stroke:#C82930;stroke-width:1;" width="6" x="591.5" y="1457.998"/><text fill="#000000" font-family="sans-serif" font-size="20" lengthAdjust="spacing" textLength="181.709" x="604.5" y="1466.4219">description: string</text><line style="stroke:#181818;stroke-width:0.5;" x1="584.5" x2="791.209" y1="1475.1387" y2="1475.1387"/></g><!--class CreateTaskCategoryDto--><g class="entity" data-entity="CreateTaskCategoryDto" data-source-line="29" data-uid="ent0007" id="entity_CreateTaskCategoryDto"><rect fill="#F1F1F1" height="119.8438" rx="2.5" ry="2.5" style="stroke:#181818;stroke-width:0.5;" width="274.2051" x="274" y="1351.5137"/><ellipse cx="290" cy="1368.5137" fill="#ADD1B2" rx="12" ry="12" style="stroke:#181818;stroke-width:1;"/><path d="M293.0625,1375.5918 Q292.375,1375.9512 291.625,1376.123 Q290.875,1376.2949 290.0469,1376.2949 Q287.0938,1376.2949 285.5313,1374.3574 Q283.9844,1372.4043 283.9844,1368.7324 Q283.9844,1365.0605 285.5313,1363.123 Q287.0938,1361.1699 290.0469,1361.1699 Q290.875,1361.1699 291.625,1361.3418 Q292.3906,1361.5137 293.0625,1361.873 L293.0625,1365.0762 Q292.3125,1364.3887 291.6094,1364.0762 Q290.9219,1363.7637 290.1719,1363.7637 Q288.5938,1363.7637 287.7813,1365.0137 Q286.9844,1366.2637 286.9844,1368.7324 Q286.9844,1371.2012 287.7813,1372.4512 Q288.5938,1373.7012 290.1719,1373.7012 Q290.9219,1373.7012 291.6094,1373.3887 Q292.3125,1373.0762 293.0625,1372.3887 L293.0625,1375.5918 Z " fill="#000000"/><text fill="#000000" font-family="sans-serif" font-size="20" lengthAdjust="spacing" textLength="240.2051" x="305" y="1375.4375">CreateTaskCategoryDto</text><line style="stroke:#181818;stroke-width:0.5;" x1="275" x2="547.2051" y1="1385.5137" y2="1385.5137"/><rect fill="none" height="6" style="stroke:#C82930;stroke-width:1;" width="6" x="282" y="1399.6543"/><text fill="#000000" font-family="sans-serif" font-size="20" lengthAdjust="spacing" textLength="158.8965" x="295" y="1408.0781">category: string</text><rect fill="none" height="6" style="stroke:#C82930;stroke-width:1;" width="6" x="282" y="1422.9355"/><text fill="#000000" font-family="sans-serif" font-size="20" lengthAdjust="spacing" textLength="127.2266" x="295" y="1431.3594">name: string</text><rect fill="none" height="6" style="stroke:#C82930;stroke-width:1;" width="6" x="282" y="1446.2168"/><text fill="#000000" font-family="sans-serif" font-size="20" lengthAdjust="spacing" textLength="181.709" x="295" y="1454.6406">description: string</text><line style="stroke:#181818;stroke-width:0.5;" x1="275" x2="547.2051" y1="1463.3574" y2="1463.3574"/></g><!--class TaskCategoryFilter--><g class="entity" data-entity="TaskCategoryFilter" data-source-line="35" data-uid="ent0008" id="entity_TaskCategoryFilter"><rect fill="#F1F1F1" height="119.8438" rx="2.5" ry="2.5" style="stroke:#181818;stroke-width:0.5;" width="248.4453" x="409" y="1579.5137"/><ellipse cx="436.5321" cy="1596.5137" fill="#ADD1B2" rx="12" ry="12" style="stroke:#181818;stroke-width:1;"/><path d="M439.5946,1603.5918 Q438.9071,1603.9512 438.1571,1604.123 Q437.4071,1604.2949 436.579,1604.2949 Q433.6259,1604.2949 432.0634,1602.3574 Q430.5165,1600.4043 430.5165,1596.7324 Q430.5165,1593.0605 432.0634,1591.123 Q433.6259,1589.1699 436.579,1589.1699 Q437.4071,1589.1699 438.1571,1589.3418 Q438.9228,1589.5137 439.5946,1589.873 L439.5946,1593.0762 Q438.8446,1592.3887 438.1415,1592.0762 Q437.454,1591.7637 436.704,1591.7637 Q435.1259,1591.7637 434.3134,1593.0137 Q433.5165,1594.2637 433.5165,1596.7324 Q433.5165,1599.2012 434.3134,1600.4512 Q435.1259,1601.7012 436.704,1601.7012 Q437.454,1601.7012 438.1415,1601.3887 Q438.8446,1601.0762 439.5946,1600.3887 L439.5946,1603.5918 Z " fill="#000000"/><text fill="#000000" font-family="sans-serif" font-size="20" lengthAdjust="spacing" textLength="188.8184" x="454.0948" y="1603.4375">TaskCategoryFilter</text><line style="stroke:#181818;stroke-width:0.5;" x1="410" x2="656.4453" y1="1613.5137" y2="1613.5137"/><rect fill="none" height="6" style="stroke:#C82930;stroke-width:1;" width="6" x="417" y="1627.6543"/><text fill="#000000" font-family="sans-serif" font-size="20" lengthAdjust="spacing" textLength="221.4453" x="430" y="1636.0781">pageNumber: number</text><rect fill="none" height="6" style="stroke:#C82930;stroke-width:1;" width="6" x="417" y="1650.9355"/><text fill="#000000" font-family="sans-serif" font-size="20" lengthAdjust="spacing" textLength="182.1582" x="430" y="1659.3594">pageSize: number</text><rect fill="none" height="6" style="stroke:#C82930;stroke-width:1;" width="6" x="417" y="1674.2168"/><text fill="#000000" font-family="sans-serif" font-size="20" lengthAdjust="spacing" textLength="127.2266" x="430" y="1682.6406">name: string</text><line style="stroke:#181818;stroke-width:0.5;" x1="410" x2="656.4453" y1="1691.3574" y2="1691.3574"/></g><!--class TaskCategoryRepository--><g class="entity" data-entity="TaskCategoryRepository" data-source-line="44" data-uid="ent0010" id="entity_TaskCategoryRepository"><rect fill="#F1F1F1" height="236.25" rx="2.5" ry="2.5" style="stroke:#181818;stroke-width:0.5;" width="610.5742" x="724.5" y="742.5137"/><ellipse cx="902.748" cy="759.5137" fill="#ADD1B2" rx="12" ry="12" style="stroke:#181818;stroke-width:1;"/><path d="M905.8105,766.5918 Q905.123,766.9512 904.373,767.123 Q903.623,767.2949 902.7949,767.2949 Q899.8418,767.2949 898.2793,765.3574 Q896.7324,763.4043 896.7324,759.7324 Q896.7324,756.0605 898.2793,754.123 Q899.8418,752.1699 902.7949,752.1699 Q903.623,752.1699 904.373,752.3418 Q905.1387,752.5137 905.8105,752.873 L905.8105,756.0762 Q905.0605,755.3887 904.3574,755.0762 Q903.6699,754.7637 902.9199,754.7637 Q901.3418,754.7637 900.5293,756.0137 Q899.7324,757.2637 899.7324,759.7324 Q899.7324,762.2012 900.5293,763.4512 Q901.3418,764.7012 902.9199,764.7012 Q903.6699,764.7012 904.3574,764.3887 Q905.0605,764.0762 905.8105,763.3887 L905.8105,766.5918 Z " fill="#000000"/><text fill="#000000" font-family="sans-serif" font-size="20" lengthAdjust="spacing" textLength="245.0781" x="924.748" y="766.4375">TaskCategoryRepository</text><line style="stroke:#181818;stroke-width:0.5;" x1="725.5" x2="1334.0742" y1="776.5137" y2="776.5137"/><line style="stroke:#181818;stroke-width:0.5;" x1="725.5" x2="1334.0742" y1="784.5137" y2="784.5137"/><rect fill="#F24D5C" height="6" style="stroke:#C82930;stroke-width:1;" width="6" x="732.5" y="798.6543"/><text fill="#000000" font-family="sans-serif" font-size="20" lengthAdjust="spacing" textLength="583.5742" x="745.5" y="807.0781">create(category: TaskCategory): Promise&lt;TaskCategory&gt;</text><rect fill="#F24D5C" height="6" style="stroke:#C82930;stroke-width:1;" width="6" x="732.5" y="821.9355"/><text fill="#000000" font-family="sans-serif" font-size="20" lengthAdjust="spacing" textLength="489.2871" x="745.5" y="830.3594">getById(id: string): Promise&lt;TaskCategory|null&gt;</text><rect fill="#F24D5C" height="6" style="stroke:#C82930;stroke-width:1;" width="6" x="732.5" y="845.2168"/><text fill="#000000" font-family="sans-serif" font-size="20" lengthAdjust="spacing" textLength="551.875" x="745.5" y="853.6406">getByCode(code: string): Promise&lt;TaskCategory|null&gt;</text><rect fill="#F24D5C" height="6" style="stroke:#C82930;stroke-width:1;" width="6" x="732.5" y="868.498"/><text fill="#000000" font-family="sans-serif" font-size="20" lengthAdjust="spacing" textLength="467.3242" x="745.5" y="876.9219">getAll(filter): Promise&lt;Page&lt;TaskCategory&gt;&gt;</text><rect fill="#F24D5C" height="6" style="stroke:#C82930;stroke-width:1;" width="6" x="732.5" y="891.7793"/><text fill="#000000" font-family="sans-serif" font-size="20" lengthAdjust="spacing" textLength="470.0195" x="745.5" y="900.2031">update(id, data): Promise&lt;TaskCategory|null&gt;</text><rect fill="#F24D5C" height="6" style="stroke:#C82930;stroke-width:1;" width="6" x="732.5" y="915.0605"/><text fill="#000000" font-family="sans-serif" font-size="20" lengthAdjust="spacing" textLength="266.084" x="745.5" y="923.4844">delete(id): Promise&lt;void&gt;</text><rect fill="#F24D5C" height="6" style="stroke:#C82930;stroke-width:1;" width="6" x="732.5" y="938.3418"/><text fill="#000000" font-family="sans-serif" font-size="20" lengthAdjust="spacing" textLength="276.9824" x="745.5" y="946.7656">count(): Promise&lt;number&gt;</text><rect fill="#F24D5C" height="6" style="stroke:#C82930;stroke-width:1;" width="6" x="732.5" y="961.623"/><text fill="#000000" font-family="sans-serif" font-size="20" lengthAdjust="spacing" textLength="545.6934" x="745.5" y="970.0469">findByName(name: string): Promise&lt;TaskCategory[]&gt;</text></g><!--class TaskCategoryMapper--><g class="entity" data-entity="TaskCategoryMapper" data-source-line="58" data-uid="ent0012" id="entity_TaskCategoryMapper"><rect fill="#F1F1F1" height="119.8438" rx="2.5" ry="2.5" style="stroke:#181818;stroke-width:0.5;" width="523.8848" x="724" y="1093.5137"/><ellipse cx="874.8115" cy="1110.5137" fill="#ADD1B2" rx="12" ry="12" style="stroke:#181818;stroke-width:1;"/><path d="M877.874,1117.5918 Q877.1865,1117.9512 876.4365,1118.123 Q875.6865,1118.2949 874.8584,1118.2949 Q871.9053,1118.2949 870.3428,1116.3574 Q868.7959,1114.4043 868.7959,1110.7324 Q868.7959,1107.0605 870.3428,1105.123 Q871.9053,1103.1699 874.8584,1103.1699 Q875.6865,1103.1699 876.4365,1103.3418 Q877.2021,1103.5137 877.874,1103.873 L877.874,1107.0762 Q877.124,1106.3887 876.4209,1106.0762 Q875.7334,1105.7637 874.9834,1105.7637 Q873.4053,1105.7637 872.5928,1107.0137 Q871.7959,1108.2637 871.7959,1110.7324 Q871.7959,1113.2012 872.5928,1114.4512 Q873.4053,1115.7012 874.9834,1115.7012 Q875.7334,1115.7012 876.4209,1115.3887 Q877.124,1115.0762 877.874,1114.3887 L877.874,1117.5918 Z " fill="#000000"/><text fill="#000000" font-family="sans-serif" font-size="20" lengthAdjust="spacing" textLength="213.2617" x="896.8115" y="1117.4375">TaskCategoryMapper</text><line style="stroke:#181818;stroke-width:0.5;" x1="725" x2="1246.8848" y1="1127.5137" y2="1127.5137"/><line style="stroke:#181818;stroke-width:0.5;" x1="725" x2="1246.8848" y1="1135.5137" y2="1135.5137"/><rect fill="#F24D5C" height="6" style="stroke:#C82930;stroke-width:1;" width="6" x="732" y="1149.6543"/><text fill="#000000" font-family="sans-serif" font-size="20" lengthAdjust="spacing" textLength="405.2734" x="745" y="1158.0781">toSchema(category: TaskCategory): any</text><rect fill="#F24D5C" height="6" style="stroke:#C82930;stroke-width:1;" width="6" x="732" y="1172.9355"/><text fill="#000000" font-family="sans-serif" font-size="20" lengthAdjust="spacing" textLength="493.5156" x="745" y="1181.3594">fromSchema(doc: any): Promise&lt;TaskCategory&gt;</text><rect fill="#F24D5C" height="6" style="stroke:#C82930;stroke-width:1;" width="6" x="732" y="1196.2168"/><text fill="#000000" font-family="sans-serif" font-size="20" lengthAdjust="spacing" textLength="496.8848" x="745" y="1204.6406">toDto(category: TaskCategory): TaskCategoryDto</text></g><!--class TaskCategoryService--><g class="entity" data-entity="TaskCategoryService" data-source-line="67" data-uid="ent0014" id="entity_TaskCategoryService"><rect fill="#F1F1F1" height="259.5313" rx="2.5" ry="2.5" style="stroke:#181818;stroke-width:0.5;" width="637.6055" x="581" y="367.5137"/><ellipse cx="789.4287" cy="384.5137" fill="#ADD1B2" rx="12" ry="12" style="stroke:#181818;stroke-width:1;"/><path d="M792.4912,391.5918 Q791.8037,391.9512 791.0537,392.123 Q790.3037,392.2949 789.4756,392.2949 Q786.5225,392.2949 784.96,390.3574 Q783.4131,388.4043 783.4131,384.7324 Q783.4131,381.0605 784.96,379.123 Q786.5225,377.1699 789.4756,377.1699 Q790.3037,377.1699 791.0537,377.3418 Q791.8193,377.5137 792.4912,377.873 L792.4912,381.0762 Q791.7412,380.3887 791.0381,380.0762 Q790.3506,379.7637 789.6006,379.7637 Q788.0225,379.7637 787.21,381.0137 Q786.4131,382.2637 786.4131,384.7324 Q786.4131,387.2012 787.21,388.4512 Q788.0225,389.7012 789.6006,389.7012 Q790.3506,389.7012 791.0381,389.3887 Q791.7412,389.0762 792.4912,388.3887 L792.4912,391.5918 Z " fill="#000000"/><text fill="#000000" font-family="sans-serif" font-size="20" lengthAdjust="spacing" textLength="211.748" x="811.4287" y="391.4375">TaskCategoryService</text><line style="stroke:#181818;stroke-width:0.5;" x1="582" x2="1217.6055" y1="401.5137" y2="401.5137"/><rect fill="none" height="6" style="stroke:#C82930;stroke-width:1;" width="6" x="589" y="415.6543"/><text fill="#000000" font-family="sans-serif" font-size="20" lengthAdjust="spacing" textLength="498.877" x="602" y="424.0781">taskCategoryRepository: TaskCategoryRepository</text><line style="stroke:#181818;stroke-width:0.5;" x1="582" x2="1217.6055" y1="432.7949" y2="432.7949"/><rect fill="#F24D5C" height="6" style="stroke:#C82930;stroke-width:1;" width="6" x="589" y="446.9355"/><text fill="#000000" font-family="sans-serif" font-size="20" lengthAdjust="spacing" textLength="524.7656" x="602" y="455.3594">getById(id: string): Promise&lt;TaskCategoryDto|null&gt;</text><rect fill="#F24D5C" height="6" style="stroke:#C82930;stroke-width:1;" width="6" x="589" y="470.2168"/><text fill="#000000" font-family="sans-serif" font-size="20" lengthAdjust="spacing" textLength="587.3535" x="602" y="478.6406">getByCode(code: string): Promise&lt;TaskCategoryDto|null&gt;</text><rect fill="#F24D5C" height="6" style="stroke:#C82930;stroke-width:1;" width="6" x="589" y="493.498"/><text fill="#000000" font-family="sans-serif" font-size="20" lengthAdjust="spacing" textLength="610.6055" x="602" y="501.9219">getAllCategories(filter): Promise&lt;Page&lt;TaskCategoryDto&gt;&gt;</text><rect fill="#F24D5C" height="6" style="stroke:#C82930;stroke-width:1;" width="6" x="589" y="516.7793"/><text fill="#000000" font-family="sans-serif" font-size="20" lengthAdjust="spacing" textLength="516.1426" x="602" y="525.2031">createCategory(data): Promise&lt;TaskCategoryDto&gt;</text><rect fill="#F24D5C" height="6" style="stroke:#C82930;stroke-width:1;" width="6" x="589" y="540.0605"/><text fill="#000000" font-family="sans-serif" font-size="20" lengthAdjust="spacing" textLength="596.8555" x="602" y="548.4844">updateCategory(id, data): Promise&lt;TaskCategoryDto|null&gt;</text><rect fill="#F24D5C" height="6" style="stroke:#C82930;stroke-width:1;" width="6" x="589" y="563.3418"/><text fill="#000000" font-family="sans-serif" font-size="20" lengthAdjust="spacing" textLength="357.4414" x="602" y="571.7656">deleteCategory(id): Promise&lt;void&gt;</text><rect fill="#F24D5C" height="6" style="stroke:#C82930;stroke-width:1;" width="6" x="589" y="586.623"/><text fill="#000000" font-family="sans-serif" font-size="20" lengthAdjust="spacing" textLength="276.9824" x="602" y="595.0469">count(): Promise&lt;number&gt;</text><rect fill="#F24D5C" height="6" style="stroke:#C82930;stroke-width:1;" width="6" x="589" y="609.9043"/><text fill="#000000" font-family="sans-serif" font-size="20" lengthAdjust="spacing" textLength="493.5547" x="602" y="618.3281">validateCategoryCode(code): Promise&lt;boolean&gt;</text></g><!--class TaskCategoryController--><g class="entity" data-entity="TaskCategoryController" data-source-line="82" data-uid="ent0016" id="entity_TaskCategoryController"><rect fill="#F1F1F1" height="166.4063" rx="2.5" ry="2.5" style="stroke:#181818;stroke-width:0.5;" width="894.5293" x="22.5" y="86.5137"/><ellipse cx="346.9395" cy="103.5137" fill="#ADD1B2" rx="12" ry="12" style="stroke:#181818;stroke-width:1;"/><path d="M350.002,110.5918 Q349.3145,110.9512 348.5645,111.123 Q347.8145,111.2949 346.9863,111.2949 Q344.0332,111.2949 342.4707,109.3574 Q340.9238,107.4043 340.9238,103.7324 Q340.9238,100.0605 342.4707,98.123 Q344.0332,96.1699 346.9863,96.1699 Q347.8145,96.1699 348.5645,96.3418 Q349.3301,96.5137 350.002,96.873 L350.002,100.0762 Q349.252,99.3887 348.5488,99.0762 Q347.8613,98.7637 347.1113,98.7637 Q345.5332,98.7637 344.7207,100.0137 Q343.9238,101.2637 343.9238,103.7324 Q343.9238,106.2012 344.7207,107.4512 Q345.5332,108.7012 347.1113,108.7012 Q347.8613,108.7012 348.5488,108.3887 Q349.252,108.0762 350.002,107.3887 L350.002,110.5918 Z " fill="#000000"/><text fill="#000000" font-family="sans-serif" font-size="20" lengthAdjust="spacing" textLength="236.6504" x="368.9395" y="110.4375">TaskCategoryController</text><line style="stroke:#181818;stroke-width:0.5;" x1="23.5" x2="916.0293" y1="120.5137" y2="120.5137"/><rect fill="none" height="6" style="stroke:#C82930;stroke-width:1;" width="6" x="30.5" y="134.6543"/><text fill="#000000" font-family="sans-serif" font-size="20" lengthAdjust="spacing" textLength="432.2168" x="43.5" y="143.0781">taskCategoryService: TaskCategoryService</text><line style="stroke:#181818;stroke-width:0.5;" x1="23.5" x2="916.0293" y1="151.7949" y2="151.7949"/><ellipse cx="33.5" cy="168.9355" fill="#84BE84" rx="3" ry="3" style="stroke:#038048;stroke-width:1;"/><text fill="#000000" font-family="sans-serif" font-size="20" lengthAdjust="spacing" textLength="594.9609" x="43.5" y="174.3594">createCategory(categoryDto): Promise&lt;TaskCategoryDto&gt;</text><ellipse cx="33.5" cy="192.2168" fill="#84BE84" rx="3" ry="3" style="stroke:#038048;stroke-width:1;"/><text fill="#000000" font-family="sans-serif" font-size="20" lengthAdjust="spacing" textLength="632.4707" x="43.5" y="197.6406">updateCategory(id, categoryDto): Promise&lt;TaskCategoryDto&gt;</text><ellipse cx="33.5" cy="215.498" fill="#84BE84" rx="3" ry="3" style="stroke:#038048;stroke-width:1;"/><text fill="#000000" font-family="sans-serif" font-size="20" lengthAdjust="spacing" textLength="565" x="43.5" y="220.9219">getCategoryByCode(code): Promise&lt;TaskCategoryDto&gt;</text><ellipse cx="33.5" cy="238.7793" fill="#84BE84" rx="3" ry="3" style="stroke:#038048;stroke-width:1;"/><text fill="#000000" font-family="sans-serif" font-size="20" lengthAdjust="spacing" textLength="867.5293" x="43.5" y="244.2031">getAllCategories(pageNumber, pageSize, name): Promise&lt;Page&lt;TaskCategoryDto&gt;&gt;</text></g><!--link TaskCategory to IdCode--><g class="link" data-entity-1="TaskCategory" data-entity-2="IdCode" data-source-line="92" data-uid="lnk17" id="link_TaskCategory_IdCode"><path codeLine="92" d="M1256,1494.7437 C1256,1522.7637 1256,1547.5137 1256,1573.3537" fill="none" id="TaskCategory-to-IdCode" style="stroke:#181818;stroke-width:1;"/><polygon fill="#181818" points="1256,1579.3537,1260,1570.3537,1256,1574.3537,1252,1570.3537,1256,1579.3537" style="stroke:#181818;stroke-width:1;"/><text fill="#000000" font-family="sans-serif" font-size="20" lengthAdjust="spacing" textLength="84.6582" x="1257" y="1544.0781">contains</text></g><!--link TaskCategoryDto to TaskCategoryFilter--><g class="link" data-entity-1="TaskCategoryDto" data-entity-2="TaskCategoryFilter" data-source-line="94" data-uid="lnk18" id="link_TaskCategoryDto_TaskCategoryFilter"><path codeLine="94" d="M639.59,1483.0937 C618.37,1514.0437 597.1237,1545.0157 576.8837,1574.5257" fill="none" id="TaskCategoryDto-to-TaskCategoryFilter" style="stroke:#181818;stroke-width:1;"/><polygon fill="#181818" points="573.49,1579.4737,581.8792,1574.3141,576.3181,1575.3503,575.2819,1569.7892,573.49,1579.4737" style="stroke:#181818;stroke-width:1;"/><text fill="#000000" font-family="sans-serif" font-size="20" lengthAdjust="spacing" textLength="45.8203" x="611" y="1544.0781">uses</text></g><!--link TaskCategoryRepository to TaskCategory--><g class="link" data-entity-1="TaskCategoryRepository" data-entity-2="TaskCategory" data-source-line="96" data-uid="lnk19" id="link_TaskCategoryRepository_TaskCategory"><path codeLine="96" d="M1214.21,978.6037 C1233.78,998.0437 1251.18,1019.7337 1264,1043.5137 C1311.55,1131.7337 1299.0018,1244.1933 1281.2118,1322.3433" fill="none" id="TaskCategoryRepository-to-TaskCategory" style="stroke:#181818;stroke-width:1;"/><polygon fill="#181818" points="1279.88,1328.1937,1285.7779,1320.306,1280.9898,1323.3184,1277.9774,1318.5303,1279.88,1328.1937" style="stroke:#181818;stroke-width:1;"/><text fill="#000000" font-family="sans-serif" font-size="20" lengthAdjust="spacing" textLength="92.0898" x="1297" y="1160.5781">manages</text></g><!--link TaskCategoryRepository to TaskCategoryMapper--><g class="link" data-entity-1="TaskCategoryRepository" data-entity-2="TaskCategoryMapper" data-source-line="97" data-uid="lnk20" id="link_TaskCategoryRepository_TaskCategoryMapper"><path codeLine="97" d="M1012.29,978.6137 C1006.35,1017.9437 1000.8676,1054.2112 995.8776,1087.1912" fill="none" id="TaskCategoryRepository-to-TaskCategoryMapper" style="stroke:#181818;stroke-width:1;"/><polygon fill="#181818" points="994.98,1093.1237,1000.2814,1084.8234,995.728,1088.1799,992.3714,1083.6265,994.98,1093.1237" style="stroke:#181818;stroke-width:1;"/><text fill="#000000" font-family="sans-serif" font-size="20" lengthAdjust="spacing" textLength="45.8203" x="1007" y="1030.0781">uses</text></g><!--link TaskCategoryMapper to TaskCategory--><g class="link" data-entity-1="TaskCategoryMapper" data-entity-2="TaskCategory" data-source-line="99" data-uid="lnk21" id="link_TaskCategoryMapper_TaskCategory"><path codeLine="99" d="M1048.28,1213.5637 C1084.26,1247.6737 1125.6962,1286.9652 1165.1262,1324.3552" fill="none" id="TaskCategoryMapper-to-TaskCategory" style="stroke:#181818;stroke-width:1;"/><polygon fill="#181818" points="1169.48,1328.4837,1165.7017,1319.3884,1165.8519,1325.0432,1160.197,1325.1934,1169.48,1328.4837" style="stroke:#181818;stroke-width:1;"/><text fill="#000000" font-family="sans-serif" font-size="20" lengthAdjust="spacing" textLength="166.6895" x="1105" y="1265.0781">converts to/from</text></g><!--link TaskCategoryMapper to TaskCategoryDto--><g class="link" data-entity-1="TaskCategoryMapper" data-entity-2="TaskCategoryDto" data-source-line="100" data-uid="lnk22" id="link_TaskCategoryMapper_TaskCategoryDto"><path codeLine="100" d="M917.26,1213.5637 C873.43,1251.2237 820.9415,1296.3142 774.7215,1336.0142" fill="none" id="TaskCategoryMapper-to-TaskCategoryDto" style="stroke:#181818;stroke-width:1;"/><polygon fill="#181818" points="770.17,1339.9237,779.6036,1337.0938,773.9629,1336.6658,774.391,1331.0252,770.17,1339.9237" style="stroke:#181818;stroke-width:1;"/><text fill="#000000" font-family="sans-serif" font-size="20" lengthAdjust="spacing" textLength="74.3457" x="873" y="1265.0781">creates</text></g><!--link TaskCategoryService to TaskCategoryRepository--><g class="link" data-entity-1="TaskCategoryService" data-entity-2="TaskCategoryRepository" data-source-line="102" data-uid="lnk23" id="link_TaskCategoryService_TaskCategoryRepository"><path codeLine="102" d="M946.47,627.5637 C959.96,665.0137 972.5665,700.0388 985.7765,736.7088" fill="none" id="TaskCategoryService-to-TaskCategoryRepository" style="stroke:#181818;stroke-width:1;"/><polygon fill="#181818" points="987.81,742.3537,988.523,732.5307,986.1154,737.6496,980.9965,735.242,987.81,742.3537" style="stroke:#181818;stroke-width:1;"/><text fill="#000000" font-family="sans-serif" font-size="20" lengthAdjust="spacing" textLength="45.8203" x="966" y="679.0781">uses</text></g><!--link TaskCategoryService to TaskCategoryDto--><g class="link" data-entity-1="TaskCategoryService" data-entity-2="TaskCategoryDto" data-source-line="103" data-uid="lnk24" id="link_TaskCategoryService_TaskCategoryDto"><path codeLine="103" d="M747.68,627.7337 C731.76,647.7837 717.83,669.5337 708,692.5137 C613.81,912.8037 648.6737,1200.9374 672.4637,1333.9574" fill="none" id="TaskCategoryService-to-TaskCategoryDto" style="stroke:#181818;stroke-width:1;"/><polygon fill="#181818" points="673.52,1339.8637,675.8731,1330.3,672.6397,1334.9418,667.998,1331.7085,673.52,1339.8637" style="stroke:#181818;stroke-width:1;"/><text fill="#000000" font-family="sans-serif" font-size="20" lengthAdjust="spacing" textLength="72.3633" x="647" y="1030.0781">returns</text></g><!--link TaskCategoryController to TaskCategoryService--><g class="link" data-entity-1="TaskCategoryController" data-entity-2="TaskCategoryService" data-source-line="105" data-uid="lnk25" id="link_TaskCategoryController_TaskCategoryService"><path codeLine="105" d="M578.23,252.5637 C624.13,287.3637 673.9485,325.1392 725.0285,363.8592" fill="none" id="TaskCategoryController-to-TaskCategoryService" style="stroke:#181818;stroke-width:1;"/><polygon fill="#181818" points="729.81,367.4837,725.0541,358.8592,725.8254,364.4632,720.2214,365.2346,729.81,367.4837" style="stroke:#181818;stroke-width:1;"/><text fill="#000000" font-family="sans-serif" font-size="20" lengthAdjust="spacing" textLength="45.8203" x="653" y="304.0781">uses</text></g><!--link TaskCategoryController to CreateTaskCategoryDto--><g class="link" data-entity-1="TaskCategoryController" data-entity-2="CreateTaskCategoryDto" data-source-line="106" data-uid="lnk26" id="link_TaskCategoryController_CreateTaskCategoryDto"><path codeLine="106" d="M446.68,252.8437 C430.19,318.3137 411,412.5437 411,496.5137 C411,496.5137 411,496.5137 411,1154.5137 C411,1221.9537 411,1293.3937 411,1345.2837" fill="none" id="TaskCategoryController-to-CreateTaskCategoryDto" style="stroke:#181818;stroke-width:1;"/><polygon fill="#181818" points="411,1351.2837,415,1342.2837,411,1346.2837,407,1342.2837,411,1351.2837" style="stroke:#181818;stroke-width:1;"/><text fill="#000000" font-family="sans-serif" font-size="20" lengthAdjust="spacing" textLength="45.8203" x="412" y="867.5781">uses</text></g><!--link TaskCategoryController to TaskCategoryFilter--><g class="link" data-entity-1="TaskCategoryController" data-entity-2="TaskCategoryFilter" data-source-line="107" data-uid="lnk27" id="link_TaskCategoryController_TaskCategoryFilter"><path codeLine="107" d="M358.97,252.7737 C292.57,312.1237 221,398.7637 221,496.5137 C221,496.5137 221,496.5137 221,1412.5137 C221,1509.8337 316.1886,1567.3832 403.1886,1600.7832" fill="none" id="TaskCategoryController-to-TaskCategoryFilter" style="stroke:#181818;stroke-width:1;"/><polygon fill="#181818" points="408.79,1602.9337,401.8215,1595.9738,404.1222,1601.1417,398.9543,1603.4423,408.79,1602.9337" style="stroke:#181818;stroke-width:1;"/><text fill="#000000" font-family="sans-serif" font-size="20" lengthAdjust="spacing" textLength="45.8203" x="222" y="1030.0781">uses</text></g><!--link TaskCategoryController to TaskCategoryDto--><g class="link" data-entity-1="TaskCategoryController" data-entity-2="TaskCategoryDto" data-source-line="108" data-uid="lnk28" id="link_TaskCategoryController_TaskCategoryDto"><path codeLine="108" d="M492.84,252.5337 C509.07,318.0337 528,412.4437 528,496.5137 C528,496.5137 528,496.5137 528,1154.5137 C528,1225.0037 568.2139,1287.5827 610.1339,1335.3827" fill="none" id="TaskCategoryController-to-TaskCategoryDto" style="stroke:#181818;stroke-width:1;"/><polygon fill="#181818" points="614.09,1339.8937,611.1632,1330.4897,610.7932,1336.1345,605.1485,1335.7646,614.09,1339.8937" style="stroke:#181818;stroke-width:1;"/><text fill="#000000" font-family="sans-serif" font-size="20" lengthAdjust="spacing" textLength="72.3633" x="529" y="867.5781">returns</text></g><!--SRC=[jLPBJnin4Bxlhx2uT2k8MYfEgofI2KBYm4CDvLBrO7Q7OCLhhsnlfBJblzVsEjdPXs41DOSaylYRvpSprcicAgfeoMM-Xe8Ky41hRiwbC4ls6yYNpubXXWFviJmvFZuXCt991Lq1MSYoub22C5HjoItLQxAW1bPICT3kB-LobIGVo9aiAHFaKXR0auhcQuS-Q4uFo9-4s4_EgTPUIT2n3GBtcH5MP4GRnSGA7URXPaOkYeLLZaI2bZ22A43dYbM6IJ6G7X8ZpunCFsOTD-oHl_AK83yRUnqFDvJNCA9q1UREYPpUWP1fAsE5azrBoO6AOEl9v-tscjmqwK9fkxsEvymw-vgq3KIlJ5id9mi5Ll5ptlmdmzZaEUC6LCTgPTDsLPVte38Y_6zFw5W-8Xgu5Aho7IgfcN4C7HIdbSLhXF2TvFZqfMsECCRouqR9acduYe_d26zvThgzADAsv17GNr5pFa0wFgUv_Ne3-XldwODFF0BTs8HqdSMekYfSjAmu8lOFdMhC3X3mC0JOI5RWExciXKdHXQQo-Ce34yNfzieMECLLZdZnyzSSr_-ILfMbsA3spNcyxW67QsxaCd-4aiQhJiKM-ssz2uX2vbuwWHdDM8kQ61zsFjGbg0tBOHXh4CI3tI4xqOusGHPfZhTGsxh_FdP755Y2jvjj0jMjcWxRczxUITDd6E-GWpRP0rzebp7lcuv16jxNEHkthf1B-yGYLDXadQPPsDU4afoFDKuhY_C9uMEK2fJBndY8Lcwl5dcRkoabEHmhoQjrM4hj9AUZANmUswLZkz-Ezklio6-lQHJThpLEtPxLZwpIIUSXDflDmuidinonppqcT9BqDxsxDLp56Qarz6wZ3TW7PQJqZqiz5T1CrJ4hOTuEBTWGDg2CjeFnavkeKr0sm2nGfsTcD-dw23pXl7DJGDwC0bEhVePH0_H1U-8FpFH0eo-qbs7Heax4T8Bw1m00]--></g></svg>